<?xml version="1.0" encoding="UTF-8"?>
<svg id="Layer_1" data-name="Layer 1" xmlns="http://www.w3.org/2000/svg" viewBox="0 0 595.28 419.53">
  <polygon points="200.66 239.88 187.9 239.94 187.82 157.35 159.11 239.96 147.2 239.95 118.66 155.99 118.52 239.91 105.86 239.92 105.86 140.59 125.67 140.56 146.15 201.93 153.87 225.24 157.76 213.7 182.88 140.56 200.66 140.56 200.66 239.88"/>
  <path d="M291.66,201.45c4.13,10.68,1.12,22.59-6.68,30.54-3.34,2.96-7.01,4.64-11.23,5.98-5.06,1.24-10.04,1.98-15.41,1.98h-39.88s0-99.41,0-99.41l40.46.05c3.95,0,7.61.76,11.36,1.63,7.77,2.11,13.76,7.48,16.7,14.93,4.61,11.69-.37,24.38-12.04,29.88,7.49,2.44,13.81,6.87,16.73,14.41ZM274.43,161.04c-1.67-4.26-5.19-6.86-9.62-7.81-3.7-.54-7.34-.89-11.16-.89h-21.98s0,29.99,0,29.99h23.43c3.77,0,7.3-.36,10.87-1.21,9.16-2.74,11.57-12.16,8.47-20.08ZM279.8,210.33c-.26-7.73-5.39-13.62-12.65-15.11-3.51-.71-6.93-.99-10.6-1.11h-24.88s0,34.11,0,34.11l29.74-.05c4.42-.42,8.73-1.11,12.31-3.8,4.31-3.23,6.27-8.47,6.08-14.03Z"/>
  <path d="M329.74,222.71c12.82,11.28,35.28,10.68,45.12-5.32,2.35-3.83,3.66-7.88,4.76-12.3l13.13,3.32c-1.38,5.65-3.46,10.73-6.54,15.57-5.84,8.93-14.73,14.93-25.34,16.83-8.61,1.54-17.3,1.06-25.74-1.33-21.99-6.24-30.44-30.22-30.17-51.11.26-20.27,8.75-38.72,28.54-46.21,9.15-3.46,18.92-4.22,28.55-2.3,10.59,2.11,19.38,8.48,24.79,17.74,1.78,3.27,3.1,6.4,4.25,10.2l-12.96,3.16c-3.33-10.42-9.31-18.48-20.69-20.31-16.33-2.62-31.38,4.65-36.24,21.11-3.63,12.29-3.59,25.41.3,37.67,1.63,5.15,4.23,9.72,8.26,13.27Z"/>
  <path d="M452.36,230.07c9.76-1.2,17.53-7.05,21.54-15.72,1.39-3,2.25-5.95,3.1-9.26l13.11,3.31c-6.49,27.01-28.56,37.55-54.87,31.81-23.75-5.18-33.1-29.47-32.91-51.46.18-20.1,8.37-38.66,27.93-46.34,10.09-3.96,21.15-4.7,31.67-1.94,13.51,3.55,22.86,14.11,26.51,27.36l-12.96,3.12c-1.29-3.86-2.69-7.17-4.88-10.38-6.69-9.81-18.1-11.69-29.13-9.75-11.3,1.99-19.72,10.05-22.93,21.03-3.63,12.41-3.59,25.7.47,38.05,1.8,5.45,4.72,10.2,9.17,13.73,6.82,5.4,15.31,7.54,24.17,6.45Z"/>
  <path d="M169.95,293.07c.68,2.32.9,3.94,1.08,6.38l4.51-.05-.29-12.15,3.05-1.03-.19,13.21,5.68.02-.25-12c.87-.43,1.47-.68,3.02-1.2l-.24,16.4h-52.32s-.35-15.11-.35-15.11c.83-.52,1.71-.88,3.02-1.3l-.16,13.24,23.15-.03c-.76-1.28-1.35-2.12-2.12-2.92-1.26-1.31-2.9-1.3-4.57-.24-.62-.99-.1-2.27.95-2.95,3.64-2.36,7.37,3.35,9.1,6.1l5.09.04c.11-1.84-.14-3-.74-4.7l2.6-1.67Z"/>
  <path d="M121.3,272.04l-.19-12.64-4.38,12.54c-.95.09-2.1.1-3.32.06l-4.54-12.82-.06,12.76-3.61.08-.03-17.63h5.86s4.21,12.57,4.21,12.57l4.3-12.6,5.7.06-.02,17.62h-3.91Z"/>
  <path d="M313.11,294.93c1.34-1.95,3.26-2.45,5.08-1.83,3.63,1.24,3.32,6.61,1.88,9.82l-6.48-1.61-.93,1.28-7.05.03-1.52-1.83c-1.19.67-2.7,1.79-3.96,1.79l-6.93.05-.34-14.88c.51-.78,1.84-1.3,3.03-1.46l-.18,13c2.16.29,4.33.34,6.65-.65-.78-.98-1.54-1.45-2.9-2.11l.72-3.65c1.73-.95,6.53-2.41,7.61-.02s.32,4.44-1.64,6.37c1.72.24,3.75.29,5.26.12.49-1.61.83-3.16,1.69-4.4ZM304.86,296.87c.91-.63.98-1.99.09-2.26-.47-.15-1.47.16-2.17.39l2.08,1.87ZM318.16,299.17c.52-.5.37-1.89-.09-2.67-.42-.71-1.84-.92-2.62-.47-.53.31-1.09,1.4-1.06,2.1l3.77,1.04Z"/>
  <path d="M328.65,300.4c-.48-.83-.08-3.14.48-3.93.81-1.14,2.97-1.74,4.19-2.3.34-1.43,1.01-2.56,2.95-2.64l.68,5.64c.15,1.26,1.48,2.3,2.72,2.3l20.54-.08c-2.43-2.59-4.61-4.13-7.08-6l1.14-3.35,10.1-4.17-1.3,3.15-6.85,2.99c2.75,2.22,5.23,4.1,7.34,6.99.55.76.06,2.66-.3,3.65h-24.63c-1.76,0-2.93-.91-3.73-2.71l-2.46,2.94c-1.28-.52-2.99-1.11-3.78-2.46ZM333.49,298.98c.94-.54.97-2.17.59-2.85l-3.44,1.68c.85.52,2.23,1.41,2.85,1.17Z"/>
  <path d="M233,302.6h-38.58c-.92-3.21,2.1-7.99,2.16-6.71l.05,1.11c.03.66.27,1.96.85,2.42l11.5.02-.35-11.99c.88-.52,1.91-.91,3.04-1.18l-.13,13.18h18.83c.2-1.68-.03-2.87-.63-4.56.5-.52,1.51-1.21,2.52-1.8,1.17,3.13,1.16,5.65.74,9.5Z"/>
  <path d="M222.14,268.61c-.7,2.05-2.95,3.39-5.12,3.39h-7.79s0-17.58,0-17.58c3.96.14,12.09-1.26,12.48,3.79.15,1.92-.96,3.36-2.95,4.33,2.77.75,4.39,3.09,3.37,6.07ZM216.89,260.87c.79-.52.8-2.54-.08-2.94-1.13-.51-2.35-.53-3.58-.46v4.04c1.31.11,2.59.07,3.66-.65ZM218.22,266.93c.03-.63-.6-1.99-1.27-2.13-1.39-.28-2.5-.27-3.81-.19l.08,4.43c1.76.11,4.87.3,5-2.11Z"/>
  <path d="M425.08,271.95l-3.8.11-.09-7.8c-.01-1.13-.81-2.07-1.85-2.1-.79-.02-2.09.91-2.11,1.88l-.16,7.98-3.82-.02v-12.49s3.3-.03,3.3-.03c.28.13.71,1.17.75,1.34,1.23-.91,2.6-1.71,3.85-1.72,1.52-.01,2.73.76,3.72,2.09,1.6-1.92,4.52-2.94,6.86-1.15.8.61,1.41,2.33,1.41,3.39l.02,8.56-3.84.04-.11-7.83c-.01-1.11-.97-2.03-1.95-2.05-.73-.01-2.04,1.08-2.05,1.97l-.13,7.81Z"/>
  <path d="M386.44,299.22c.66.24,2.03.23,2.99.13.16-1.67-.05-2.78-.69-4.53l2.5-1.74c1.32,3.27,1.25,6.21.68,9.53l-19,.04c-.69,2.75-2.03,4.86-4.43,5.92-1.73.76-4.23-.01-4.98-1.78,2.93-.18,5.76-1.09,6.53-3.88.74-2.71.07-5.2-1.05-7.94.79-.69,1.56-1.23,2.67-1.93.99,2.28,1.35,3.89,1.61,6.35l4.2.03-.47-2.69,2.24-1.09,1.05,3.64,3.33.2-.46-2.73c.44-.29,1.56-.81,2.22-1.04l1.09,3.52Z"/>
  <path d="M439.55,277.79l-3.93-.07v-18.1s3.57-.15,3.57-.15l.56,1.42c1.22-1.25,2.98-2.01,4.89-1.65,4.43.84,4.82,6.83,3.26,10.14-.72,1.52-2.31,2.6-3.56,2.86-1.93.39-3.32-.09-4.78-1.4l-.02,6.95ZM444.16,263.15c-.38-.74-1.76-1.07-2.5-.91-2.25.51-2.46,3.44-1.94,5.4.3,1.12,1.49,1.76,2.54,1.7,2.25-.12,3.13-3.83,1.9-6.2Z"/>
  <path d="M167.78,270.92c-1.16,1.05-2.78,1.68-4.61,1.37-4.24-.74-5.1-6.36-3.36-10.09.69-1.47,2.2-2.58,3.45-2.87,1.85-.42,3.26-.05,4.76,1.14l.11-7.02,3.88-.04v18.59s-3.27.07-3.27.07c-.21,0-.71-.72-.96-1.14ZM167.32,268.6c1.11-1.74,1.12-3.52.4-5.27-.29-.72-1.61-1.22-2.37-1.13-2.25.28-2.78,3.31-2.15,5.4.24.8,1.16,1.58,1.78,1.71.59.13,2.01-.2,2.34-.71Z"/>
  <path d="M343.28,277.76l-3.91-.05v-18.16s3.67-.08,3.67-.08l.44,1.4c1.21-1.09,2.65-1.84,4.36-1.71,1.44.11,3.06.97,3.79,2.51,1.85,3.89.58,9.88-3.76,10.62-1.74.29-3.06-.17-4.52-1.36l-.06,6.84ZM347.92,263.25c-.37-.76-1.72-1.18-2.44-1.04-2.36.44-2.58,3.41-2.03,5.56.27,1.06,1.58,1.68,2.52,1.58,2.49-.27,2.95-4.04,1.95-6.1Z"/>
  <path d="M119.01,295.68l1.11,3.68,3.51.08-.5-2.68c.37-.39,1.66-.89,2.25-1.04l1.03,3.67,3.04-.03c.08-1.64-.14-2.79-.62-4.47.44-.55,1.57-1.33,2.41-1.76,1.31,3.31,1.17,6.24.71,9.47l-12.02.06c-1.16,4.64-5.54,6.87-9.59,5.54s-5.96-5.93-4.32-10.11c.41-1.05.85-2.02,1.99-2.38-.36,2.66-.69,5.04.6,7.21,1.11,1.85,2.97,2.79,5.09,2.37,1.79-.36,3.38-1.89,3.66-4.24.12-1.02-.29-2.62-.51-3.89-.1-.57,1.12-1.16,2.15-1.47Z"/>
  <path d="M328.25,277.75l-3.89-.03.02-18.17,3.31-.03c.32,0,.74,1.08.83,1.28,1.12-1,2.57-1.72,4.07-1.65s3.21.83,3.97,2.41c1.23,2.57,1.21,5.89-.29,8.3-1.73,2.77-5.3,3.39-7.95,1.14l-.07,6.74ZM332.49,268.51c1.21-1.76,1.32-4.26-.04-5.74-.73-.8-2.52-.64-3.14-.03-1.66,1.64-1.5,5.14.02,6.2.81.57,2.51.52,3.16-.43Z"/>
  <path d="M388.41,267.51c2.22,2.08,5.01,1.55,7.8.34l.06,3.66c-3.05,1.05-6.14,1.3-9.09.06-3.07-1.29-4.56-4.44-4.62-7.7-.08-4,1.89-7.61,5.68-9.11,2.6-1.03,5.35-.77,8.07-.06l-.12,3.83c-2.8-1.09-5.34-1.47-7.51.35-2.38,2-2.66,6.38-.26,8.63Z"/>
  <path d="M299.89,267.82c2.32,1.8,4.87,1.04,7.43.1l.04,3.57c-3.06,1.09-6.15,1.28-9.11.06s-4.39-4.21-4.57-7.36c-.27-4.65,2.43-8.9,7.1-9.87,2.17-.45,4.14-.16,6.55.27l.04,3.88c-2.58-.81-4.92-1.48-7.2.1-2.88,2.01-3.19,6.98-.28,9.24Z"/>
  <path d="M282.35,265.35l4.58,6.49c-1.68.18-3.18.21-4.57.07l-3.87-5.89-.09,6-3.84-.08-.03-18.47,3.86-.1.14,11.55,3.61-5.38h4.58s-4.36,5.81-4.36,5.81Z"/>
  <path d="M489.98,259.57l-5.55,14.67c-1.16,3.06-4.39,4.55-7.33,3.29l-.03-2.8c1.33.14,2.4.23,3-.19.56-.4,1.51-2.05,1.25-2.71l-4.85-12.19,4.24-.14,2.71,8.58,2.73-8.54,3.83.04Z"/>
  <path d="M411.31,265.48c.06,4.36-2.98,6.98-7.03,6.93s-6.7-2.74-6.66-6.73,2.99-6.64,7.03-6.56c3.69.08,6.59,2.37,6.65,6.36ZM407.29,265.56c.01-2.31-1.33-3.56-3.1-3.36-1.68.19-2.53,1.66-2.53,3.53,0,1.18.42,2.67,1.35,3.23.83.49,2.43.46,3.18-.13s1.1-2.05,1.11-3.27Z"/>
  <path d="M322.41,265.48c.07,4.41-2.95,7.01-7.05,6.93-3.84-.07-6.51-2.51-6.62-6.37-.12-4.17,2.82-6.95,7-6.91,3.73.03,6.61,2.34,6.67,6.35ZM318.39,265.57c.04-2.33-1.29-3.53-3.13-3.35-1.65.16-2.48,1.65-2.5,3.53-.01,1.15.43,2.69,1.31,3.22s2.42.46,3.24-.13c.73-.53,1.07-2.06,1.08-3.26Z"/>
  <path d="M467.43,264l-.15,7.94-3.84.12-.03-12.51,3.67-.09.51,1.46c1.66-1.79,4.49-2.55,6.57-.81.91.76,1.4,2.49,1.39,3.7v8.15s-3.85.09-3.85.09l-.08-7.65c-.01-1.05-.91-2.12-1.81-2.24-.73-.1-2.36.74-2.38,1.83Z"/>
  <path d="M191.76,264.16l-.16,7.9-3.8-.1-.04-12.35,3.79-.09.19,1.81c1.48-2.3,4.86-3.09,7.03-.97.82.8,1.17,2.63,1.16,3.81l-.05,7.87-3.87-.03-.02-7.47c0-1.12-.73-2.15-1.76-2.34-.84-.15-2.45.69-2.48,1.96Z"/>
  <path d="M224.66,271.44c-1.32-1.05-1.46-2.93-.95-4.53.41-1.29,1.95-2.26,3.55-2.51l3.71-.58c.32-.65-.54-1.92-1.33-1.94-1.79-.05-3.11.39-4.89,1.14v-2.91c2.03-.67,3.96-1.08,5.95-.87,2.45.26,4.1,2.2,4.11,4.62l.02,8.13-3.5.11-.34-1.69c-1.26,2.13-4.3,2.66-6.35,1.03ZM229.17,269.52c1.63-.39,2.31-1.87,1.83-3.38l-2.68.39c-.83.12-1.39,1.36-1.11,2.17.19.53,1.3.97,1.96.82Z"/>
  <path d="M147.32,271.64c-1.5-1.03-1.69-2.84-1.31-4.49.33-1.43,1.88-2.47,3.62-2.75l3.82-.62c.27-.79-.77-1.92-1.65-1.92-1.68,0-3.02.46-4.68,1.16l-.13-2.8c2.16-.81,4.35-1.31,6.64-.85,5.28,1.06,3.26,8.38,3.54,12.67h-2.99c-.33,0-.86-.94-.94-1.18-1.54,1.52-3.93,2.15-5.92.79ZM151.59,269.53c1.79-.5,2.12-1.86,1.81-3.41l-3.09.55c-.57.1-.98,1.48-.76,2.02s1.38,1.02,2.04.84Z"/>
  <path d="M450.69,271.38c-1.3-1.12-1.37-2.98-.89-4.55.4-1.3,1.96-2.18,3.63-2.45l3.8-.61c.13-.71-.77-1.85-1.56-1.89-1.86-.09-3.16.39-4.93,1.14l.11-2.98c2.04-.61,3.95-1.02,5.91-.82,2.26.23,4.06,1.99,4.08,4.29l.06,8.41c-1.95.09-3.46.69-3.97-1.17-1.6,1.75-4.29,2.29-6.24.62ZM454.67,269.58c1.78,0,2.86-1.74,2.46-3.4-1.24.03-4.47.34-4.04,2.14.1.43,1.04,1.26,1.58,1.26Z"/>
  <path d="M128.82,271.65c-1.51-1.02-1.71-2.83-1.3-4.47.34-1.37,1.85-2.49,3.56-2.76l3.88-.62c.14-.74-.72-1.89-1.52-1.91-1.77-.04-2.87.39-4.88,1.07l.14-2.83c1.94-.7,3.86-1.1,5.83-.9,2.25.23,4.13,1.94,4.15,4.27l.06,8.45-3.39.15-.59-1.28c-1.44,1.52-3.88,2.21-5.93.83ZM133.62,269.38c1.36-.75,1.57-1.95,1.3-3.26-1.17.18-2.4.39-3.49.8-.53.2-.49,1.85-.07,2.21s1.62.6,2.26.25Z"/>
  <path d="M180.02,269.44c1.84.33,3.31-.15,4.88-.71v2.75c-2.09.88-4.41,1.13-6.59.63-2.77-.63-4.22-2.98-4.32-5.69s.91-5.32,3.35-6.56c2.31-1.17,5.47-1.05,7.34,1.12,1.37,1.59,1.49,3.88,1.29,5.84l-8.06.08c.11,1.09.78,2.3,2.12,2.53ZM182.31,264.46c.26-1.78-.87-2.65-2.11-2.61-1.15.03-2.01,1.01-2.34,2.57l4.45.04Z"/>
  <path d="M359.15,269.27c1.94.65,3.36.14,5.42-.49v2.73c-2.1.83-4.41,1.11-6.61.62-2.75-.61-4.22-3-4.32-5.7s.82-5.19,3.12-6.44,5.26-1.23,7.22.63c1.68,1.6,1.97,4.02,1.55,6.19l-7.91.11c-.04.91.53,2.01,1.54,2.35ZM362.01,264.47c.08-1.83-.9-2.64-2.2-2.62-1.12.02-1.97,1.03-2.32,2.57l4.52.04Z"/>
  <path d="M252.97,294.81l2.54-1.75c1.3,3.28,1.18,6.21.71,9.57h-12.59s-.3-15.2-.3-15.2c.91-.48,1.69-.8,3.02-1.24l-.19,13.21,7.5.04c.14-1.68.02-2.64-.69-4.64Z"/>
  <path d="M266.62,295.74c-.25,2.6-.52,4.92.65,7.07,1.01,1.88,2.92,2.83,4.84,2.53s3.48-1.76,3.86-3.88c.41-2.29-.14-4.35-.92-6.7l2.61-1.67c2.03,3.83,2.14,8.18.04,11.87-1.92,3.38-6.13,4.5-9.39,2.98-3.51-1.64-4.99-5.51-3.77-9.24.39-1.18.58-2.45,2.08-2.96Z"/>
  <path d="M272.41,268.61l.09,2.98c-2.55,1.14-5.8,1.25-8.12-.7-3.2-2.69-2.83-8.2.63-10.53,2.23-1.5,4.88-1.47,7.39-.69.1,1.02.1,2.29.02,3.22-2.12-.92-3.95-.97-5.2.3s-1.35,3.64-.23,4.98c1.19,1.42,2.99,1.54,5.42.44Z"/>
  <path d="M227.33,310.03l-2.19-2.16,2.21-2.23,2.18,2.03,2.03-1.95c.94.79,1.83,1.03,2.93.74,2.55-.68,4.4-2.62,4.45-5.34.04-2.06-.57-4.01-1.28-6.16.57-.64,1.6-1.35,2.55-1.82,2.42,4.74,2.45,11.13-1.78,14.67-1.39,1.16-3.04,1.34-4.82.53l-2.06,1.7-2.08-1.96-2.13,1.95Z"/>
  <path d="M371.28,272.01l-3.87-.04-.02-12.39,3.73-.1.43,1.69c.77-1.29,2.13-2.28,4-1.76l.03,3.33c-1.28.03-2.34-.01-2.96.31s-1.22,1.54-1.23,2.26l-.09,6.72Z"/>
  <path d="M250.72,271.98l-3.89.05-.03-12.47,3.68-.09.41,1.87c.73-1.57,2.12-2.46,4.12-1.93l-.02,3.37c-1.25-.02-2.22-.05-2.92.2-.63.22-1.29,1.6-1.3,2.3l-.05,6.7Z"/>
  <path d="M241.21,271.95l-3.87.06v-12.47s3.84-.03,3.84-.03l.25,1.84c.8-1.59,2.14-2.43,4.08-1.96l-.02,3.37c-1.22-.02-2.15-.04-2.91.25-.63.24-1.26,1.49-1.27,2.23l-.1,6.71Z"/>
  <path d="M281.22,298.08c.16-.3,1.3-.47,1.44-.18l.7,1.39c1.46.14,3.05.15,4.93.12-.39-2.22-1.04-3.77-2.01-5.8l2.04-2.37c1.99,3.35,3.4,7.44,2.53,11.4l-10.19-.06c-.26-1.56.02-3.48.56-4.49Z"/>
  <polygon points="260.3 272.02 256.43 272.04 256.41 259.53 260.29 259.52 260.3 272.02"/>
  <polygon points="335.61 289.44 333.3 287.49 331.22 289.47 329.03 287.23 331.23 284.95 333.32 287.01 335.56 284.99 337.7 287.2 335.61 289.44"/>
  <polygon points="386.25 293.08 384.01 290.95 381.96 293.02 379.72 290.75 381.88 288.55 384.05 290.53 386.28 288.56 388.43 290.77 386.25 293.08"/>
  <path d="M204.62,294.4l-3.78,1.43c-.29-.46.14-1.19.71-1.69-.16-.15-.87-1.14-.85-1.61.04-1.17,1.08-3.05,2.19-3.45.3-.11,1.22.07,1.45.27s.13.91-.04,1.16-.66.39-1.06.48l-.56.13c-.19.05-.23.9-.03.92l2.69.24c.28.3-.22,1.93-.72,2.12Z"/>
  <path d="M143.67,259.02c-.26.61-1.78.62-2.62.44l1.3-5.44,3.39.06-2.07,4.94Z"/>
  <path d="M258.53,257.55c-1.55.12-2.46-.95-2.41-2.22.05-1.15,1.17-2.02,2.54-1.84,1.06.13,1.88.93,1.94,1.84.07,1.18-.72,2.13-2.07,2.23Z"/>
  <polygon points="384.01 288.61 381.73 286.36 384 284.04 386.27 286.37 384.01 288.61"/>
  <polygon points="271.25 292.82 269.08 290.39 271.25 288.21 273.49 290.42 271.25 292.82"/>
  <polygon points="167.84 290.72 165.59 288.49 167.8 286.24 170.08 288.47 167.84 290.72"/>
  <polygon points="252.83 309.98 250.52 307.71 252.78 305.48 254.98 307.63 252.83 309.98"/>
</svg>