<?xml version="1.0" encoding="UTF-8"?>
<svg id="Layer_1" data-name="Layer 1" xmlns="http://www.w3.org/2000/svg" viewBox="0 0 501.29 113.6">
  <defs>
    <style>
      .cls-1 {
        fill: #57b72e;
      }

      .cls-2 {
        fill: #00b6bc;
      }

      .cls-3 {
        fill: #0083c9;
      }

      .cls-4 {
        fill: #6c7880;
      }

      .cls-5 {
        fill: #153970;
      }

      .cls-6 {
        fill: #91a1a9;
      }

      .cls-7 {
        fill: #c8d500;
      }

      .cls-8 {
        fill: #ab0015;
      }

      .cls-9 {
        fill: #7f8e97;
      }
    </style>
  </defs>
  <g>
    <g>
      <path class="cls-4" d="M268.11,60.7h0c-.4-.16-1.04-.56-1.99-.79-1.34-.48-3.25-.79-5.47-.4-.79.08-1.59.32-2.38.56-.08.08-.16.08-.24.08-.48.16-.87.4-1.27.56-.39.24-.71.4-1.11.63-.79.48-1.59,1.03-2.38,1.67-.87-5.4-.48-10.4-.23-12.86,1.9,1.19,1.43,4.53,1.03,5.48-.07.08,0,.08,0,.08,2.38-2.86,1.2-5.88.72-6.67v-.08c.39.32.63.63.87.87.72.95,1.04,1.99,1.11,2.86v1.27c0,.16,0,.24-.07.32h.07c.63-1.27.95-3.18,0-5-.23-.48-.63-.95-1.11-1.43-.07-.16-.23-.32-.39-.48.16,0,.32.08.39.16.4.08.79.32,1.11.56.72.48,1.2,1.27,1.51,1.99.23.63.32,1.27.32,1.83q0,.08,0,0c.48-1.59.23-2.86-.32-3.73-.4-.63-.95-1.11-1.51-1.43-.39-.24-.79-.4-1.11-.56-.16,0-.32-.08-.48-.08.16-.08.32-.08.48-.08.4,0,.79.08,1.11.08.63.16,1.11.4,1.51.63.55.4.87.87.95,1.03,0,.08.07,0,.07,0-.07-.87-.48-1.51-1.03-1.98-.48-.4-.95-.64-1.51-.79-.39-.08-.71-.16-1.11-.16-.48,0-.95.08-1.34.24.32-.56.87-.87,1.34-1.03.4-.08.72-.16,1.11-.08.32,0,.63.08.88.16-.24-.32-.56-.56-.88-.72-.39-.24-.71-.32-1.11-.4-.95-.08-1.9.32-2.54,1.35h-.07c-.08-.24-.24-.48-.32-.79-.24-.56-.48-1.27-.63-1.91q0-.08,0,0c-.08.63-.33,1.35-.56,1.91-.16.32-.24.56-.4.79-1.18-1.75-3.25-1.75-4.6-.24h.08c.79-.4,2.45-.24,3.25.95-1.27-.56-3.17-.16-4.28,1.03-.32.48-.55,1.03-.63,1.67,0,0,0,.08,0,0,.08-.16.32-.48.63-.79.63-.56,1.75-1.03,3.49-.87-.95.08-2.77.95-3.49,2.78-.23.79-.32,1.83,0,3.02q0,.08,0,0v-.08c.08-1.67,1.04-3.89,3.33-4.45h.08c-2.7,2.38-2.38,5.24-1.59,6.91h.07c-.07-1.27-.23-3.57,1.9-5.32v.08c-.48.79-1.59,3.81.72,6.67q.07,0,.07-.08c-.39-.95-.95-4.29.95-5.48.24,2.46.63,7.46-.23,12.86-1.51-1.19-3.1-2.22-4.69-2.86-.23-.08-.39-.08-.63-.16-1.59-.56-3.09-.71-4.44-.63-2.06.08-3.72.71-4.6,1.11-.16.16-.32.24-.48.24,0,.08,0,.16.08.08.16,0,.23-.08.39-.08,1.67-.48,3.17-.56,4.6-.48,1.59.16,3.1.64,4.44,1.19,1.99.95,3.73,2.14,5.32,3.49-2.22,1.98-4.13,3.89-5.32,4.53,0,.08-.07.08-.16.16-.23-.4-.71-.64-1.27-.48-.48.08-.79.4-.95.87-.07.4.08.87.24,1.11.63.56,1.34.63,2.14.32,1.59-.72,3.58-2.78,5.96-4.92.16-.24.39-.4.56-.56.23.16.39.32.63.56,1.03.95,2.06,1.91,2.93,2.78.4.32.72.64,1.11.87.56.48,1.04.79,1.51,1.11.87.48,1.66.48,2.38-.08l.07-.08c.16-.16.32-.72.24-1.11-.08-.24-.16-.4-.32-.63-.16-.08-.4-.24-.63-.24-.48-.16-.95.08-1.27.48-.16-.08-.32-.24-.48-.32-.48-.32-.95-.71-1.51-1.27-.32-.24-.71-.56-1.11-.95-.71-.63-1.5-1.35-2.38-2.14.79-.64,1.59-1.27,2.38-1.83.4-.24.72-.48,1.11-.63.48-.32.95-.56,1.51-.87.71-.32,1.5-.63,2.38-.87,1.66-.48,3.49-.64,5.47-.32.63.08,1.27.24,1.9.4.08.08.16,0,.08-.08Z"/>
      <polygon class="cls-8" points="248.51 93.34 248.51 93.34 252.09 96.99 255.74 93.34 252.09 89.77 248.51 93.34"/>
      <polygon class="cls-8" points="223.13 69.04 223.13 69.04 221.77 73.09 225.82 74.44 227.09 70.39 223.13 69.04"/>
      <polygon class="cls-8" points="238.27 34.34 238.27 34.34 234.78 33.78 234.23 37.28 237.72 37.83 238.27 34.34"/>
      <polygon class="cls-8" points="279.06 55.14 279.06 55.14 276.6 57.61 279.06 60.15 281.51 57.61 279.06 55.14"/>
      <polygon class="cls-8" points="277 46.96 277 46.96 275.41 50.06 278.5 51.65 280.09 48.55 277 46.96"/>
      <polygon class="cls-8" points="234.23 78.01 234.23 78.01 234.78 81.51 238.27 80.95 237.72 77.46 234.23 78.01"/>
      <polygon class="cls-8" points="265.96 34.34 265.96 34.34 266.53 37.83 269.93 37.28 269.38 33.78 265.96 34.34"/>
      <polygon class="cls-8" points="241.45 82.54 241.45 82.54 243.03 85.64 246.13 84.05 244.54 80.95 241.45 82.54"/>
      <polygon class="cls-8" points="249.62 30.69 249.62 30.69 252.09 33.15 254.54 30.69 252.09 28.14 249.62 30.69"/>
      <polygon class="cls-8" points="250.42 34.18 250.42 34.18 248.11 32.43 246.36 34.81 248.74 36.48 250.42 34.18"/>
      <polygon class="cls-8" points="257.8 80.48 257.8 80.48 255.42 78.81 253.75 81.19 256.05 82.86 257.8 80.48"/>
      <polygon class="cls-8" points="232.17 45.14 232.17 45.14 229.39 46.09 230.27 48.79 233.04 47.92 232.17 45.14"/>
      <polygon class="cls-8" points="273.9 66.5 273.9 66.5 271.2 67.37 272.08 70.15 274.85 69.2 273.9 66.5"/>
      <polygon class="cls-8" points="228.59 59.27 228.59 59.27 226.93 61.65 229.23 63.32 230.97 61.02 228.59 59.27"/>
      <polygon class="cls-8" points="287.15 65.23 287.15 65.23 282.62 67.53 284.93 72.14 289.46 69.76 287.15 65.23"/>
      <polygon class="cls-8" points="228.2 84.37 228.2 84.37 229 89.45 234.07 88.65 233.28 83.57 228.2 84.37"/>
      <polygon class="cls-8" points="270.17 26.64 270.17 26.64 270.97 31.72 275.96 30.92 275.17 25.84 270.17 26.64"/>
      <polygon class="cls-8" points="220.98 59.59 220.98 59.59 218.51 63 221.93 65.47 224.39 62.05 220.98 59.59"/>
      <polygon class="cls-8" points="246.13 31.24 246.13 31.24 243.03 29.65 241.45 32.75 244.54 34.34 246.13 31.24"/>
      <polygon class="cls-8" points="227.25 46.96 227.25 46.96 224.08 48.55 225.66 51.65 228.84 50.06 227.25 46.96"/>
      <polygon class="cls-8" points="249.62 84.6 249.62 84.6 252.09 87.15 254.54 84.6 252.09 82.14 249.62 84.6"/>
      <polygon class="cls-8" points="272.08 45.14 272.08 45.14 271.2 47.92 273.9 48.79 274.85 46.09 272.08 45.14"/>
      <polygon class="cls-8" points="234.07 75.71 234.07 75.71 236.93 75.71 236.93 72.77 234.07 72.77 234.07 75.71"/>
      <polygon class="cls-8" points="219.31 43.15 219.31 43.15 214.71 45.54 217.09 50.06 221.61 47.76 219.31 43.15"/>
      <polygon class="cls-8" points="217.09 65.23 217.09 65.23 214.71 69.76 219.31 72.14 221.61 67.53 217.09 65.23"/>
      <polygon class="cls-8" points="240.65 28.62 240.65 28.62 236.69 27.35 235.34 31.32 239.38 32.67 240.65 28.62"/>
      <polygon class="cls-8" points="268.82 83.97 268.82 83.97 264.85 82.62 263.51 86.67 267.55 87.94 268.82 83.97"/>
      <polygon class="cls-8" points="281.12 69.04 281.12 69.04 277.07 70.39 278.34 74.44 282.39 73.09 281.12 69.04"/>
      <polygon class="cls-8" points="283.19 59.59 283.19 59.59 279.77 62.05 282.23 65.47 285.65 63 283.19 59.59"/>
      <polygon class="cls-8" points="278.34 40.93 278.34 40.93 277.07 44.9 281.12 46.25 282.39 42.2 278.34 40.93"/>
      <polygon class="cls-8" points="271.92 37.83 271.92 37.83 276.12 37.83 276.12 33.62 271.92 33.62 271.92 37.83"/>
      <polygon class="cls-8" points="235.34 83.97 235.34 83.97 236.69 87.94 240.65 86.67 239.38 82.62 235.34 83.97"/>
      <polygon class="cls-8" points="253.99 88.73 253.99 88.73 257.4 91.27 259.94 87.86 256.44 85.32 253.99 88.73"/>
      <polygon class="cls-8" points="225.66 63.64 225.66 63.64 224.08 66.74 227.25 68.33 228.84 65.23 225.66 63.64"/>
      <polygon class="cls-8" points="236.93 39.58 236.93 39.58 234.07 39.58 234.07 42.52 236.93 42.52 236.93 39.58"/>
      <polygon class="cls-8" points="229.23 51.97 229.23 51.97 226.93 53.63 228.59 56.02 230.97 54.27 229.23 51.97"/>
      <polygon class="cls-8" points="260.89 35.77 260.89 35.77 261.84 38.55 264.54 37.67 263.67 34.89 260.89 35.77"/>
      <polygon class="cls-8" points="253.75 34.18 253.75 34.18 255.42 36.48 257.8 34.81 256.05 32.43 253.75 34.18"/>
      <polygon class="cls-8" points="269.61 68.25 269.61 68.25 267.23 68.64 267.64 71.03 269.93 70.63 269.61 68.25"/>
      <polygon class="cls-8" points="272.47 55.94 272.47 55.94 270.81 57.69 272.47 59.35 274.22 57.69 272.47 55.94"/>
      <polygon class="cls-8" points="284.93 43.15 284.93 43.15 282.62 47.76 287.15 50.06 289.46 45.54 284.93 43.15"/>
      <polygon class="cls-8" points="276.12 77.46 276.12 77.46 271.92 77.46 271.92 81.75 276.12 81.75 276.12 77.46"/>
      <polygon class="cls-8" points="225.82 40.93 225.82 40.93 221.77 42.2 223.13 46.25 227.09 44.9 225.82 40.93"/>
      <polygon class="cls-8" points="263.51 28.62 263.51 28.62 264.85 32.67 268.82 31.32 267.55 27.35 263.51 28.62"/>
      <polygon class="cls-8" points="244.3 27.43 244.3 27.43 247.72 29.97 250.17 26.56 246.77 24.01 244.3 27.43"/>
      <polygon class="cls-8" points="278.5 63.64 278.5 63.64 275.41 65.23 277 68.33 280.09 66.74 278.5 63.64"/>
      <polygon class="cls-8" points="225.1 55.14 225.1 55.14 222.65 57.61 225.1 60.15 227.57 57.61 225.1 55.14"/>
      <polygon class="cls-8" points="275.57 59.27 275.57 59.27 273.26 61.02 274.93 63.32 277.31 61.65 275.57 59.27"/>
      <polygon class="cls-8" points="239.63 77.62 239.63 77.62 240.49 80.4 243.28 79.52 242.4 76.74 239.63 77.62"/>
      <polygon class="cls-8" points="253.83 78.09 253.83 78.09 252.09 76.35 250.42 78.09 252.09 79.76 253.83 78.09"/>
      <polygon class="cls-8" points="241.45 40.14 241.45 40.14 239.15 39.74 238.75 42.12 241.13 42.52 241.45 40.14"/>
      <polygon class="cls-8" points="232.17 62.37 232.17 62.37 231.06 64.51 233.2 65.55 234.31 63.4 232.17 62.37"/>
      <polygon class="cls-8" points="232.24 33.62 232.24 33.62 228.04 33.62 228.04 37.83 232.24 37.83 232.24 33.62"/>
      <polygon class="cls-8" points="253.99 26.56 253.99 26.56 256.44 29.97 259.94 27.43 257.4 24.01 253.99 26.56"/>
      <polygon class="cls-8" points="262.79 82.54 262.79 82.54 259.7 80.95 258.12 84.05 261.2 85.64 262.79 82.54"/>
      <polygon class="cls-8" points="228.84 71.5 228.84 71.5 228.28 75 231.77 75.55 232.24 72.06 228.84 71.5"/>
      <polygon class="cls-8" points="272.47 39.82 272.47 39.82 271.92 43.23 275.41 43.79 275.89 40.29 272.47 39.82"/>
      <polygon class="cls-8" points="270.09 72.77 270.09 72.77 267.23 72.77 267.23 75.71 270.09 75.71 270.09 72.77"/>
      <polygon class="cls-8" points="274.93 51.97 274.93 51.97 273.26 54.27 275.57 56.02 277.31 53.63 274.93 51.97"/>
      <polygon class="cls-8" points="246.36 80.48 246.36 80.48 248.11 82.86 250.42 81.19 248.74 78.81 246.36 80.48"/>
      <polygon class="cls-8" points="247.4 37.67 247.4 37.67 245.25 36.64 244.14 38.79 246.29 39.82 247.4 37.67"/>
      <polygon class="cls-8" points="260.02 76.5 260.02 76.5 257.87 75.47 256.76 77.62 258.91 78.65 260.02 76.5"/>
      <polygon class="cls-8" points="265.49 73.17 265.49 73.17 263.11 72.77 262.72 75.15 265.1 75.55 265.49 73.17"/>
      <polygon class="cls-8" points="233.2 49.74 233.2 49.74 231.06 50.86 232.17 52.92 234.31 51.89 233.2 49.74"/>
      <polygon class="cls-8" points="271.99 62.37 271.99 62.37 269.86 63.4 270.97 65.55 273.1 64.51 271.99 62.37"/>
      <polygon class="cls-8" points="234.62 68.25 234.62 68.25 234.23 70.63 236.61 71.03 237 68.64 234.62 68.25"/>
      <polygon class="cls-8" points="262.72 40.14 262.72 40.14 263.11 42.52 265.49 42.12 265.1 39.74 262.72 40.14"/>
      <polygon class="cls-8" points="244.14 76.5 244.14 76.5 245.25 78.65 247.4 77.62 246.29 75.47 244.14 76.5"/>
      <polygon class="cls-8" points="234.07 26.64 234.07 26.64 229 25.84 228.2 30.92 233.28 31.72 234.07 26.64"/>
      <polygon class="cls-8" points="275.96 84.37 275.96 84.37 270.97 83.57 270.17 88.65 275.17 89.45 275.96 84.37"/>
      <polygon class="cls-8" points="248.51 21.95 248.51 21.95 252.09 25.52 255.74 21.95 252.09 18.38 248.51 21.95"/>
      <polygon class="cls-8" points="221.93 49.82 221.93 49.82 218.51 52.28 220.98 55.78 224.39 53.24 221.93 49.82"/>
      <polygon class="cls-8" points="282.23 49.82 282.23 49.82 279.77 53.24 283.19 55.78 285.65 52.28 282.23 49.82"/>
      <polygon class="cls-8" points="228.04 81.75 228.04 81.75 232.24 81.75 232.24 77.46 228.04 77.46 228.04 81.75"/>
      <polygon class="cls-8" points="244.3 87.86 244.3 87.86 246.77 91.27 250.17 88.73 247.72 85.32 244.3 87.86"/>
      <polygon class="cls-8" points="269.93 78.01 269.93 78.01 266.53 77.46 265.96 80.95 269.38 81.51 269.93 78.01"/>
      <polygon class="cls-8" points="231.77 39.82 231.77 39.82 228.28 40.29 228.84 43.79 232.24 43.23 231.77 39.82"/>
      <polygon class="cls-8" points="275.41 71.5 275.41 71.5 271.92 72.06 272.47 75.55 275.89 75 275.41 71.5"/>
      <polygon class="cls-8" points="258.12 31.24 258.12 31.24 259.7 34.34 262.79 32.75 261.2 29.65 258.12 31.24"/>
      <polygon class="cls-8" points="243.28 35.77 243.28 35.77 240.49 34.89 239.63 37.67 242.4 38.55 243.28 35.77"/>
      <polygon class="cls-8" points="264.54 77.62 264.54 77.62 261.84 76.74 260.89 79.52 263.67 80.4 264.54 77.62"/>
      <polygon class="cls-8" points="230.27 66.5 230.27 66.5 229.39 69.2 232.17 70.15 233.04 67.37 230.27 66.5"/>
      <polygon class="cls-8" points="267.23 42.52 267.23 42.52 270.09 42.52 270.09 39.58 267.23 39.58 267.23 42.52"/>
      <polygon class="cls-8" points="253.83 37.28 253.83 37.28 252.09 35.53 250.42 37.28 252.09 38.94 253.83 37.28"/>
      <polygon class="cls-8" points="236.61 44.26 236.61 44.26 234.23 44.66 234.62 47.04 237 46.65 236.61 44.26"/>
      <polygon class="cls-8" points="231.69 55.94 231.69 55.94 230.02 57.69 231.69 59.35 233.44 57.69 231.69 55.94"/>
      <polygon class="cls-8" points="270.97 49.74 270.97 49.74 269.86 51.89 271.99 52.92 273.1 50.86 270.97 49.74"/>
      <polygon class="cls-8" points="267.64 44.26 267.64 44.26 267.23 46.65 269.61 47.04 269.93 44.66 267.64 44.26"/>
      <polygon class="cls-8" points="238.75 73.17 238.75 73.17 239.15 75.55 241.45 75.15 241.13 72.77 238.75 73.17"/>
      <polygon class="cls-8" points="256.76 37.67 256.76 37.67 257.87 39.82 260.02 38.79 258.91 36.64 256.76 37.67"/>
      <path class="cls-4" d="M98.94,52.84h0c0-2.86-.63-5.16-1.98-6.83-1.27-1.51-3.25-2.62-5.87-3.33l-.79,2.62c3.57.87,5.47,3.1,5.63,6.59h-7.06v2.46h10.08v-1.51Z"/>
      <path class="cls-4" d="M80.93,54.35h5.24v-5.95c0-3.65-1.83-5.48-5.4-5.48-1.98,0-3.49.63-4.6,1.83-1.03,1.03-1.59,2.46-1.59,4.13,0,3.65,2.14,5.48,6.35,5.48ZM78.47,46.33h0c.56-.63,1.19-.95,2.06-.95,1.75,0,2.54,1.11,2.54,3.41v3.1h-1.75c-2.38,0-3.57-1.11-3.57-3.26,0-.95.24-1.75.71-2.3Z"/>
      <path class="cls-4" d="M82.52,41.49h0c.48,0,.87-.16,1.11-.48.32-.32.48-.72.48-1.19,0-.4-.16-.79-.48-1.11-.24-.32-.63-.48-1.11-.48-.4,0-.79.16-1.11.48-.24.32-.4.72-.4,1.11,0,.48.16.87.4,1.19.32.32.71.48,1.11.48Z"/>
      <path class="cls-4" d="M118.46,56.73h0c-.32.4-.48.72-.48,1.19s.16.87.48,1.19c.32.32.72.48,1.11.48.48,0,.88-.16,1.2-.48.32-.32.48-.72.48-1.19s-.16-.87-.48-1.19c-.32-.24-.72-.4-1.2-.4-.39,0-.79.16-1.11.4Z"/>
      <path class="cls-4" d="M107.12,54.35h1.9v.4c0,2.06-1.35,3.1-4.13,3.1-1.19,0-2.46-.08-3.65-.4l-.24,2.62c1.19.16,2.46.24,3.65.24,2.46,0,4.37-.56,5.64-1.67,1.18-1.03,1.75-2.46,1.75-4.21v-.08h13.96c.24-1.59.4-3.02.4-4.37,0-2.3-.65-4.05-1.76-5.16-1.18-1.11-3.09-1.75-5.71-1.75-.87,0-1.9.08-3.01.24v2.46c.95-.16,1.83-.24,2.7-.24,1.67,0,2.86.4,3.65,1.19.63.72,1.04,1.83,1.04,3.42,0,.56-.08,1.11-.16,1.75h-11.11v-8.1c-1.43-.56-3.1-.87-4.92-.87-2.07,0-3.65.63-4.84,1.83-.95,1.11-1.51,2.46-1.51,4.13,0,3.65,2.14,5.48,6.35,5.48ZM104.66,46.33h0c.56-.63,1.19-.95,2.06-.95.95,0,1.67.16,2.31.48v6.04h-1.51c-2.38,0-3.57-1.11-3.57-3.26,0-.95.24-1.75.72-2.3Z"/>
      <path class="cls-4" d="M78.63,41.49h0c.4,0,.79-.16,1.11-.48.32-.32.48-.72.48-1.19,0-.4-.16-.79-.48-1.11-.32-.32-.71-.48-1.11-.48-.48,0-.79.16-1.11.48-.32.32-.48.72-.48,1.11,0,.48.16.87.48,1.19.32.32.63.48,1.11.48Z"/>
      <path class="cls-4" d="M193.53,42.84h-3.17v8.89h-4.45v-8.89h-3.17v11.67c0,2.62-1.03,3.41-2.61,3.41-.79,0-1.43-.16-1.99-.32l-.23,2.54c.55.16,1.27.24,1.98.24,5,0,6.03-2.94,6.03-6.04v-.08h7.63v-11.43Z"/>
      <path class="cls-4" d="M175.91,41.33h0c.88,0,1.67-.79,1.67-1.67,0-.95-.79-1.67-1.67-1.67-.95,0-1.75.71-1.75,1.67,0,.87.79,1.67,1.75,1.67Z"/>
      <path class="cls-4" d="M193.44,57.53h0c0-.95-.71-1.67-1.66-1.67s-1.67.72-1.67,1.67.72,1.67,1.67,1.67,1.66-.72,1.66-1.67Z"/>
      <polygon class="cls-4" points="171.78 54.27 171.78 54.27 177.49 54.27 177.49 42.84 174.25 42.84 174.25 51.73 171.78 51.73 171.39 51.73 169.24 51.73 169.24 37.12 166.07 37.12 166.07 54.27 171.39 54.27 171.78 54.27"/>
      <path class="cls-4" d="M142.66,57.53h0c0,.95.72,1.67,1.67,1.67s1.66-.72,1.66-1.67-.71-1.67-1.66-1.67-1.67.72-1.67,1.67Z"/>
      <path class="cls-4" d="M141.95,62.05h0l.23-2.54c-2.77,0-4.04-1.27-4.04-2.62,0-1.43,1.03-2.62,4.6-2.62h19.83v-6.19c0-3.41-1.75-5.56-5.48-5.56-4.2,0-6.35,2.78-6.35,5.88,0,1.75.48,2.86,1.35,3.49,0,0-.48-.16-1.35-.16h-3.01c.08-.72.08-1.43.08-1.99,0-4.69-2.15-7.07-7.62-7.07-1.04,0-2.15.08-3.1.24v2.46c.88-.08,1.75-.16,2.78-.16,3.49,0,4.76,1.59,4.76,4.61,0,.64-.08,1.27-.16,1.91h-1.67c-5.55,0-7.85,2.3-7.85,5.4,0,2.78,2.22,4.92,6.98,4.92ZM156.87,44.98h0c1.59,0,2.54,1.03,2.54,3.49v3.26h-1.82c-2.55,0-3.66-1.11-3.66-3.42,0-1.91,1.11-3.33,2.94-3.33Z"/>
      <path class="cls-4" d="M35.71,55.7h0c-.87,0-1.59.64-1.59,1.51s.72,1.59,1.59,1.59,1.59-.71,1.59-1.59-.71-1.51-1.59-1.51Z"/>
      <path class="cls-4" d="M39.59,55.7h0c-.87,0-1.59.64-1.59,1.51s.71,1.59,1.59,1.59,1.59-.71,1.59-1.59-.72-1.51-1.59-1.51Z"/>
      <path class="cls-4" d="M57.13,51.33h-4.05c.08-.71.16-1.35.16-1.98,0-4.61-2.22-7.07-7.7-7.07-1.03,0-2.06.16-3.01.32v2.46c.87-.16,1.82-.24,2.78-.24,3.49,0,4.68,1.59,4.68,4.69,0,.64,0,1.27-.08,1.83h-10.63v-8.89h-3.17v8.89h-5.08,1.11-3.65,3.73-.32.24-4.29.4-9.84v-14.61h-3.25v17.15h13.09-.4,4.29-1.11,1.19-3.33,3.25-1.11,29.36v-17.15h-3.25v14.61Z"/>
      <polygon class="cls-4" points="64.27 53.87 64.27 53.87 67.44 53.87 67.44 36.72 64.27 36.72 64.27 53.87"/>
      <path class="cls-4" d="M6.74,38.23h0c-.24.32-.4.63-.4,1.11s.16.79.4,1.11c.32.32.71.48,1.11.48.48,0,.87-.16,1.11-.48.32-.32.48-.63.48-1.11s-.16-.79-.48-1.11c-.24-.32-.63-.48-1.11-.48-.4,0-.79.16-1.11.48Z"/>
      <path class="cls-4" d="M2.86,38.23h0c-.32.32-.48.63-.48,1.11s.16.79.48,1.11.63.48,1.11.48.79-.16,1.11-.48.48-.63.48-1.11-.16-.79-.48-1.11-.63-.48-1.11-.48-.79.16-1.11.48Z"/>
      <path class="cls-4" d="M6.11,42.44h0c-1.9,0-3.49.63-4.6,1.75-1.03,1.11-1.51,2.54-1.51,4.21,0,3.65,2.06,5.48,6.27,5.48h5.24v-5.96c0-3.65-1.83-5.48-5.4-5.48ZM8.41,51.41h-1.75c-2.38,0-3.57-1.11-3.57-3.34,0-.95.24-1.67.71-2.22.56-.64,1.19-.95,2.06-.95,1.75,0,2.54,1.11,2.54,3.41v3.1Z"/>
      <path class="cls-4" d="M9.92,74.76h0c-.16.56-.4,1.03-.79,1.43l1.19,1.03-1.11,1.11-1.19-1.11c-.32.24-.63.4-.95.48-.4.16-.95.24-1.51.24-1.35,0-2.38-.4-3.25-1.19-.95-.87-1.51-2.22-1.51-4.05s.56-3.18,1.59-4.05c.87-.79,1.9-1.11,3.17-1.11s2.3.4,3.17,1.19c1.03.87,1.51,2.14,1.51,3.81,0,.87-.08,1.67-.32,2.22ZM6.19,76.11h0c.16-.08.32-.08.48-.16l-1.03-.95,1.11-1.11.95.95c.16-.32.32-.63.32-.87.16-.4.16-.79.16-1.27,0-1.11-.24-1.99-.63-2.54-.48-.63-1.11-.95-1.98-.95s-1.51.32-1.98.87c-.48.63-.71,1.51-.71,2.62,0,1.35.32,2.3,1.03,2.94.48.32,1.03.56,1.59.56.24,0,.48-.08.71-.08Z"/>
      <path class="cls-4" d="M11.98,68.25h2.06v6.04c0,.71.08,1.19.24,1.51.24.56.79.79,1.59.79.87,0,1.43-.24,1.67-.79.16-.32.24-.79.24-1.51v-6.04h2.06v6.04c0,1.03-.16,1.91-.48,2.46-.63,1.11-1.75,1.59-3.49,1.59s-2.86-.48-3.41-1.59c-.32-.56-.48-1.43-.48-2.46v-6.04Z"/>
      <path class="cls-4" d="M24.76,68.48h2.38l3.41,9.85h-2.22l-.63-1.98h-3.65l-.63,1.98h-2.14l3.49-9.85ZM24.68,74.6h2.46l-1.19-3.81-1.27,3.81Z"/>
      <polygon class="cls-4" points="31.98 68.48 31.98 68.48 34.04 68.48 34.04 76.58 38.96 76.58 38.96 78.33 31.98 78.33 31.98 68.48"/>
      <polygon class="cls-4" points="42.37 78.33 42.37 78.33 40.31 78.33 40.31 68.48 42.37 68.48 42.37 78.33"/>
      <polygon class="cls-4" points="51.57 68.48 51.57 68.48 51.57 70.23 48.56 70.23 48.56 78.33 46.5 78.33 46.5 70.23 43.56 70.23 43.56 68.48 51.57 68.48"/>
      <polygon class="cls-4" points="58.48 68.48 58.48 68.48 60.86 68.48 57.53 74.68 57.53 78.33 55.46 78.33 55.46 74.68 52.05 68.48 54.51 68.48 56.57 72.77 58.48 68.48"/>
      <path class="cls-4" d="M73.4,77.22h0c-.71.71-1.83,1.11-3.17,1.11-1.43,0-2.54-.4-3.25-1.11-1.03-.95-1.51-2.3-1.51-4.05s.48-3.18,1.51-4.05c.71-.79,1.82-1.19,3.25-1.19,1.35,0,2.46.4,3.17,1.19,1.03.87,1.51,2.22,1.51,4.05s-.48,3.1-1.51,4.05ZM72.12,75.71h0c.48-.64.72-1.43.72-2.54s-.24-1.98-.72-2.62c-.48-.56-1.11-.87-1.9-.87-.87,0-1.51.32-1.98.87-.48.64-.71,1.51-.71,2.62s.24,1.91.71,2.54c.48.63,1.11.87,1.98.87.79,0,1.43-.24,1.9-.87Z"/>
      <polygon class="cls-4" points="76.57 68.48 76.57 68.48 83.63 68.48 83.63 70.23 78.63 70.23 78.63 72.53 83 72.53 83 74.2 78.63 74.2 78.63 78.33 76.57 78.33 76.57 68.48"/>
      <polygon class="cls-4" points="89.03 68.48 89.03 68.48 91.09 68.48 91.09 76.58 96.01 76.58 96.01 78.33 89.03 78.33 89.03 68.48"/>
      <polygon class="cls-4" points="99.34 78.33 99.34 78.33 97.36 78.33 97.36 68.48 99.34 68.48 99.34 78.33"/>
      <polygon class="cls-4" points="101.4 68.48 101.4 68.48 108.46 68.48 108.46 70.23 103.47 70.23 103.47 72.53 107.83 72.53 107.83 74.2 103.47 74.2 103.47 78.33 101.4 78.33 101.4 68.48"/>
      <polygon class="cls-4" points="117.19 70.23 117.19 70.23 111.95 70.23 111.95 72.38 116.8 72.38 116.8 74.04 111.95 74.04 111.95 76.58 117.43 76.58 117.43 78.33 109.98 78.33 109.98 68.48 117.19 68.48 117.19 70.23"/>
      <path class="cls-4" d="M129.73,74.12h0c-.56.48-1.43.71-2.46.71h-2.06v3.49h-2.06v-9.85h4.21c1.03,0,1.82.24,2.38.79.55.48.87,1.27.87,2.38s-.32,1.98-.87,2.46ZM128.15,70.55h0c-.24-.24-.63-.32-1.11-.32h-1.83v2.86h1.83c.48,0,.87-.08,1.11-.32.23-.24.39-.64.39-1.11,0-.56-.16-.87-.39-1.11Z"/>
      <path class="cls-4" d="M138.69,68.72h0c.32.16.63.4.88.72.23.24.39.56.55.87.08.24.16.64.16,1.03s-.16.87-.39,1.35c-.24.48-.56.79-1.11.95.39.16.71.48.95.79.16.32.23.87.23,1.51v.71c0,.4.08.72.08.87.07.24.16.48.39.56v.24h-2.3c-.08-.16-.08-.4-.08-.48-.07-.32-.07-.56-.16-.87v-.95c0-.56-.07-1.03-.32-1.19-.16-.24-.55-.32-1.18-.32h-1.99v3.81h-1.98v-9.85h4.68c.72,0,1.2.16,1.59.24ZM134.41,70.23h0v2.62h2.22c.48,0,.79-.08.95-.16.4-.16.63-.56.63-1.11s-.23-.95-.55-1.19c-.24-.08-.56-.16-.95-.16h-2.31Z"/>
      <path class="cls-4" d="M149.96,77.22h0c-.71.71-1.82,1.11-3.25,1.11-1.35,0-2.46-.4-3.17-1.11-1.04-.95-1.51-2.3-1.51-4.05s.48-3.18,1.51-4.05c.71-.79,1.82-1.19,3.17-1.19,1.43,0,2.54.4,3.25,1.19.95.87,1.51,2.22,1.51,4.05s-.56,3.1-1.51,4.05ZM148.69,75.71h0c.48-.64.72-1.43.72-2.54s-.24-1.98-.72-2.62c-.48-.56-1.11-.87-1.98-.87-.79,0-1.43.32-1.9.87-.48.64-.72,1.51-.72,2.62s.24,1.91.72,2.54c.48.63,1.11.87,1.9.87.87,0,1.5-.24,1.98-.87Z"/>
      <path class="cls-4" d="M159.81,71.34h0c-.16-.72-.56-1.19-1.2-1.43-.32-.16-.71-.24-1.11-.24-.79,0-1.43.32-1.99.95-.48.56-.71,1.43-.71,2.62,0,1.27.23,2.14.79,2.62.55.48,1.18.71,1.9.71s1.27-.16,1.67-.56c.48-.4.71-.95.79-1.59h-2.22v-1.59h4.04v5.24h-1.34l-.16-1.19c-.4.4-.79.79-1.11.95-.56.32-1.2.48-1.99.48-1.27,0-2.38-.4-3.17-1.35-.88-.87-1.35-2.14-1.35-3.73s.48-2.86,1.35-3.81c.87-.95,1.98-1.43,3.49-1.43,1.2,0,2.22.32,3.01.95.72.64,1.2,1.43,1.27,2.38h-1.98Z"/>
      <path class="cls-4" d="M170.19,68.72h0c.4.16.72.4.95.72.24.24.4.56.48.87.16.24.16.64.16,1.03s-.07.87-.32,1.35c-.23.48-.63.79-1.18.95.48.16.79.48.95.79.23.32.32.87.32,1.51v.71c0,.4,0,.72.07.87,0,.24.16.48.32.56v.24h-2.22c-.07-.16-.07-.4-.16-.48,0-.32-.07-.56-.07-.87v-.95c0-.56-.16-1.03-.32-1.19-.24-.24-.63-.32-1.2-.32h-1.98v3.81h-2.06v-9.85h4.76c.63,0,1.18.16,1.5.24ZM166,70.23h0v2.62h2.22c.39,0,.71-.08.95-.16.39-.16.55-.56.55-1.11s-.16-.95-.55-1.19c-.16-.08-.48-.16-.95-.16h-2.22Z"/>
      <path class="cls-4" d="M176.7,68.48h2.38l3.49,9.85h-2.22l-.71-1.98h-3.58l-.71,1.98h-2.15l3.49-9.85ZM176.63,74.6h2.54l-1.27-3.81-1.27,3.81Z"/>
      <path class="cls-4" d="M190.43,68.48h3.01v9.85h-1.9v-8.26l-1.9,8.26h-1.99l-1.82-8.26v8.26h-1.9v-9.85h2.93l1.83,7.78,1.75-7.78Z"/>
    </g>
    <g>
      <g>
        <path class="cls-9" d="M356.85,25.14h-1.99V7.5h1.99v17.64ZM373.14,20.35v.05c0,3.02-2.52,4.99-6.02,4.99-2.8,0-5.09-.93-7.21-2.82l1.23-1.46c1.84,1.66,3.6,2.49,6.05,2.49s3.93-1.26,3.93-3v-.05c0-1.64-.88-2.57-4.59-3.35-4.06-.88-5.92-2.19-5.92-5.09v-.05c0-2.77,2.44-4.81,5.8-4.81,2.57,0,4.41.73,6.2,2.17l-1.16,1.54c-1.64-1.34-3.28-1.91-5.09-1.91-2.29,0-3.75,1.26-3.75,2.85v.05c0,1.66.91,2.6,4.79,3.43,3.93.86,5.75,2.29,5.75,4.99ZM390.87,7.2c-5.37,0-9.02,4.26-9.02,9.12v.05c0,4.86,3.6,9.07,8.97,9.07s9.02-4.26,9.02-9.12v-.05c0-4.86-3.6-9.07-8.97-9.07ZM397.77,16.37c0,4.01-2.87,7.23-6.9,7.23s-6.95-3.28-6.95-7.28v-.05c0-4.01,2.87-7.23,6.9-7.23s6.95,3.28,6.95,7.28v.05ZM376.42,7.5h1.99v17.64h-1.99V7.5ZM342.81,25.26l-7.58-17.76h2.22l1.08,2.63,5.19,12.57.5,1.2-.19-1.94,5.99-14.46h2.14l-7.58,17.76h-1.76ZM416.07,7.5h1.94v17.64h-1.59l-12.49-15.87,1.1,2.57v13.29h-1.94V7.5h1.86l11.93,15.18-.82-2.17V7.5Z"/>
        <path class="cls-9" d="M471.84,28.87v-1.87h1.87v1.87h-1.87ZM475.58,28.87v-1.87h1.87v1.87h-1.87ZM437.12,5.65h-1.87v-1.87h1.87v1.87ZM482.79,18.71c.71.51,1.53.88,2.46,1.12.93.24,1.92.36,2.96.36h.49l.63-1.32v1.85c0,.98-.28,1.68-.84,2.1s-1.35.63-2.36.63c-.58,0-1.09-.05-1.55-.16-.46-.11-.98-.3-1.58-.56l-.58,1.8c.72.26,1.35.46,1.9.6.55.13,1.11.2,1.67.2,1.82,0,3.14-.43,3.97-1.29.82-.86,1.24-2.03,1.24-3.49V7.52h-2.99c-1.15,0-2.2.16-3.15.49-.95.33-1.76.77-2.44,1.34s-1.2,1.25-1.58,2.03c-.37.79-.56,1.64-.56,2.56,0,1.1.21,2.05.62,2.84.41.79.97,1.43,1.68,1.94ZM482.79,12.09c.29-.56.67-1.04,1.14-1.44.47-.4,1.02-.7,1.62-.92.59-.21,1.2-.32,1.83-.32h0s3.02,0,3.02,0l-1.07.53v8.39h-1.89c-.7,0-1.36-.1-1.97-.29-.61-.19-1.16-.48-1.62-.85-.47-.37-.83-.83-1.1-1.38-.26-.54-.4-1.17-.4-1.87s.14-1.28.43-1.84ZM440.86,5.65h-1.87v-1.87h1.87v1.87ZM495.93,25.33c-.5,0-1-.07-1.52-.21l.49-1.8c.22.06.39.1.51.12.12.02.27.02.44.02.36,0,.65-.05.88-.15.23-.1.4-.27.54-.49.13-.23.23-.52.28-.89.05-.37.08-.81.08-1.34V7.52h1.87v13.07c0,.73-.06,1.39-.18,1.97-.12.58-.31,1.08-.6,1.49-.28.41-.65.73-1.11.95s-1.02.33-1.69.33ZM491.2,5.65h-4.09v-1.53c0-.82.19-1.42.57-1.8.38-.37.93-.56,1.65-.56h1.32v1.3h-1.28c-.29,0-.49.06-.58.16-.1.12-.15.31-.15.55v.43h2.56v1.44ZM435.76,25.07h3.88v-1.4c.04.07.07.13.12.19.28.41.65.73,1.11.95.46.22,1.02.33,1.69.33h34.88V7.52h-1.87v15.75h-32.95c-.36,0-.65-.05-.88-.15-.23-.1-.4-.27-.54-.49-.13-.23-.23-.52-.28-.89-.05-.37-.08-.81-.08-1.34V7.52h-5.05c-5.16,0-8.68,4.1-8.68,8.78v.05c0,4.68,3.47,8.73,8.63,8.73ZM429.12,16.24c0-3.85,2.76-6.96,6.64-6.96h4.37l-1.14.57v10.54c0,.73.06,1.39.18,1.97.07.34.17.65.29.93h-3.64c-3.88,0-6.69-3.15-6.69-7.01v-.05Z"/>
        <g>
          <polygon class="cls-9" points="342.14 113.47 340.76 113.47 338.1 109.96 336.79 111.31 336.79 113.47 335.64 113.47 335.64 106 336.79 106 336.79 110.02 340.59 106 341.96 106 338.87 109.19 342.14 113.47"/>
          <rect class="cls-9" x="343.68" y="106" width="1.15" height="7.48"/>
          <polygon class="cls-9" points="353.59 106 353.59 113.47 352.61 113.47 348.23 107.81 348.23 113.47 347.1 113.47 347.1 106 348.2 106 352.47 111.5 352.47 106 353.59 106"/>
          <path class="cls-9" d="M362.45,109.39v3.07c-.63.53-1.67,1.14-3.1,1.14-2.28,0-3.88-1.58-3.88-3.85v-.02c0-2.17,1.7-3.87,3.86-3.87,1.16,0,1.98.28,2.81.95l-.72.87c-.57-.47-1.17-.78-2.14-.78-1.43,0-2.59,1.26-2.59,2.83,0,1.68,1.11,2.85,2.71,2.85.71,0,1.4-.22,1.92-.6l.04-.03v-1.59h-1.96v-.97h3.07Z"/>
          <path class="cls-9" d="M367.28,106h-2.76v7.47h2.76c2.31,0,3.98-1.57,3.98-3.74s-1.67-3.73-3.98-3.73ZM367.28,112.45h-1.62v-5.43h1.62c1.63,0,2.77,1.11,2.77,2.71s-1.14,2.71-2.77,2.71Z"/>
          <path class="cls-9" d="M376.65,105.86c-2.24,0-3.92,1.66-3.92,3.87v.02c0,2.19,1.68,3.85,3.9,3.85s3.93-1.66,3.93-3.87-1.68-3.87-3.9-3.87ZM379.34,109.76c0,1.6-1.16,2.81-2.69,2.81s-2.71-1.24-2.71-2.84,1.16-2.83,2.69-2.83,2.71,1.25,2.71,2.83v.02Z"/>
          <polygon class="cls-9" points="389.78 106 389.78 113.47 388.63 113.47 388.63 107.73 386.08 111.54 383.56 107.75 383.56 113.47 382.43 113.47 382.43 106 383.71 106 386.1 109.71 388.5 106 389.78 106"/>
          <path class="cls-9" d="M399.36,105.86c-2.24,0-3.93,1.66-3.93,3.87v.02c0,2.19,1.68,3.85,3.9,3.85s3.93-1.66,3.93-3.87-1.68-3.87-3.9-3.87ZM402.05,109.76c0,1.6-1.16,2.81-2.69,2.81s-2.71-1.24-2.71-2.84,1.15-2.83,2.69-2.83,2.71,1.25,2.71,2.83v.02Z"/>
          <polygon class="cls-9" points="406.29 107.02 406.29 109.32 410.16 109.32 410.16 110.35 406.29 110.35 406.29 113.47 405.14 113.47 405.14 106 410.66 106 410.66 107.02 406.29 107.02"/>
          <path class="cls-9" d="M421.59,111.39c0,1.33-1.04,2.19-2.64,2.19-1.14,0-2.19-.39-3.06-1.14l.68-.81c.79.66,1.54.96,2.41.96s1.46-.42,1.46-1.09-.42-.95-1.81-1.27c-1.61-.39-2.48-.85-2.48-2.21,0-1.25,1.04-2.13,2.52-2.13,1.02,0,1.87.28,2.65.88l-.61.86c-.7-.51-1.37-.75-2.06-.75-.79,0-1.35.42-1.35,1.04,0,.67.41.95,1.9,1.31,1.72.42,2.39,1.02,2.39,2.17Z"/>
          <path class="cls-9" d="M427.01,105.94h-1.12l-3.29,7.53h1.16l.79-1.85h3.77l.78,1.85h1.2l-3.29-7.53ZM424.96,110.63l1.47-3.44,1.48,3.44h-2.95Z"/>
          <path class="cls-9" d="M437.72,106v4.25c0,2.13-1.17,3.35-3.2,3.35s-3.17-1.2-3.17-3.28v-4.32h1.14v4.26c0,1.46.75,2.3,2.04,2.3s2.03-.82,2.03-2.24v-4.32h1.14Z"/>
          <path class="cls-9" d="M442.67,106h-2.76v7.47h2.76c2.31,0,3.98-1.57,3.98-3.74s-1.67-3.73-3.98-3.73ZM442.67,112.45h-1.62v-5.43h1.62c1.63,0,2.77,1.11,2.77,2.71s-1.14,2.71-2.77,2.71Z"/>
          <rect class="cls-9" x="448.56" y="106" width="1.14" height="7.48"/>
          <path class="cls-9" d="M459.79,105.94h-1.12l-3.29,7.53h1.16l.79-1.85h3.77l.78,1.85h1.2l-3.29-7.53ZM457.74,110.63l1.47-3.44,1.48,3.44h-2.95Z"/>
          <path class="cls-9" d="M468.78,110.61l.14-.04c1.13-.32,1.76-1.11,1.76-2.23,0-.65-.21-1.2-.61-1.61-.49-.48-1.23-.74-2.14-.74h-3.32v7.47h1.14v-2.68h1.82l.05.05,1.86,2.63h1.34l-2.04-2.86ZM465.76,109.8v-2.78h2.07c1.08,0,1.69.5,1.69,1.37s-.66,1.41-1.68,1.41h-2.08Z"/>
          <path class="cls-9" d="M476.58,105.94h-1.12l-3.29,7.53h1.16l.79-1.85h3.77l.78,1.85h1.2l-3.29-7.53ZM474.53,110.63l1.47-3.44,1.49,3.44h-2.96Z"/>
          <path class="cls-9" d="M486.14,109.68l-.23-.08.21-.11c.7-.36,1.04-.9,1.04-1.62,0-.5-.16-.9-.49-1.22-.43-.42-1.09-.65-1.93-.65h-3.35v7.47h3.45c1.72,0,2.74-.75,2.74-2,0-.9-.45-1.44-1.46-1.79ZM482.53,106.99h2.04c.91,0,1.45.41,1.45,1.08,0,.75-.56,1.17-1.55,1.17h-1.95v-2.25ZM484.87,112.48h-2.34v-2.31h2.24c1.46,0,1.68.71,1.68,1.13,0,.76-.58,1.18-1.58,1.18Z"/>
          <rect class="cls-9" x="489.47" y="106" width="1.14" height="7.48"/>
          <path class="cls-9" d="M496.57,105.94h-1.11l-3.29,7.53h1.16l.79-1.85h3.77l.78,1.85h1.2l-3.29-7.53ZM494.52,110.63l1.47-3.44,1.49,3.44h-2.96Z"/>
          <path class="cls-9" d="M453.98,89.18h-1.1v1.1h1.1v-1.1ZM440.52,98.83h1.08v-9.65h-1.08v9.65ZM346.6,91.53h-1.08v6.22h-4.27v-6.22h-1.69c-.67,0-1.28.09-1.83.28-.55.18-1.01.44-1.4.77s-.68.71-.89,1.16c-.21.45-.32.93-.32,1.45,0,.64.12,1.18.36,1.64s.56.83.97,1.13c.4.3.87.52,1.41.66.54.14,1.1.22,1.69.22h7.04v-7.3ZM340.17,97.76h-1.06c-.4,0-.78-.06-1.14-.17-.35-.12-.66-.28-.93-.5-.26-.22-.47-.49-.63-.81-.15-.32-.23-.68-.23-1.08s.08-.74.25-1.06c.17-.32.39-.59.66-.82.27-.23.58-.4.93-.52.35-.12.71-.18,1.08-.18h1.06v5.15ZM343.61,101.21h1.1v-1.1h-1.1v1.1ZM341.24,89.18h-1.1v1.1h1.1v-1.1ZM406.91,89.18h-1.1v1.1h1.1v-1.1ZM345.49,101.21h1.1v-1.1h-1.1v1.1ZM408.79,89.18h-1.1v1.1h1.1v-1.1ZM452.1,89.18h-1.1v1.1h1.1v-1.1ZM339.36,89.18h-1.1v1.1h1.1v-1.1ZM412.37,101.21h1.1v-1.1h-1.1v1.1ZM419.28,91.53h-1.08v6.22h-4.06v-6.22h-1.08v6.22h-4.27v-6.22h-1.69c-.67,0-1.28.09-1.83.28-.55.18-1.01.44-1.4.77-.39.33-.68.71-.89,1.16-.21.45-.32.93-.32,1.45,0,.64.12,1.18.36,1.64s.56.83.97,1.13c.4.3.87.52,1.41.66.54.14,1.1.22,1.69.22h12.18v-7.3ZM407.72,97.76h-1.06c-.4,0-.78-.06-1.14-.17-.35-.12-.66-.28-.93-.5-.26-.22-.47-.49-.63-.81-.15-.32-.23-.68-.23-1.08s.08-.74.25-1.06c.17-.32.39-.59.66-.82.27-.23.58-.4.93-.52.35-.12.71-.18,1.08-.18h1.06v5.15ZM414.25,101.21h1.1v-1.1h-1.1v1.1ZM353.53,92.47c-.29-.31-.61-.55-.96-.71-.35-.16-.79-.24-1.3-.24h-.79v1.08h.94c.26,0,.51.06.74.17.23.11.43.26.58.44.15.19.26.39.32.62.06.22.09.49.09.81v3.12h-5.04v1.08h6.12v-4.23c0-.42-.06-.82-.17-1.18-.11-.37-.28-.68-.52-.94ZM436.32,97.76h-4.57l1.88-4.5c-.29-.25-.59-.49-.91-.71-.32-.22-.65-.41-.99-.58-.34-.17-.69-.3-1.03-.39s-.69-.14-1.03-.14-.7.05-1.05.14-.7.22-1.04.38c-.35.16-.68.35-.99.58-.32.22-.62.46-.89.71l1.9,4.5h-4v-6.22h-1.08v7.53c0,.3-.02.56-.05.77-.03.21-.09.38-.16.51-.08.13-.18.22-.31.28s-.3.09-.5.09c-.1,0-.18,0-.26-.01-.07,0-.17-.03-.3-.07l-.28,1.04c.3.08.59.12.87.12.39,0,.71-.06.97-.19.26-.13.48-.31.64-.54.16-.24.28-.52.34-.86.07-.34.1-.71.1-1.14v-.23h13.83v-9.65h-1.08v8.57ZM428.7,97.76l-1.68-4.13c.41-.35.84-.6,1.27-.77.43-.16.89-.24,1.36-.24s.96.1,1.44.29c.48.19.88.43,1.21.72l-1.68,4.13h-1.92ZM418.19,101.21h1.1v-1.1h-1.1v1.1ZM498.35,89.18v9.65h1.08v-9.65h-1.08ZM494.15,97.76h-3.7c.22-.49.34-1.02.34-1.59s-.1-1.07-.3-1.55c-.2-.48-.48-.89-.83-1.24-.35-.35-.76-.63-1.24-.83s-1-.3-1.55-.3-1.04.1-1.51.31c-.47.21-.87.49-1.22.84-.34.35-.62.77-.81,1.24-.2.48-.3.99-.3,1.53,0,.29.03.56.09.83.06.26.14.52.24.76h-3.33c.22-.49.34-1.02.34-1.59s-.1-1.07-.3-1.55c-.2-.48-.48-.89-.83-1.24s-.76-.63-1.24-.83-1-.3-1.55-.3-1.04.1-1.51.31c-.47.21-.87.49-1.22.84-.34.35-.62.77-.81,1.24-.2.48-.3.99-.3,1.53,0,.29.03.56.09.83.06.26.14.52.24.76h-3.41v-8.57h-1.08v8.57h-3.43v-1.65c0-.41-.05-.8-.16-1.18s-.28-.69-.51-.95c-.28-.31-.59-.55-.94-.7-.35-.15-.79-.23-1.33-.23h-4.76l2.02-3.87h-1.17l-2.06,3.86c.04.23.09.43.17.6.08.17.18.33.32.48h5.48c.34,0,.63.05.88.15s.45.24.6.42c.15.18.26.39.31.62.05.23.08.49.08.78v1.65h-9.95v-6.22h-1.69c-.67,0-1.28.09-1.83.28-.55.18-1.01.44-1.4.77-.39.33-.68.71-.89,1.16-.21.45-.32.93-.32,1.45,0,.64.12,1.18.36,1.64s.56.83.97,1.13c.4.3.87.52,1.41.66.54.14,1.1.22,1.69.22h21.33c.35.38.76.67,1.24.89.48.22,1,.33,1.57.33s1.11-.11,1.61-.32c.5-.22.92-.52,1.28-.9h4.73c.35.38.76.67,1.24.89.48.22,1,.33,1.57.33s1.11-.11,1.61-.32c.5-.22.92-.52,1.28-.9h5.47v-9.65h-1.08v8.57ZM452.91,97.76h-1.06c-.4,0-.78-.06-1.14-.17-.35-.12-.66-.28-.93-.5-.26-.22-.47-.49-.63-.81-.15-.32-.23-.68-.23-1.08s.08-.74.25-1.06c.17-.32.39-.59.66-.82.27-.23.58-.4.93-.52.35-.12.71-.18,1.08-.18h1.06v5.15ZM479.06,97.28c-.15.34-.35.64-.61.89-.26.25-.56.45-.9.58-.34.14-.72.21-1.12.21s-.76-.07-1.1-.22-.63-.35-.87-.6-.44-.55-.58-.89c-.14-.34-.21-.7-.21-1.09s.07-.75.21-1.1c.14-.34.33-.64.57-.9.24-.26.53-.46.87-.61.34-.15.71-.23,1.11-.23s.79.07,1.14.22c.35.14.65.34.9.59.26.25.45.55.6.89s.22.72.22,1.14-.07.78-.22,1.12ZM489.49,97.28c-.15.34-.35.64-.61.89-.26.25-.56.45-.9.58-.34.14-.72.21-1.12.21s-.76-.07-1.1-.22-.63-.35-.87-.6-.44-.55-.58-.89c-.14-.34-.21-.7-.21-1.09s.07-.75.21-1.1c.14-.34.33-.64.57-.9.24-.26.53-.46.87-.61s.71-.23,1.11-.23.79.07,1.14.22c.35.14.65.34.9.59.26.25.45.55.6.89.14.34.22.72.22,1.14s-.07.78-.22,1.12ZM390.91,97.76h-1.76c-.63,0-1.12-.09-1.48-.27-.36-.18-.64-.45-.85-.81.06-.28.09-.61.09-1.01v-3.47h-1.08v3.64c0,.62-.17,1.11-.5,1.49-.33.37-.83.56-1.51.56-.31,0-.6-.05-.86-.15-.26-.1-.48-.23-.67-.4-.19-.17-.34-.37-.44-.6s-.17-.47-.17-.73v-3.8h-1.08v3.72c0,.33-.05.61-.15.84-.1.23-.23.42-.4.56-.17.15-.36.26-.58.32-.21.07-.44.1-.69.1h-2.08v-5.55h-1.08v5.55h-5.64l1.88-4.5c-.29-.25-.59-.49-.91-.71-.32-.22-.65-.41-.99-.58-.34-.17-.69-.3-1.03-.39s-.69-.14-1.03-.14-.7.05-1.05.14-.7.22-1.04.38c-.35.16-.68.35-.99.58-.32.22-.62.46-.89.71l1.9,4.5h-3.72v-6.22h-1.72c-.66,0-1.27.09-1.81.28-.55.19-1.01.45-1.4.77-.39.33-.69.72-.91,1.17-.22.45-.32.94-.32,1.47,0,.64.12,1.18.36,1.63.24.45.56.82.97,1.12s.88.51,1.42.64c.54.14,1.11.21,1.71.21h.64v.31c0,.56-.16.97-.48,1.21-.32.24-.78.36-1.36.36-.33,0-.63-.03-.89-.09-.26-.06-.57-.17-.91-.32l-.34,1.03c.41.15.78.27,1.1.34.32.08.64.11.96.11,1.05,0,1.81-.25,2.28-.75.47-.5.71-1.17.71-2.01v-.2h16.71c.52,0,.98-.11,1.39-.34.41-.22.74-.52.99-.9.26.43.61.77,1.06,1.01.45.24.98.36,1.6.36s1.19-.11,1.65-.34c.45-.22.8-.57,1.04-1.03.09.15.2.3.33.45.13.15.3.28.5.4.21.12.46.21.75.28.22.05.49.08.77.09h0s3.1.01,3.1.01v-9.65h-1.08v8.57ZM361.02,97.76h-1.09c-.4,0-.78-.06-1.14-.17-.35-.11-.67-.28-.93-.49-.27-.22-.48-.48-.63-.79-.15-.31-.23-.67-.23-1.08s.08-.74.25-1.06c.17-.32.39-.6.66-.83.27-.23.58-.41.93-.53.35-.13.71-.19,1.09-.19h1.09v5.13ZM366.95,97.76l-1.68-4.13c.41-.35.84-.6,1.27-.77.43-.16.89-.24,1.36-.24s.96.1,1.44.29c.47.19.88.43,1.21.72l-1.68,4.13h-1.92ZM395.12,98.83h1.08v-9.65h-1.08v9.65Z"/>
        </g>
      </g>
      <g>
        <path class="cls-9" d="M478.66,34.63c-13.18,0-22.75,9.94-22.75,22.08v.12c0,12.14,9.46,21.96,22.63,21.96s22.75-9.94,22.75-22.08v-.12c0-12.14-9.46-21.96-22.63-21.96ZM491.47,56.84c0,7.32-5.25,13.3-12.81,13.3s-12.93-6.1-12.93-13.42v-.12c0-7.32,5.25-13.3,12.81-13.3s12.93,6.1,12.93,13.42v.12ZM350.44,69.95h16.28v8.11h-31.6v-7.44l14.21-11.65c5.31-4.39,7.38-6.71,7.38-10.25s-2.38-5.55-5.73-5.55-5.55,1.83-8.72,5.73l-6.59-5.31c4.21-5.73,8.3-8.85,15.92-8.85,8.85,0,14.7,5.19,14.7,13.18v.12c0,7.14-3.66,10.68-11.22,16.53l-9.33,7.2-1.81,1.4,6.51-3.23ZM453.48,64.71v.12c0,8.05-5.86,13.97-15.37,13.97-7.69,0-12.99-3.05-16.65-7.38l6.47-6.16c2.93,3.29,5.98,5.12,10.31,5.12,3.54,0,6.04-2.01,6.04-5.19v-.12c0-3.48-3.11-5.43-8.36-5.43h-3.9l-1.46-5.98,13.7-13.78-5.49,3.53h-14.8v-8.05s28.85,0,28.85,0v7.08l-10.8,10.31c5.8.98,11.47,4.03,11.47,11.96Z"/>
        <path class="cls-6" d="M407.71,58.7c-.28-.16-.78-.42-1.48-.64-1.01-.32-2.41-.56-4.07-.3-.56.09-1.15.24-1.76.46-.06.02-.12.04-.18.06-.31.12-.62.26-.93.42-.27.13-.53.28-.8.44-.6.36-1.2.78-1.78,1.22-.66-3.98-.34-7.68-.18-9.49,0-.01.01-.02.02,0,1.41.89,1.01,3.37.72,4.08,0,.01.02.02.03.01,1.75-2.08.9-4.37.54-4.95,0-.01.01-.03.02-.02.25.21.46.42.64.65.54.69.74,1.44.8,2.11.03.35.02.67,0,.95,0,.07-.01.14-.02.21,0,.01,0,.01.02.01,0,0,0,0,0,0,.47-.93.7-2.34,0-3.71-.19-.37-.45-.74-.8-1.09-.1-.1-.2-.2-.32-.3-.01,0,0-.03.01-.02.11.03.21.06.31.09.3.1.56.25.8.42.53.39.89.93,1.11,1.5.18.46.26.94.26,1.37,0,.02.02.02.03,0,.33-1.21.13-2.13-.28-2.8-.3-.48-.7-.83-1.11-1.07-.28-.17-.55-.28-.8-.36-.14-.04-.27-.07-.38-.08-.02,0-.01-.03,0-.03.13-.01.26-.02.38-.02.3,0,.56.02.8.07.47.09.83.25,1.11.44.45.3.67.65.75.8,0,.01.03,0,.03,0-.06-.64-.36-1.14-.77-1.5-.32-.28-.71-.47-1.11-.59-.26-.07-.53-.11-.8-.11-.36,0-.7.05-.99.18-.01,0-.02,0-.02-.02.26-.37.62-.6,1.01-.72.27-.08.54-.11.8-.09.25.01.47.07.65.15.01,0,.03-.01.02-.02-.2-.23-.43-.41-.67-.54-.25-.14-.52-.23-.8-.26-.71-.08-1.44.22-1.92.95,0,0-.02,0-.02,0-.09-.17-.18-.35-.27-.54-.19-.45-.35-.95-.43-1.45,0-.02-.02-.02-.02,0-.08.5-.24,1.01-.44,1.46-.08.19-.17.37-.26.54,0,0-.02,0-.02,0-.84-1.28-2.42-1.25-3.38-.15,0,.01,0,.03.02.02.64-.3,1.85-.21,2.46.66,0,.01,0,.03-.02.02-.94-.39-2.38-.14-3.16.78-.28.33-.47.74-.52,1.24,0,.01.02.02.03,0,.06-.11.21-.36.49-.6.45-.4,1.24-.8,2.54-.68.02,0,.02.03,0,.03-.67.08-2.04.68-2.54,2.04-.22.6-.28,1.35-.03,2.28,0,.02.03.01.03,0,0-.02,0-.04,0-.06.01-1.24.72-2.89,2.47-3.32.01,0,.02.01.01.02-1.96,1.72-1.76,3.85-1.12,5.1,0,.01.03,0,.03,0-.08-.95-.15-2.64,1.42-3.92.01,0,.03,0,.02.02-.36.58-1.22,2.87.54,4.95,0,.01.03,0,.03-.01-.29-.71-.69-3.19.72-4.08,0,0,.02,0,.02,0,.15,1.82.47,5.51-.18,9.49-1.13-.87-2.33-1.63-3.51-2.08-.15-.05-.29-.1-.43-.15-1.22-.4-2.34-.51-3.31-.47-1.57.07-2.76.54-3.42.87-.13.07-.25.13-.33.18-.04.02,0,.07.03.06.1-.03.2-.06.3-.09,1.2-.34,2.34-.43,3.42-.34,1.18.1,2.28.43,3.31.89,1.45.65,2.76,1.59,3.94,2.57-1.67,1.46-3.08,2.88-3.94,3.38-.04.02-.09.05-.13.07-.21-.28-.56-.44-.95-.36-.34.07-.61.35-.69.68-.07.3,0,.63.18.8.46.46.98.49,1.59.23,1.16-.49,2.6-2.02,4.37-3.64.15-.14.3-.27.45-.41.15.14.3.27.45.41.8.73,1.53,1.45,2.21,2.06.28.25.54.48.8.69.39.32.76.59,1.11.77.68.36,1.26.4,1.76-.04.03-.02.05-.05.08-.07.12-.12.25-.5.18-.8-.04-.17-.13-.33-.26-.45-.12-.11-.27-.2-.43-.23-.39-.09-.75.08-.95.36-.12-.06-.24-.14-.38-.23-.32-.22-.69-.53-1.11-.9-.25-.22-.52-.46-.8-.71-.55-.5-1.14-1.05-1.78-1.6.56-.47,1.16-.93,1.78-1.35.26-.18.53-.35.8-.51.36-.21.73-.41,1.11-.6.57-.27,1.15-.5,1.76-.68,1.26-.36,2.62-.49,4.07-.25.47.08.96.19,1.45.34.04.01.06-.04.03-.06Z"/>
        <rect class="cls-7" x="393.94" y="80.99" width="3.78" height="3.78" transform="translate(617.12 421.39) rotate(-135)"/>
        <rect class="cls-7" x="373.75" y="65.29" width="3.13" height="3.13" transform="translate(195.75 403.15) rotate(-72)"/>
        <rect class="cls-7" x="382.77" y="38.92" width="2.6" height="2.6" transform="translate(11.02 -59.59) rotate(9)"/>
        <rect class="cls-7" x="414.55" y="55.11" width="2.6" height="2.6" transform="translate(81.91 310.57) rotate(-45)"/>
        <rect class="cls-7" x="413.57" y="48.92" width="2.6" height="2.6" transform="translate(181.78 397.07) rotate(-63)"/>
        <rect class="cls-7" x="382.77" y="71.31" width="2.6" height="2.6" transform="translate(372.44 463.3) rotate(-99)"/>
        <rect class="cls-7" x="406.3" y="38.92" width="2.6" height="2.6" transform="translate(431.64 449.08) rotate(-99)"/>
        <rect class="cls-7" x="388.35" y="74.15" width="2.6" height="2.6" transform="translate(499.32 456.88) rotate(-117)"/>
        <rect class="cls-7" x="394.53" y="35.09" width="2.6" height="2.6" transform="translate(650 342.02) rotate(-135)"/>
        <rect class="cls-7" x="392.03" y="38.14" width="2.15" height="2.15" transform="translate(98.13 -223.57) rotate(36)"/>
        <rect class="cls-7" x="397.48" y="72.53" width="2.15" height="2.15" transform="translate(119.38 -220.21) rotate(36)"/>
        <rect class="cls-7" x="379.25" y="47.43" width="2.15" height="2.15" transform="translate(3.63 119.9) rotate(-18)"/>
        <rect class="cls-7" x="410.27" y="63.24" width="2.15" height="2.15" transform="translate(.26 130.26) rotate(-18)"/>
        <rect class="cls-7" x="377.56" y="58.06" width="2.15" height="2.15" transform="translate(108.24 330.7) rotate(-54)"/>
        <rect class="cls-3" x="419.12" y="62.7" width="3.78" height="3.78" transform="translate(16.56 198.17) rotate(-27)"/>
        <rect class="cls-3" x="378.38" y="75.93" width="3.78" height="3.78" transform="translate(362.89 465.59) rotate(-99)"/>
        <rect class="cls-3" x="409.5" y="33.1" width="3.78" height="3.78" transform="translate(441.19 446.79) rotate(-99)"/>
        <rect class="cls-3" x="371.53" y="58.44" width="3.13" height="3.13" transform="translate(105.25 326.58) rotate(-54)"/>
        <rect class="cls-3" x="388.35" y="36.07" width="2.6" height="2.6" transform="translate(59.43 -172.82) rotate(27)"/>
        <rect class="cls-3" x="375.5" y="48.92" width="2.6" height="2.6" transform="translate(18.27 176.53) rotate(-27)"/>
        <rect class="cls-3" x="394.53" y="75.13" width="2.6" height="2.6" transform="translate(621.69 410.37) rotate(-135)"/>
        <rect class="cls-3" x="410.27" y="47.43" width="2.15" height="2.15" transform="translate(238.1 424.73) rotate(-72)"/>
        <rect class="cls-3" x="382.45" y="67.64" width="2.15" height="2.15" transform="translate(314.81 452.24) rotate(-90)"/>
        <rect class="cls-2" x="368.76" y="46.34" width="3.78" height="3.78" transform="translate(18.5 173.53) rotate(-27)"/>
        <rect class="cls-2" x="368.76" y="62.7" width="3.78" height="3.78" transform="translate(144.83 365.52) rotate(-63)"/>
        <rect class="cls-2" x="383.81" y="34.33" width="3.13" height="3.13" transform="translate(29.95 -117.33) rotate(18)"/>
        <rect class="cls-2" x="404.72" y="75.35" width="3.13" height="3.13" transform="translate(43.65 -121.78) rotate(18)"/>
        <rect class="cls-2" x="414.78" y="65.29" width="3.13" height="3.13" transform="translate(-.28 131.93) rotate(-18)"/>
        <rect class="cls-2" x="417" y="58.44" width="3.13" height="3.13" transform="translate(44.67 257.49) rotate(-36)"/>
        <rect class="cls-2" x="414.78" y="44.39" width="3.13" height="3.13" transform="translate(243.98 427.72) rotate(-72)"/>
        <rect class="cls-2" x="410.54" y="38.56" width="3.13" height="3.13" transform="translate(371.98 452.24) rotate(-90)"/>
        <rect class="cls-2" x="383.81" y="75.35" width="3.13" height="3.13" transform="translate(431.31 467.21) rotate(-108)"/>
        <rect class="cls-2" x="397.87" y="77.58" width="3.13" height="3.13" transform="translate(676.06 377.96) rotate(-144)"/>
        <rect class="cls-2" x="375.5" y="61.3" width="2.6" height="2.6" transform="translate(149.96 369.9) rotate(-63)"/>
        <rect class="cls-2" x="382.45" y="43.02" width="2.15" height="2.15"/>
        <rect class="cls-2" x="377.56" y="52.61" width="2.15" height="2.15" transform="translate(40.76 232.81) rotate(-36)"/>
        <rect class="cls-2" x="402.66" y="39.82" width="2.15" height="2.15" transform="translate(489.6 437.51) rotate(-108)"/>
        <rect class="cls-2" x="397.48" y="38.14" width="2.15" height="2.15" transform="translate(601.09 384.7) rotate(-126)"/>
        <rect class="cls-2" x="407.19" y="64.42" width="1.78" height="1.78" transform="translate(-5.19 64.64) rotate(-9)"/>
        <rect class="cls-2" x="410.08" y="55.52" width="1.78" height="1.78" transform="translate(80.48 307.12) rotate(-45)"/>
        <rect class="cls-5" x="419.12" y="46.34" width="3.78" height="3.78" transform="translate(186.91 401.46) rotate(-63)"/>
        <rect class="cls-5" x="410.54" y="71.12" width="3.13" height="3.13"/>
        <rect class="cls-5" x="373.75" y="44.39" width="3.13" height="3.13" transform="translate(4.17 118.23) rotate(-18)"/>
        <rect class="cls-5" x="404.72" y="34.33" width="3.13" height="3.13" transform="translate(497.69 433.39) rotate(-108)"/>
        <rect class="cls-5" x="390.66" y="32.1" width="3.13" height="3.13" transform="translate(689.76 291.46) rotate(-144)"/>
        <rect class="cls-5" x="413.57" y="61.3" width="2.6" height="2.6" transform="translate(16.8 195.17) rotate(-27)"/>
        <rect class="cls-5" x="374.52" y="55.11" width="2.6" height="2.6" transform="translate(70.19 282.26) rotate(-45)"/>
        <rect class="cls-5" x="411.95" y="58.06" width="2.15" height="2.15" transform="translate(44.12 254.06) rotate(-36)"/>
        <rect class="cls-5" x="386.85" y="70.84" width="2.15" height="2.15" transform="translate(439.41 463.09) rotate(-108)"/>
        <rect class="cls-5" x="394.94" y="70.66" width="1.78" height="1.78" transform="translate(166.53 -258.94) rotate(45)"/>
        <rect class="cls-5" x="386.04" y="43.27" width="1.78" height="1.78" transform="translate(11.67 -59.99) rotate(9)"/>
        <rect class="cls-5" x="380.55" y="60.2" width="1.78" height="1.78" transform="translate(153.84 373.22) rotate(-63)"/>
        <rect class="cls-6" x="377.99" y="38.56" width="3.13" height="3.13"/>
        <rect class="cls-6" x="397.87" y="32.1" width="3.13" height="3.13" transform="translate(606.97 376.61) rotate(-126)"/>
        <rect class="cls-6" x="400.72" y="74.15" width="2.6" height="2.6" transform="translate(78.07 -174.29) rotate(27)"/>
        <rect class="cls-6" x="378.34" y="66.88" width="2.6" height="2.6" transform="translate(252.91 432.47) rotate(-81)"/>
        <rect class="cls-6" x="410.73" y="43.34" width="2.6" height="2.6" transform="translate(303.48 444.61) rotate(-81)"/>
        <rect class="cls-6" x="407.07" y="67.64" width="2.15" height="2.15"/>
        <rect class="cls-6" x="411.95" y="52.61" width="2.15" height="2.15" transform="translate(126.82 356.27) rotate(-54)"/>
        <rect class="cls-6" x="392.03" y="72.53" width="2.15" height="2.15" transform="translate(564.63 434.9) rotate(-126)"/>
        <rect class="cls-6" x="390.26" y="41.12" width="1.78" height="1.78" transform="translate(61.71 -173) rotate(27)"/>
        <rect class="cls-6" x="399.62" y="69.91" width="1.78" height="1.78" transform="translate(75.8 -174.11) rotate(27)"/>
        <rect class="cls-6" x="403.84" y="67.76" width="1.78" height="1.78" transform="translate(15.72 -62.47) rotate(9)"/>
        <rect class="cls-6" x="380.55" y="50.84" width="1.78" height="1.78" transform="translate(18.09 178.81) rotate(-27)"/>
        <rect class="cls-6" x="409.34" y="60.2" width="1.78" height="1.78" transform="translate(16.98 192.9) rotate(-27)"/>
        <rect class="cls-6" x="382.7" y="64.42" width="1.78" height="1.78" transform="translate(259.08 433.95) rotate(-81)"/>
        <rect class="cls-6" x="403.84" y="43.27" width="1.78" height="1.78" transform="translate(424.42 450.82) rotate(-99)"/>
        <rect class="cls-6" x="390.26" y="69.91" width="1.78" height="1.78" transform="translate(505.65 451.47) rotate(-117)"/>
        <rect class="cls-1" x="378.38" y="33.1" width="3.78" height="3.78" transform="translate(10.16 -59.06) rotate(9)"/>
        <rect class="cls-1" x="409.5" y="75.93" width="3.78" height="3.78" transform="translate(17.24 -63.4) rotate(9)"/>
        <rect class="cls-1" x="393.94" y="28.04" width="3.78" height="3.78" transform="translate(654.56 331) rotate(-135)"/>
        <rect class="cls-1" x="371.53" y="51.24" width="3.13" height="3.13" transform="translate(40.22 229.38) rotate(-36)"/>
        <rect class="cls-1" x="417" y="51.24" width="3.13" height="3.13" transform="translate(129.82 360.4) rotate(-54)"/>
        <rect class="cls-1" x="377.99" y="71.12" width="3.13" height="3.13" transform="translate(306.87 452.24) rotate(-90)"/>
        <rect class="cls-1" x="390.66" y="77.58" width="3.13" height="3.13" transform="translate(558.75 442.99) rotate(-126)"/>
        <rect class="cls-1" x="406.3" y="71.31" width="2.6" height="2.6" transform="translate(16.38 -62.87) rotate(9)"/>
        <rect class="cls-1" x="378.34" y="43.34" width="2.6" height="2.6" transform="translate(-2.31 59.94) rotate(-9)"/>
        <rect class="cls-1" x="410.73" y="66.88" width="2.6" height="2.6" transform="translate(-5.59 65.29) rotate(-9)"/>
        <rect class="cls-1" x="400.72" y="36.07" width="2.6" height="2.6" transform="translate(551.23 412.54) rotate(-117)"/>
        <rect class="cls-1" x="386.85" y="39.82" width="2.15" height="2.15" transform="translate(31.62 -117.88) rotate(18)"/>
        <rect class="cls-1" x="402.66" y="70.84" width="2.15" height="2.15" transform="translate(41.98 -121.24) rotate(18)"/>
        <rect class="cls-1" x="379.25" y="63.24" width="2.15" height="2.15" transform="translate(201.63 406.15) rotate(-72)"/>
        <rect class="cls-1" x="407.07" y="43.02" width="2.15" height="2.15" transform="translate(364.04 452.24) rotate(-90)"/>
        <rect class="cls-1" x="394.94" y="40.38" width="1.78" height="1.78" transform="translate(145.12 -267.81) rotate(45)"/>
        <rect class="cls-1" x="382.7" y="46.62" width="1.78" height="1.78" transform="translate(-2.71 60.59) rotate(-9)"/>
        <rect class="cls-1" x="379.81" y="55.52" width="1.78" height="1.78" transform="translate(71.62 285.71) rotate(-45)"/>
        <rect class="cls-1" x="409.34" y="50.84" width="1.78" height="1.78" transform="translate(177.9 393.76) rotate(-63)"/>
        <rect class="cls-1" x="407.19" y="46.62" width="1.78" height="1.78" transform="translate(297.31 443.13) rotate(-81)"/>
        <rect class="cls-1" x="386.04" y="67.76" width="1.78" height="1.78" transform="translate(379.66 461.57) rotate(-99)"/>
        <rect class="cls-1" x="399.62" y="41.12" width="1.78" height="1.78" transform="translate(544.9 417.94) rotate(-117)"/>
      </g>
    </g>
  </g>
  <rect class="cls-6" x="311.85" width=".75" height="113.06"/>
</svg>