<?xml version="1.0" encoding="UTF-8"?>
<svg id="Layer_2" xmlns="http://www.w3.org/2000/svg" version="1.1" viewBox="0 0 705.3 405.3">
  <!-- Generator: Adobe Illustrator 30.1.0, SVG Export Plug-In . SVG Version: 2.1.1 Build 136)  -->
  <defs>
    <style>
      .st0 {
        fill: #fff;
      }
    </style>
  </defs>
  <g id="Layer_1-2">
    <g>
      <path class="st0" d="M0,216.5V0h705.3v313.5h-81.3c47.3,0,82.9-43.2,79.6-91.7-.2-3.7.8-7.3.8-11v-48.5c0-3.1-.8-6.4-.7-9.6.5-14.6-1.5-28.5-7.7-41.7-8.7-18.2-23.3-32.4-41.3-41.2-11.9-4.9-23.9-7.6-37-7.7l-46.4-.2v60.6l41.8.2c7.4,0,15,1.3,21,5.6,5.5,3.9,8.9,11.1,8.9,18.2v81.9c0,7.7-4,14.3-9.6,18.7-6.1,3.2-12.6,5-19.7,5l-42.4.2.3,61h-18l.2-312.1h-60.8v308.7c0,1.4.3,2.6.5,3.4h-36l.2-39.9-.2-103.3-.5-28.1c-.6-36.1-29.5-70.2-64.9-77.6-7-1.3-14.1-2.5-21.4-2.5h-46s0,60.6,0,60.6h42.3c6.3.5,12.1,1.4,17.9,3.9,6.6,3.8,10.8,10.4,11.3,18.4,1,15,.5,29.4.5,44.7v120.7c0,1.1.2,2.5.4,3.2h-90.2l.3-312h-60.9c0,0,.3,312,.3,312h-35.8v-173.3c.1-11.1,0-21-.9-31.7-2.7-28.8-31.2-49.1-59.9-46.3l.2,251.3h-18l.3-61-49.6-.2c-13.4,0-23.2-11.8-22.1-24.7-.8-13.5,9.5-24.3,22.9-24.3h48.8s0-60.7,0-60.7h-45.6c-7,0-13.8,1.2-20.6,2.3-15.4,3.1-28.4,10.2-39.8,20.8C11.7,179.4,3,196.9,0,216.5h0ZM132.5,61.9H40.2v60.8h92.3v-60.8h0Z"/>
      <path d="M624,313.5h-52.5l-.3-61,42.4-.2c7.1,0,13.6-1.8,19.7-5,5.6-4.4,9.5-11,9.5-18.7v-81.9c0-7.1-3.3-14.3-8.8-18.2-6.1-4.3-13.6-5.6-21-5.6l-41.8-.2v-60.6l46.4.2c13,0,25.1,2.8,37,7.7,18.1,8.8,32.7,23,41.3,41.2,6.3,13.2,8.2,27.1,7.7,41.7-.1,3.2.7,6.6.7,9.6v48.5c0,3.6-1,7.3-.8,11,3.3,48.5-32.3,91.7-79.6,91.7h0Z"/>
      <path d="M553.5,313.5h-60.1c-.2-.8-.4-2-.4-3.4V1.5h60.8s-.2,312-.2,312h0Z"/>
      <polygon points="306.7 313.5 246.5 313.5 246.2 1.5 307.1 1.5 306.7 313.5"/>
      <path d="M457.3,313.5h-60.4c-.1-.7-.5-2.1-.5-3.2v-120.7c0-15.2.6-29.7-.4-44.7-.5-7.9-4.7-14.6-11.3-18.4-5.8-2.5-11.6-3.4-17.9-3.9h-42.3v-60.7h46c7.3,0,14.3,1.3,21.4,2.6,35.4,7.4,64.3,41.5,65,77.6l.5,28.1.2,103.3-.2,39.9h0Z"/>
      <path d="M132.2,313.5h-51.7c.3-1-4.4-.6-10.3-1.6C32.1,305.1,5.4,275.1,0,237.9v-21.5c3-19.5,11.7-37.1,26.5-50.8,11.4-10.6,24.4-17.7,39.8-20.8,6.8-1.1,13.6-2.3,20.6-2.3h45.6s0,60.7,0,60.7h-48.8c-13.4,0-23.7,10.8-22.9,24.3-1.1,13,8.7,24.7,22.1,24.7l49.6.2-.3,61h0Z"/>
      <path d="M210.8,313.5h-60.6l-.2-251.3c28.7-2.8,57.2,17.4,59.9,46.3,1,10.7,1.1,20.6,1.1,31.7v173.3h-.2Z"/>
      <path class="st0" d="M80.5,313.5H0v-75.6c5.4,37.2,32.1,67.1,70.2,74,5.9,1,10.6.6,10.3,1.6Z"/>
      <rect x="40.2" y="61.9" width="92.3" height="60.8"/>
    </g>
    <g>
      <g>
        <path d="M421,404.3v-55.1h24c8.7,0,15.8,5.5,15.8,14.6s-3.8,10.6-9,12.6c6.2,1,10.2,5.8,10.2,13s-7.5,15-16.1,15h-24.8ZM428.8,372.8h15c5.5,0,9.1-3.1,9.1-8.3s-3.5-8.3-9.1-8.3h-15v16.5h0ZM428.8,397.2h15.4c5.9,0,9.9-3.1,9.9-8.7s-3.9-8.7-9.9-8.7h-15.4v17.3h0Z"/>
        <path d="M472.7,384.6v-35.5h7.9v34.7c0,9.1,4.3,14.2,12.6,14.2h.8c8.3,0,12.6-5.1,12.6-14.2v-34.7h7.9v35.5c0,12.2-7.1,20.5-20.9,20.5s-20.9-8.3-20.9-20.5h0Z"/>
        <path d="M528.2,404.3v-55.1h7.9v55.1h-7.9Z"/>
        <path d="M550.2,404.3v-55.1h7.9v48h32.3v7.1h-40.2Z"/>
        <path d="M598.8,404.3v-55.1h19.7c15.4,0,25.6,10.2,25.6,27.6s-10.2,27.6-25.6,27.6h-19.7ZM606.7,397.2h11c11.8,0,18.5-7.1,18.5-20.5s-6.7-20.5-18.5-20.5h-11v41h0Z"/>
      </g>
      <path d="M377.2,404.7c-6.9,0-12.7-4.7-12.7-11.6s3.4-8.9,7.8-10.5c-4.6-1.7-7.5-5-7.5-10.3s5.9-11.5,12.5-11.5h8.5v5.3h-7.9c-3.8,0-7,2.4-7,6.8s2.9,6.8,7,6.8h9.6v-7.6h6.1v7.6h6.9v5.3h-6.9v19.6h-16.4ZM387.5,399.4v-14.3h-9.2c-4.7,0-7.6,3.1-7.6,7.1s3,7.1,7.6,7.1h9.2Z"/>
      <g>
        <path d="M61.2,404.5v-55.2h19.1c14.9,0,24.9,10.2,24.9,27.6s-9.9,27.6-24.9,27.6h-19.1ZM68.8,397.4h10.7c11.5,0,18-7.1,18-20.5s-6.5-20.5-18-20.5h-10.7v41h0Z"/>
        <path d="M117.1,404.5v-55.2h39v7.1h-31.4v16.2h26.8v7.1h-26.8v17.8h32.1v7.1h-39.8Z"/>
        <path d="M164.1,386.8h7.6c0,7.5,5.7,11.4,13.7,11.4h.8c7.2,0,11.1-3.7,11.1-8.3s-2.8-7.1-8.4-8.3l-8.6-1.8c-8.6-1.8-13.5-6.8-13.5-15.5s7.6-15.8,19.1-15.8,19.4,6.7,19.8,17.4h-7.6c-.4-6.3-5.3-10.2-11.8-10.2h-.8c-6.7,0-11.1,3.7-11.1,8.6s2.8,6.8,7.3,7.7l8.6,1.7c9.3,1.9,14.6,6.9,14.6,15.9s-8,15.7-19.8,15.7-20.7-6.3-21-18.5h0Z"/>
        <path d="M217.3,404.5v-55.2h7.6v55.2h-7.6Z"/>
        <path d="M236.8,376.9c0-16.6,9.9-28.4,26-28.4s21,8.2,21.8,18.9h-7.6c-.8-7.6-5.7-11.8-13.8-11.8h-.8c-10.7,0-18,7.9-18,21.3s7.3,21.3,18,21.3h.8c9.6,0,14.9-6.1,14.9-13.2v-1.5h-15.3v-7h15.7c4.2,0,6.5,2.4,6.5,6.7v21.3h-6.9v-6.2c-1.5,2.4-6.9,7-16.1,7-15.3,0-25.2-11.8-25.2-28.4h0Z"/>
        <path d="M333.2,349.3h7.6v55.2h-10.7l-24.9-45.7v45.7h-7.6v-55.2h10.7l24.9,45.7v-45.7Z"/>
      </g>
    </g>
  </g>
</svg>