<?xml version="1.0" encoding="UTF-8"?>
<svg id="Layer_1" data-name="Layer 1" xmlns="http://www.w3.org/2000/svg" viewBox="0 0 500 500">
  <g>
    <path d="M264.81,310.28c15.9-41.71,53.68-78.77,112.54-110.31l.67-.36.67.36c58.86,31.54,96.64,68.6,112.54,110.31-8.23-51.88-46.24-97.32-113.21-135.23-66.98,37.92-104.99,83.35-113.21,135.23h0Z"/>
    <path d="M469.51,316.6c-13.49-30.87-43.98-58.32-90.84-81.76l-.64-.32-.64.32c-46.86,23.44-77.35,50.89-90.84,81.76,7.53-38.26,38.23-71.86,91.48-100.01,53.25,28.16,83.95,61.75,91.48,100.01Z"/>
    <path d="M450.52,324.96c-11.35-22.65-35.46-42.83-71.89-60.13l-.61-.29-.61.29c-36.43,17.3-60.54,37.48-71.89,60.13,6.87-27.96,31.19-52.58,72.5-73.34,41.3,20.76,65.62,45.38,72.5,73.34h0Z"/>
  </g>
  <g>
    <g>
      <path d="M16.99,289.53l-6.19,16.92h-2.05l6.94-18.27h1.36l-.06,1.36h0ZM21.67,299.84v1.66h-9.98v-1.66h9.98ZM22.4,306.45l-6.2-16.92-.06-1.36h1.36l6.95,18.27h-2.05Z"/>
      <path d="M29.78,299.8v-.26c0-1.39.22-2.6.65-3.64.44-1.04,1.05-1.84,1.85-2.42.79-.57,1.73-.86,2.81-.86s2.02.24,2.77.73c.75.49,1.34,1.18,1.78,2.08s.72,1.95.87,3.16v2.25c-.13,1.17-.4,2.2-.83,3.07-.43.88-1.03,1.56-1.79,2.05-.76.49-1.7.73-2.81.73s-1.99-.3-2.79-.89c-.8-.59-1.41-1.41-1.85-2.45s-.65-2.23-.65-3.56h0ZM31.7,299.53v.26c0,.98.13,1.87.4,2.66.27.79.68,1.43,1.24,1.9s1.28.7,2.15.7c.82,0,1.5-.17,2.04-.5s.97-.77,1.3-1.31.57-1.13.73-1.78v-3.46c-.09-.44-.23-.89-.43-1.34-.19-.45-.45-.85-.76-1.22-.31-.36-.7-.66-1.17-.88-.47-.22-1.03-.33-1.68-.33-.88,0-1.6.24-2.16.71s-.98,1.11-1.25,1.91c-.27.8-.4,1.69-.4,2.67h-.01ZM39.07,303.81v-16.64h1.92v19.28h-1.77l-.15-2.64h0Z"/>
      <path d="M48.43,289.11c0-.33.1-.6.31-.83.2-.23.5-.34.88-.34s.68.12.9.34c.21.23.32.51.32.83s-.11.59-.32.82-.51.34-.9.34-.68-.11-.88-.34c-.21-.23-.31-.5-.31-.82ZM50.56,292.87v13.58h-1.92v-13.58h1.92Z"/>
      <path d="M60.27,287.17v19.28h-1.92v-19.28h1.92Z"/>
      <path d="M69.99,287.17v19.28h-1.92v-19.28h1.92Z"/>
      <path d="M86.11,298.38l.03,1.39h-2.65c-1.43,0-2.54.24-3.33.71s-1.19,1.16-1.19,2.05c0,.69.24,1.27.73,1.75.49.48,1.19.72,2.09.72.77,0,1.45-.15,2.05-.46s1.08-.69,1.44-1.16c.37-.47.59-.95.68-1.46l.82,1c-.08.38-.26.78-.53,1.22s-.63.84-1.07,1.23-.97.7-1.57.95c-.61.25-1.29.37-2.05.37-.9,0-1.69-.17-2.37-.52s-1.2-.82-1.57-1.41-.56-1.26-.56-2.01c0-1.4.55-2.48,1.66-3.24,1.1-.76,2.6-1.14,4.49-1.14h2.91-.01ZM85.74,304.06v-6.99c0-.89-.27-1.59-.81-2.11s-1.33-.78-2.37-.78c-.64,0-1.21.11-1.71.33-.49.22-.88.52-1.16.89-.28.37-.42.78-.42,1.21h-1.92c0-.67.22-1.31.67-1.92s1.06-1.11,1.86-1.5c.79-.39,1.72-.58,2.79-.58.98,0,1.84.17,2.59.5s1.33.83,1.76,1.49c.42.66.63,1.5.63,2.49v6.44c0,.46.04.94.11,1.45.08.51.19.94.34,1.29v.18h-2.01c-.11-.28-.19-.65-.26-1.1-.06-.45-.09-.88-.09-1.28h0Z"/>
      <path d="M117.35,300.69h1.98c-.13,1.2-.46,2.24-1,3.14-.54.9-1.3,1.6-2.27,2.11-.97.51-2.15.76-3.56.76s-2.63-.35-3.68-1.04-1.87-1.67-2.45-2.92c-.58-1.25-.87-2.72-.87-4.39v-2.05c0-1.68.29-3.15.87-4.4.58-1.26,1.41-2.23,2.48-2.92s2.34-1.04,3.81-1.04c1.34,0,2.48.25,3.43.74s1.69,1.19,2.23,2.1.87,1.97,1,3.2h-1.98c-.18-1.37-.64-2.44-1.36-3.22-.72-.77-1.83-1.16-3.32-1.16-1.1,0-2.04.28-2.82.83-.77.56-1.36,1.33-1.76,2.33s-.6,2.17-.6,3.52v2.07c0,1.26.19,2.4.56,3.41.37,1.01.93,1.82,1.68,2.41s1.68.89,2.78.89,1.91-.17,2.58-.51,1.18-.83,1.53-1.48c.36-.65.6-1.44.73-2.38h0Z"/>
      <path d="M125.49,299.84v-.35c0-1.31.25-2.49.75-3.52s1.21-1.85,2.12-2.45,1.99-.9,3.23-.9,2.34.3,3.26.9,1.63,1.41,2.13,2.45c.5,1.03.75,2.21.75,3.52v.35c0,1.31-.25,2.49-.75,3.52s-1.21,1.85-2.12,2.45-1.99.9-3.24.9-2.33-.3-3.24-.9c-.92-.6-1.63-1.41-2.13-2.45s-.75-2.21-.75-3.52h0ZM127.4,299.48v.35c0,.95.16,1.82.48,2.62.32.8.79,1.44,1.42,1.92s1.4.72,2.32.72,1.69-.24,2.31-.72,1.09-1.12,1.41-1.92.48-1.67.48-2.62v-.35c0-.93-.16-1.79-.48-2.59-.32-.8-.79-1.45-1.41-1.94-.62-.49-1.39-.74-2.32-.74s-1.68.25-2.3.74c-.62.49-1.09,1.14-1.41,1.94s-.48,1.66-.48,2.59h-.02Z"/>
      <path d="M146.31,295.62v10.83h-1.92v-13.58h1.82l.1,2.75h0ZM145.93,298.98l-.9-.21c.03-1.15.26-2.2.69-3.12s1.04-1.66,1.83-2.21c.79-.54,1.77-.82,2.92-.82,1.3,0,2.35.37,3.16,1.12.81.74,1.22,1.97,1.22,3.66v9.05h-1.91v-8.96c0-.8-.13-1.44-.39-1.91s-.62-.81-1.09-1.02c-.46-.21-1.01-.31-1.63-.31-.73,0-1.34.14-1.84.41-.5.28-.9.65-1.2,1.11s-.52.98-.67,1.53c-.14.56-.21,1.12-.21,1.68h.02ZM154.84,297.75l-1.29.25c.04-.94.28-1.82.7-2.64s1.04-1.48,1.83-1.99c.79-.51,1.74-.76,2.86-.76.95,0,1.77.17,2.44.51s1.19.88,1.54,1.6c.35.72.53,1.67.53,2.83v8.89h-1.92v-8.91c0-.86-.13-1.53-.39-2s-.62-.8-1.09-1c-.46-.19-1.01-.29-1.63-.29s-1.1.1-1.54.31c-.44.21-.81.48-1.11.82s-.52.71-.68,1.12-.24.83-.24,1.25h-.01Z"/>
      <path d="M172.71,295.48v16.19h-1.92v-18.8h1.77l.15,2.61ZM182,299.53v.26c0,1.34-.2,2.53-.61,3.56-.41,1.04-1,1.85-1.78,2.45-.78.59-1.73.89-2.83.89s-2.07-.24-2.85-.71-1.39-1.13-1.83-1.98-.73-1.84-.87-2.98v-2.43c.15-1.21.45-2.27.9-3.16.45-.9,1.05-1.59,1.81-2.08s1.69-.73,2.8-.73,2.08.29,2.86.86c.78.57,1.37,1.38,1.78,2.42s.62,2.25.62,3.64h0ZM180.08,299.8v-.26c0-.98-.14-1.87-.41-2.67s-.69-1.44-1.26-1.91-1.29-.71-2.17-.71c-.65,0-1.21.11-1.68.33s-.86.51-1.18.88c-.32.36-.57.77-.77,1.22-.19.45-.33.89-.43,1.34v3.63c.17.61.41,1.18.74,1.71s.76.95,1.31,1.27c.54.32,1.22.48,2.03.48.87,0,1.59-.24,2.15-.72s.98-1.11,1.25-1.91.41-1.69.41-2.67h0Z"/>
      <path d="M197.36,298.38l.03,1.39h-2.65c-1.43,0-2.54.24-3.33.71-.79.47-1.19,1.16-1.19,2.05,0,.69.24,1.27.73,1.75.49.48,1.19.72,2.09.72.77,0,1.45-.15,2.05-.46s1.08-.69,1.44-1.16c.37-.47.59-.95.68-1.46l.82,1c-.08.38-.26.78-.53,1.22s-.63.84-1.07,1.23-.97.7-1.57.95c-.61.25-1.29.37-2.05.37-.9,0-1.69-.17-2.37-.52s-1.2-.82-1.57-1.41c-.37-.59-.56-1.26-.56-2.01,0-1.4.55-2.48,1.66-3.24,1.1-.76,2.6-1.14,4.49-1.14h2.91,0ZM196.98,304.06v-6.99c0-.89-.27-1.59-.81-2.11s-1.33-.78-2.37-.78c-.64,0-1.21.11-1.71.33-.49.22-.88.52-1.16.89-.28.37-.42.78-.42,1.21h-1.92c0-.67.22-1.31.67-1.92s1.06-1.11,1.86-1.5c.79-.39,1.72-.58,2.79-.58.98,0,1.84.17,2.59.5s1.33.83,1.76,1.49c.42.66.63,1.5.63,2.49v6.44c0,.46.04.94.11,1.45.08.51.19.94.34,1.29v.18h-2.01c-.11-.28-.19-.65-.26-1.1-.06-.45-.09-.88-.09-1.28h0Z"/>
      <path d="M208.34,295.77v10.68h-1.91v-13.58h1.82l.09,2.9ZM207.9,298.98l-.82-.21c.04-1.15.29-2.2.75-3.12.46-.93,1.09-1.66,1.9-2.21.81-.54,1.74-.82,2.81-.82.9,0,1.68.17,2.33.5.65.33,1.15.86,1.5,1.59s.53,1.69.53,2.87v8.87h-1.92v-8.89c0-.83-.12-1.48-.36-1.96-.24-.48-.58-.83-1.02-1.04-.44-.21-.97-.31-1.59-.31s-1.22.14-1.73.41c-.51.28-.94.65-1.29,1.11-.35.46-.62.98-.81,1.53-.19.56-.29,1.12-.29,1.68h0Z"/>
      <path d="M224.87,292.87l3.93,11.09.5,2.01-1.39.74-5.13-13.84h2.1,0ZM228.22,305.07l4.02-12.2h2.05l-5.6,15.71c-.12.33-.27.68-.46,1.06s-.44.75-.75,1.1-.68.64-1.12.86c-.44.22-.97.33-1.59.33-.17,0-.38-.02-.65-.07-.27-.05-.46-.09-.58-.12v-1.57c.07.02.19.03.35.04s.27.02.34.02c.81,0,1.44-.18,1.87-.55.44-.37.79-.96,1.08-1.78l1.04-2.84h0Z"/>
    </g>
    <g>
      <path d="M16.59,269.23c-.8-1.06-1.2-2.29-1.2-3.68s.37-2.34,1.1-3.08,1.68-1.11,2.85-1.11c1.04,0,2.03.38,2.78,1.1.59.55.98,1.18,1.18,1.87.15.55.63.95,1.2.95h0c.77,0,1.36-.71,1.21-1.47-.27-1.43-.84-2.58-1.71-3.47-1.15-1.17-2.7-1.76-4.66-1.76s-3.66.64-5,1.92-2.01,2.97-2.01,5.05c0,.9.24,1.87.72,2.9s.94,1.74,1.39,2.13v.24h-2.63c-.79,0-1.43.64-1.43,1.43h0c0,.79.64,1.43,1.43,1.43h13.09c.79,0,1.43-.64,1.43-1.43h0c0-.79-.64-1.43-1.43-1.43h-5.32c-1.19,0-2.19-.53-2.99-1.59h0Z"/>
      <path d="M44.29,270.82h-8.69v-14.31c0-.82-.66-1.48-1.48-1.48h0c-.82,0-1.48.66-1.48,1.48v14.31h-3.14c-.79,0-1.43.64-1.43,1.43h0c0,.79.64,1.43,1.43,1.43h17.74v-23.66c0-.82-.66-1.48-1.48-1.48h0c-.82,0-1.48.66-1.48,1.48v20.81h0Z"/>
      <path d="M61.02,259.2c-.81-.74-1.74-1.3-2.8-1.66-1.06-.36-2.25-.54-3.56-.54h-1.31c-.78,0-1.41.63-1.41,1.41h0c0,.78.63,1.41,1.41,1.41h1.84c1.22,0,2.26.31,3.09.94.84.63,1.43,1.42,1.79,2.38.35.96.53,2.03.53,3.22v4.46h-8.78c-.79,0-1.43.64-1.43,1.43h0c0,.79.64,1.43,1.43,1.43h11.73v-7.21c0-1.64-.22-3.07-.66-4.3-.44-1.23-1.06-2.22-1.87-2.96h0Z"/>
      <path d="M82.39,270.82h-8.69v-14.31c0-.82-.66-1.48-1.48-1.48h0c-.82,0-1.48.66-1.48,1.48v14.31h-3.14c-.79,0-1.43.64-1.43,1.43h0c0,.79.64,1.43,1.43,1.43h17.74v-23.66c0-.82-.66-1.48-1.48-1.48h0c-.82,0-1.48.66-1.48,1.48v20.81h.01Z"/>
      <path d="M75.88,251.93c0-.45-.36-.81-.81-.81h-1.97c-.77,0-1.15-.43-1.15-1.31,0-.38.09-.68.27-.89.18-.22.4-.33.68-.33.46,0,.76.16.92.48.14.29.41.5.73.5h.15c.68,0,1.11-.76.73-1.33-.14-.2-.31-.38-.52-.53-.57-.42-1.24-.63-2.01-.63-.9,0-1.63.22-2.17.67s-.82,1.08-.82,1.89c0,.49.17.95.5,1.37v.1h-.33c-.45,0-.81.36-.81.81h0c0,.45.36.81.81.81h5c.45,0,.81-.36.81-.81h-.01Z"/>
      <rect x="89.91" y="248.53" width="2.99" height="25.14" rx="1.49" ry="1.49"/>
      <path d="M164.73,259.56c-.64-.81-1.51-1.44-2.61-1.89s-2.39-.67-3.88-.67h-6.47l5.94-6.03c.89-.91.25-2.44-1.02-2.44h0c-.38,0-.75.15-1.01.42l-8.01,8.04v2.85h10.75c.71,0,1.36.11,1.95.33s1.12.56,1.61,1.01c.48.46.86,1.09,1.13,1.89.27.8.41,1.74.41,2.82v4.93h-41.52c-2.26,0-3.38-1.48-3.38-4.43v-9.39h-7.42c-1.05,0-2,.13-2.83.4-.84.27-1.54.64-2.11,1.12-.57.48-1.05,1.05-1.43,1.73-.38.68-.65,1.42-.82,2.21s-.26,1.64-.26,2.56c0,1.27.21,2.4.64,3.37.42.98.99,1.75,1.7,2.33.71.57,1.49,1,2.33,1.29.84.29,1.73.43,2.65.43,1.09,0,2.08-.27,2.99-.81.9-.54,1.65-1.22,2.25-2.04.43,1.19,1.14,2.17,2.12,2.94s2.17,1.15,3.58,1.15h44.63v-7.78c0-1.31-.15-2.48-.46-3.54-.31-1.05-.78-1.99-1.43-2.8h-.02ZM115.66,265.16c0,.97-.23,1.8-.7,2.48-.46.68-1.03,1.17-1.71,1.47s-1.41.45-2.2.45c-1.18,0-2.2-.39-3.05-1.17-.85-.78-1.28-1.9-1.28-3.37s.42-2.78,1.27-3.74,1.91-1.43,3.19-1.43h4.46v5.31h.02Z"/>
      <rect x="220.81" y="246.45" width="2.99" height="3.12" rx="1.49" ry="1.49"/>
      <rect x="223.8" y="251.73" width="2.99" height="3.12" rx="1.49" ry="1.49"/>
      <rect x="217.82" y="251.73" width="2.99" height="3.12" rx="1.49" ry="1.49"/>
      <rect x="114.22" y="251.18" width="2.99" height="3.12" rx="1.49" ry="1.49"/>
      <rect x="108.24" y="251.18" width="2.99" height="3.12" rx="1.49" ry="1.49"/>
      <path d="M234.62,260.27v13.41h-7.93c-.72,0-1.48-.25-2.27-.75-.79-.5-1.28-1.18-1.48-2.04h-.1c-.53.95-1.26,1.67-2.21,2.16-.94.49-2,.73-3.17.73-.48,0-.95-.05-1.42-.15-.46-.1-.91-.25-1.34-.45s-.81-.48-1.13-.85c-.33-.37-.55-.78-.68-1.25h-.11c-.62,1.74-1.94,2.61-3.98,2.61h-27.57c-.77,0-1.54-.25-2.32-.75-.78-.5-1.25-1.12-1.4-1.86v2.75c0,2.74-.44,4.79-1.32,6.17s-2.29,2.06-4.23,2.06c-.48,0-.91-.04-1.31-.11-.08-.01-.15-.02-.23-.04-.03,0-.06-.01-.09-.02-.6-.19-1.04-.76-1.04-1.42s.4-1.19.97-1.4c.09,0,.2,0,.3.02.31.07.64.1.97.1h.02c1.01,0,1.75-.4,2.24-1.19s.73-2.18.73-4.16v-13.62c0-.41.17-.79.44-1.06.29-.29.7-.46,1.16-.43.8.05,1.4.76,1.4,1.56v6.7c0,1.23.35,2.19,1.04,2.86.7.67,1.6,1.01,2.72,1.01h27.09c.64,0,1.13-.27,1.46-.82.33-.55.5-1.45.5-2.7v-5.72c0-.41.17-.79.44-1.06.33-.33.82-.51,1.35-.41.71.14,1.2.8,1.2,1.52v5.76c0,1.22.32,2.12.95,2.68.64.56,1.57.84,2.81.84s2.13-.28,2.73-.85c.59-.57.89-1.46.89-2.67v-6.47c0-.41.17-.79.44-1.06.33-.33.82-.51,1.35-.41.71.14,1.2.8,1.2,1.52v6.32c0,1.19.27,2.08.82,2.65.55.58,1.26.87,2.16.87h4.94v-10.61c0-.41.17-.79.44-1.07.34-.34.85-.52,1.38-.41.71.14,1.2.81,1.2,1.54v-.03Z"/>
      <path d="M172.29,280.44c0,.83-.67,1.49-1.49,1.49h-.14c-.08-.01-.15-.02-.23-.04-.03,0-.06-.01-.09-.02-.6-.19-1.04-.76-1.04-1.42s.4-1.19.97-1.4c.09,0,.2,0,.3.02.31.07.64.1.97.1h.02c.44.26.73.74.73,1.28h0Z"/>
    </g>
  </g>
</svg>