<?xml version="1.0" encoding="UTF-8"?>
<svg id="Layer_1" data-name="Layer 1" xmlns="http://www.w3.org/2000/svg" viewBox="0 0 595.28 419.53">
  <path d="M218.84,134.25v145.21h157.65v-145.21h-157.65ZM347.67,153.36c9.26,5.48,14.94,16.3,14.34,27.06-.05.86-.6,5.4-1.31,5.4l-28.85-27.85-28.27,27.86c-6.17-25.59,21.13-46.05,44.09-32.46ZM322.72,180.42c22.54-7.24,44.03,12.4,38.23,35.39l-28.68-28.42-28.44,28.41c-4.5-14.35,4.7-30.82,18.89-35.38ZM357.33,243.72l-36.18-36.18c21.93-5.46,41.31,14.33,36.18,36.18ZM282.16,153.03c9.25,5.48,14.93,16.3,14.33,27.07-.05.86-.59,5.39-1.31,5.39l-28.84-27.85-28.27,27.85c-6.18-25.59,21.12-46.05,44.09-32.46ZM266.62,187.39l-28.44,28.41c-4.93-18.76,9.71-37.44,29.13-36.92,19.62.52,32.32,17.97,28.51,36.92l-29.2-28.41ZM278.24,207.54l-36.45,35.67c-5.07-21.72,14.95-41.14,36.45-35.67ZM226.68,135.74l5.06,4.92,5.05-4.92,6.23,6.06-6.07,6.39-5.18-5.19-4.93,5.19-6.38-6.39,6.22-6.06ZM236.85,279.09l-5.19-5.18-4.92,5.18-6.39-6.38,6.22-6.07,5.06,4.93,5.06-4.93,6.22,6.07-6.06,6.38ZM258.02,244.95c3.68-15.55,20.36-25.24,35.73-21.38l-35.66,36.18c-1.45-5.04-1.27-9.74-.08-14.8ZM309.74,262l-10.12,10.12-10.49-10.12,10.29-10.78-10.32-10.34,10.15-10.05,10.49,10.12-9.75,10.34,9.75,10.72ZM341.31,259.75l-36.18-36.18c21.85-5.57,41.44,14.46,36.18,36.18ZM368.65,279.09l-5.18-5.18-4.93,5.18-6.39-6.38,6.23-6.07,5.06,4.93,5.05-4.93,6.23,6.07-6.07,6.38ZM368.76,148.18l-5.19-5.19-4.92,5.19-6.39-6.39,6.23-6.06,5.05,4.92,5.06-4.92,6.22,6.06-6.06,6.39ZM218.84,134.25v145.21h157.65v-145.21h-157.65ZM347.67,153.36c9.26,5.48,14.94,16.3,14.34,27.06-.05.86-.6,5.4-1.31,5.4l-28.85-27.85-28.27,27.86c-6.17-25.59,21.13-46.05,44.09-32.46ZM322.72,180.42c22.54-7.24,44.03,12.4,38.23,35.39l-28.68-28.42-28.44,28.41c-4.5-14.35,4.7-30.82,18.89-35.38ZM357.33,243.72l-36.18-36.18c21.93-5.46,41.31,14.33,36.18,36.18ZM282.16,153.03c9.25,5.48,14.93,16.3,14.33,27.07-.05.86-.59,5.39-1.31,5.39l-28.84-27.85-28.27,27.85c-6.18-25.59,21.12-46.05,44.09-32.46ZM266.62,187.39l-28.44,28.41c-4.93-18.76,9.71-37.44,29.13-36.92,19.62.52,32.32,17.97,28.51,36.92l-29.2-28.41ZM278.24,207.54l-36.45,35.67c-5.07-21.72,14.95-41.14,36.45-35.67ZM226.68,135.74l5.06,4.92,5.05-4.92,6.23,6.06-6.07,6.39-5.18-5.19-4.93,5.19-6.38-6.39,6.22-6.06ZM236.85,279.09l-5.19-5.18-4.92,5.18-6.39-6.38,6.22-6.07,5.06,4.93,5.06-4.93,6.22,6.07-6.06,6.38ZM258.02,244.95c3.68-15.55,20.36-25.24,35.73-21.38l-35.66,36.18c-1.45-5.04-1.27-9.74-.08-14.8ZM309.74,262l-10.12,10.12-10.49-10.12,10.29-10.78-10.32-10.34,10.15-10.05,10.49,10.12-9.75,10.34,9.75,10.72ZM341.31,259.75l-36.18-36.18c21.85-5.57,41.44,14.46,36.18,36.18ZM368.65,279.09l-5.18-5.18-4.93,5.18-6.39-6.38,6.23-6.07,5.06,4.93,5.05-4.93,6.23,6.07-6.07,6.38ZM368.76,148.18l-5.19-5.19-4.92,5.19-6.39-6.39,6.23-6.06,5.05,4.92,5.06-4.92,6.22,6.06-6.06,6.39ZM218.84,134.25v145.21h157.65v-145.21h-157.65ZM347.67,153.36c9.26,5.48,14.94,16.3,14.34,27.06-.05.86-.6,5.4-1.31,5.4l-28.85-27.85-28.27,27.86c-6.17-25.59,21.13-46.05,44.09-32.46ZM322.72,180.42c22.54-7.24,44.03,12.4,38.23,35.39l-28.68-28.42-28.44,28.41c-4.5-14.35,4.7-30.82,18.89-35.38ZM357.33,243.72l-36.18-36.18c21.93-5.46,41.31,14.33,36.18,36.18ZM282.16,153.03c9.25,5.48,14.93,16.3,14.33,27.07-.05.86-.59,5.39-1.31,5.39l-28.84-27.85-28.27,27.85c-6.18-25.59,21.12-46.05,44.09-32.46ZM266.62,187.39l-28.44,28.41c-4.93-18.76,9.71-37.44,29.13-36.92,19.62.52,32.32,17.97,28.51,36.92l-29.2-28.41ZM278.24,207.54l-36.45,35.67c-5.07-21.72,14.95-41.14,36.45-35.67ZM226.68,135.74l5.06,4.92,5.05-4.92,6.23,6.06-6.07,6.39-5.18-5.19-4.93,5.19-6.38-6.39,6.22-6.06ZM236.85,279.09l-5.19-5.18-4.92,5.18-6.39-6.38,6.22-6.07,5.06,4.93,5.06-4.93,6.22,6.07-6.06,6.38ZM258.02,244.95c3.68-15.55,20.36-25.24,35.73-21.38l-35.66,36.18c-1.45-5.04-1.27-9.74-.08-14.8ZM309.74,262l-10.12,10.12-10.49-10.12,10.29-10.78-10.32-10.34,10.15-10.05,10.49,10.12-9.75,10.34,9.75,10.72ZM341.31,259.75l-36.18-36.18c21.85-5.57,41.44,14.46,36.18,36.18ZM368.65,279.09l-5.18-5.18-4.93,5.18-6.39-6.38,6.23-6.07,5.06,4.93,5.05-4.93,6.23,6.07-6.07,6.38ZM368.76,148.18l-5.19-5.19-4.92,5.19-6.39-6.39,6.23-6.06,5.05,4.92,5.06-4.92,6.22,6.06-6.06,6.39ZM218.84,134.25v145.21h157.65v-145.21h-157.65ZM347.67,153.36c9.26,5.48,14.94,16.3,14.34,27.06-.05.86-.6,5.4-1.31,5.4l-28.85-27.85-28.27,27.86c-6.17-25.59,21.13-46.05,44.09-32.46ZM322.72,180.42c22.54-7.24,44.03,12.4,38.23,35.39l-28.68-28.42-28.44,28.41c-4.5-14.35,4.7-30.82,18.89-35.38ZM357.33,243.72l-36.18-36.18c21.93-5.46,41.31,14.33,36.18,36.18ZM282.16,153.03c9.25,5.48,14.93,16.3,14.33,27.07-.05.86-.59,5.39-1.31,5.39l-28.84-27.85-28.27,27.85c-6.18-25.59,21.12-46.05,44.09-32.46ZM266.62,187.39l-28.44,28.41c-4.93-18.76,9.71-37.44,29.13-36.92,19.62.52,32.32,17.97,28.51,36.92l-29.2-28.41ZM278.24,207.54l-36.45,35.67c-5.07-21.72,14.95-41.14,36.45-35.67ZM226.68,135.74l5.06,4.92,5.05-4.92,6.23,6.06-6.07,6.39-5.18-5.19-4.93,5.19-6.38-6.39,6.22-6.06ZM236.85,279.09l-5.19-5.18-4.92,5.18-6.39-6.38,6.22-6.07,5.06,4.93,5.06-4.93,6.22,6.07-6.06,6.38ZM258.02,244.95c3.68-15.55,20.36-25.24,35.73-21.38l-35.66,36.18c-1.45-5.04-1.27-9.74-.08-14.8ZM309.74,262l-10.12,10.12-10.49-10.12,10.29-10.78-10.32-10.34,10.15-10.05,10.49,10.12-9.75,10.34,9.75,10.72ZM341.31,259.75l-36.18-36.18c21.85-5.57,41.44,14.46,36.18,36.18ZM368.65,279.09l-5.18-5.18-4.93,5.18-6.39-6.38,6.23-6.07,5.06,4.93,5.05-4.93,6.23,6.07-6.07,6.38ZM368.76,148.18l-5.19-5.19-4.92,5.19-6.39-6.39,6.23-6.06,5.05,4.92,5.06-4.92,6.22,6.06-6.06,6.39ZM218.84,134.25v145.21h157.65v-145.21h-157.65ZM347.67,153.36c9.26,5.48,14.94,16.3,14.34,27.06-.05.86-.6,5.4-1.31,5.4l-28.85-27.85-28.27,27.86c-6.17-25.59,21.13-46.05,44.09-32.46ZM322.72,180.42c22.54-7.24,44.03,12.4,38.23,35.39l-28.68-28.42-28.44,28.41c-4.5-14.35,4.7-30.82,18.89-35.38ZM357.33,243.72l-36.18-36.18c21.93-5.46,41.31,14.33,36.18,36.18ZM282.16,153.03c9.25,5.48,14.93,16.3,14.33,27.07-.05.86-.59,5.39-1.31,5.39l-28.84-27.85-28.27,27.85c-6.18-25.59,21.12-46.05,44.09-32.46ZM266.62,187.39l-28.44,28.41c-4.93-18.76,9.71-37.44,29.13-36.92,19.62.52,32.32,17.97,28.51,36.92l-29.2-28.41ZM278.24,207.54l-36.45,35.67c-5.07-21.72,14.95-41.14,36.45-35.67ZM226.68,135.74l5.06,4.92,5.05-4.92,6.23,6.06-6.07,6.39-5.18-5.19-4.93,5.19-6.38-6.39,6.22-6.06ZM236.85,279.09l-5.19-5.18-4.92,5.18-6.39-6.38,6.22-6.07,5.06,4.93,5.06-4.93,6.22,6.07-6.06,6.38ZM258.02,244.95c3.68-15.55,20.36-25.24,35.73-21.38l-35.66,36.18c-1.45-5.04-1.27-9.74-.08-14.8ZM309.74,262l-10.12,10.12-10.49-10.12,10.29-10.78-10.32-10.34,10.15-10.05,10.49,10.12-9.75,10.34,9.75,10.72ZM341.31,259.75l-36.18-36.18c21.85-5.57,41.44,14.46,36.18,36.18ZM368.65,279.09l-5.18-5.18-4.93,5.18-6.39-6.38,6.23-6.07,5.06,4.93,5.05-4.93,6.23,6.07-6.07,6.38ZM368.76,148.18l-5.19-5.19-4.92,5.19-6.39-6.39,6.23-6.06,5.05,4.92,5.06-4.92,6.22,6.06-6.06,6.39ZM218.84,134.25v145.21h157.65v-145.21h-157.65ZM347.67,153.36c9.26,5.48,14.94,16.3,14.34,27.06-.05.86-.6,5.4-1.31,5.4l-28.85-27.85-28.27,27.86c-6.17-25.59,21.13-46.05,44.09-32.46ZM322.72,180.42c22.54-7.24,44.03,12.4,38.23,35.39l-28.68-28.42-28.44,28.41c-4.5-14.35,4.7-30.82,18.89-35.38ZM357.33,243.72l-36.18-36.18c21.93-5.46,41.31,14.33,36.18,36.18ZM282.16,153.03c9.25,5.48,14.93,16.3,14.33,27.07-.05.86-.59,5.39-1.31,5.39l-28.84-27.85-28.27,27.85c-6.18-25.59,21.12-46.05,44.09-32.46ZM266.62,187.39l-28.44,28.41c-4.93-18.76,9.71-37.44,29.13-36.92,19.62.52,32.32,17.97,28.51,36.92l-29.2-28.41ZM278.24,207.54l-36.45,35.67c-5.07-21.72,14.95-41.14,36.45-35.67ZM226.68,135.74l5.06,4.92,5.05-4.92,6.23,6.06-6.07,6.39-5.18-5.19-4.93,5.19-6.38-6.39,6.22-6.06ZM236.85,279.09l-5.19-5.18-4.92,5.18-6.39-6.38,6.22-6.07,5.06,4.93,5.06-4.93,6.22,6.07-6.06,6.38ZM258.02,244.95c3.68-15.55,20.36-25.24,35.73-21.38l-35.66,36.18c-1.45-5.04-1.27-9.74-.08-14.8ZM309.74,262l-10.12,10.12-10.49-10.12,10.29-10.78-10.32-10.34,10.15-10.05,10.49,10.12-9.75,10.34,9.75,10.72ZM341.31,259.75l-36.18-36.18c21.85-5.57,41.44,14.46,36.18,36.18ZM368.65,279.09l-5.18-5.18-4.93,5.18-6.39-6.38,6.23-6.07,5.06,4.93,5.05-4.93,6.23,6.07-6.07,6.38ZM368.76,148.18l-5.19-5.19-4.92,5.19-6.39-6.39,6.23-6.06,5.05,4.92,5.06-4.92,6.22,6.06-6.06,6.39ZM213.14,128.22v157.2h168.99v-157.2h-168.99ZM378,280.97h-160.68v-148.24h160.68v148.24ZM376.49,134.25h-157.65v145.21h157.65v-145.21ZM347.67,153.36c9.26,5.48,14.94,16.3,14.34,27.06-.05.86-.6,5.4-1.31,5.4l-28.85-27.85-28.27,27.86c-6.17-25.59,21.13-46.05,44.09-32.46ZM322.72,180.42c22.54-7.24,44.03,12.4,38.23,35.39l-28.68-28.42-28.44,28.41c-4.5-14.35,4.7-30.82,18.89-35.38ZM357.33,243.72l-36.18-36.18c21.93-5.46,41.31,14.33,36.18,36.18ZM282.16,153.03c9.25,5.48,14.93,16.3,14.33,27.07-.05.86-.59,5.39-1.31,5.39l-28.84-27.85-28.27,27.85c-6.18-25.59,21.12-46.05,44.09-32.46ZM266.62,187.39l-28.44,28.41c-4.93-18.76,9.71-37.44,29.13-36.92,19.62.52,32.32,17.97,28.51,36.92l-29.2-28.41ZM278.24,207.54l-36.45,35.67c-5.07-21.72,14.95-41.14,36.45-35.67ZM226.68,135.74l5.06,4.92,5.05-4.92,6.23,6.06-6.07,6.39-5.18-5.19-4.93,5.19-6.38-6.39,6.22-6.06ZM236.85,279.09l-5.19-5.18-4.92,5.18-6.39-6.38,6.22-6.07,5.06,4.93,5.06-4.93,6.22,6.07-6.06,6.38ZM258.02,244.95c3.68-15.55,20.36-25.24,35.73-21.38l-35.66,36.18c-1.45-5.04-1.27-9.74-.08-14.8ZM309.74,262l-10.12,10.12-10.49-10.12,10.29-10.78-10.32-10.34,10.15-10.05,10.49,10.12-9.75,10.34,9.75,10.72ZM341.31,259.75l-36.18-36.18c21.85-5.57,41.44,14.46,36.18,36.18ZM368.65,279.09l-5.18-5.18-4.93,5.18-6.39-6.38,6.23-6.07,5.06,4.93,5.05-4.93,6.23,6.07-6.07,6.38ZM368.76,148.18l-5.19-5.19-4.92,5.19-6.39-6.39,6.23-6.06,5.05,4.92,5.06-4.92,6.22,6.06-6.06,6.39ZM218.84,134.25v145.21h157.65v-145.21h-157.65ZM347.67,153.36c9.26,5.48,14.94,16.3,14.34,27.06-.05.86-.6,5.4-1.31,5.4l-28.85-27.85-28.27,27.86c-6.17-25.59,21.13-46.05,44.09-32.46ZM322.72,180.42c22.54-7.24,44.03,12.4,38.23,35.39l-28.68-28.42-28.44,28.41c-4.5-14.35,4.7-30.82,18.89-35.38ZM357.33,243.72l-36.18-36.18c21.93-5.46,41.31,14.33,36.18,36.18ZM282.16,153.03c9.25,5.48,14.93,16.3,14.33,27.07-.05.86-.59,5.39-1.31,5.39l-28.84-27.85-28.27,27.85c-6.18-25.59,21.12-46.05,44.09-32.46ZM266.62,187.39l-28.44,28.41c-4.93-18.76,9.71-37.44,29.13-36.92,19.62.52,32.32,17.97,28.51,36.92l-29.2-28.41ZM278.24,207.54l-36.45,35.67c-5.07-21.72,14.95-41.14,36.45-35.67ZM226.68,135.74l5.06,4.92,5.05-4.92,6.23,6.06-6.07,6.39-5.18-5.19-4.93,5.19-6.38-6.39,6.22-6.06ZM236.85,279.09l-5.19-5.18-4.92,5.18-6.39-6.38,6.22-6.07,5.06,4.93,5.06-4.93,6.22,6.07-6.06,6.38ZM258.02,244.95c3.68-15.55,20.36-25.24,35.73-21.38l-35.66,36.18c-1.45-5.04-1.27-9.74-.08-14.8ZM309.74,262l-10.12,10.12-10.49-10.12,10.29-10.78-10.32-10.34,10.15-10.05,10.49,10.12-9.75,10.34,9.75,10.72ZM341.31,259.75l-36.18-36.18c21.85-5.57,41.44,14.46,36.18,36.18ZM368.65,279.09l-5.18-5.18-4.93,5.18-6.39-6.38,6.23-6.07,5.06,4.93,5.05-4.93,6.23,6.07-6.07,6.38ZM368.76,148.18l-5.19-5.19-4.92,5.19-6.39-6.39,6.23-6.06,5.05,4.92,5.06-4.92,6.22,6.06-6.06,6.39ZM218.84,134.25v145.21h157.65v-145.21h-157.65ZM347.67,153.36c9.26,5.48,14.94,16.3,14.34,27.06-.05.86-.6,5.4-1.31,5.4l-28.85-27.85-28.27,27.86c-6.17-25.59,21.13-46.05,44.09-32.46ZM322.72,180.42c22.54-7.24,44.03,12.4,38.23,35.39l-28.68-28.42-28.44,28.41c-4.5-14.35,4.7-30.82,18.89-35.38ZM357.33,243.72l-36.18-36.18c21.93-5.46,41.31,14.33,36.18,36.18ZM282.16,153.03c9.25,5.48,14.93,16.3,14.33,27.07-.05.86-.59,5.39-1.31,5.39l-28.84-27.85-28.27,27.85c-6.18-25.59,21.12-46.05,44.09-32.46ZM266.62,187.39l-28.44,28.41c-4.93-18.76,9.71-37.44,29.13-36.92,19.62.52,32.32,17.97,28.51,36.92l-29.2-28.41ZM278.24,207.54l-36.45,35.67c-5.07-21.72,14.95-41.14,36.45-35.67ZM226.68,135.74l5.06,4.92,5.05-4.92,6.23,6.06-6.07,6.39-5.18-5.19-4.93,5.19-6.38-6.39,6.22-6.06ZM236.85,279.09l-5.19-5.18-4.92,5.18-6.39-6.38,6.22-6.07,5.06,4.93,5.06-4.93,6.22,6.07-6.06,6.38ZM258.02,244.95c3.68-15.55,20.36-25.24,35.73-21.38l-35.66,36.18c-1.45-5.04-1.27-9.74-.08-14.8ZM309.74,262l-10.12,10.12-10.49-10.12,10.29-10.78-10.32-10.34,10.15-10.05,10.49,10.12-9.75,10.34,9.75,10.72ZM341.31,259.75l-36.18-36.18c21.85-5.57,41.44,14.46,36.18,36.18ZM368.65,279.09l-5.18-5.18-4.93,5.18-6.39-6.38,6.23-6.07,5.06,4.93,5.05-4.93,6.23,6.07-6.07,6.38ZM368.76,148.18l-5.19-5.19-4.92,5.19-6.39-6.39,6.23-6.06,5.05,4.92,5.06-4.92,6.22,6.06-6.06,6.39ZM218.84,134.25v145.21h157.65v-145.21h-157.65ZM347.67,153.36c9.26,5.48,14.94,16.3,14.34,27.06-.05.86-.6,5.4-1.31,5.4l-28.85-27.85-28.27,27.86c-6.17-25.59,21.13-46.05,44.09-32.46ZM322.72,180.42c22.54-7.24,44.03,12.4,38.23,35.39l-28.68-28.42-28.44,28.41c-4.5-14.35,4.7-30.82,18.89-35.38ZM357.33,243.72l-36.18-36.18c21.93-5.46,41.31,14.33,36.18,36.18ZM282.16,153.03c9.25,5.48,14.93,16.3,14.33,27.07-.05.86-.59,5.39-1.31,5.39l-28.84-27.85-28.27,27.85c-6.18-25.59,21.12-46.05,44.09-32.46ZM266.62,187.39l-28.44,28.41c-4.93-18.76,9.71-37.44,29.13-36.92,19.62.52,32.32,17.97,28.51,36.92l-29.2-28.41ZM278.24,207.54l-36.45,35.67c-5.07-21.72,14.95-41.14,36.45-35.67ZM226.68,135.74l5.06,4.92,5.05-4.92,6.23,6.06-6.07,6.39-5.18-5.19-4.93,5.19-6.38-6.39,6.22-6.06ZM236.85,279.09l-5.19-5.18-4.92,5.18-6.39-6.38,6.22-6.07,5.06,4.93,5.06-4.93,6.22,6.07-6.06,6.38ZM258.02,244.95c3.68-15.55,20.36-25.24,35.73-21.38l-35.66,36.18c-1.45-5.04-1.27-9.74-.08-14.8ZM309.74,262l-10.12,10.12-10.49-10.12,10.29-10.78-10.32-10.34,10.15-10.05,10.49,10.12-9.75,10.34,9.75,10.72ZM341.31,259.75l-36.18-36.18c21.85-5.57,41.44,14.46,36.18,36.18ZM368.65,279.09l-5.18-5.18-4.93,5.18-6.39-6.38,6.23-6.07,5.06,4.93,5.05-4.93,6.23,6.07-6.07,6.38ZM368.76,148.18l-5.19-5.19-4.92,5.19-6.39-6.39,6.23-6.06,5.05,4.92,5.06-4.92,6.22,6.06-6.06,6.39ZM218.84,134.25v145.21h157.65v-145.21h-157.65ZM347.67,153.36c9.26,5.48,14.94,16.3,14.34,27.06-.05.86-.6,5.4-1.31,5.4l-28.85-27.85-28.27,27.86c-6.17-25.59,21.13-46.05,44.09-32.46ZM322.72,180.42c22.54-7.24,44.03,12.4,38.23,35.39l-28.68-28.42-28.44,28.41c-4.5-14.35,4.7-30.82,18.89-35.38ZM357.33,243.72l-36.18-36.18c21.93-5.46,41.31,14.33,36.18,36.18ZM282.16,153.03c9.25,5.48,14.93,16.3,14.33,27.07-.05.86-.59,5.39-1.31,5.39l-28.84-27.85-28.27,27.85c-6.18-25.59,21.12-46.05,44.09-32.46ZM266.62,187.39l-28.44,28.41c-4.93-18.76,9.71-37.44,29.13-36.92,19.62.52,32.32,17.97,28.51,36.92l-29.2-28.41ZM278.24,207.54l-36.45,35.67c-5.07-21.72,14.95-41.14,36.45-35.67ZM226.68,135.74l5.06,4.92,5.05-4.92,6.23,6.06-6.07,6.39-5.18-5.19-4.93,5.19-6.38-6.39,6.22-6.06ZM236.85,279.09l-5.19-5.18-4.92,5.18-6.39-6.38,6.22-6.07,5.06,4.93,5.06-4.93,6.22,6.07-6.06,6.38ZM258.02,244.95c3.68-15.55,20.36-25.24,35.73-21.38l-35.66,36.18c-1.45-5.04-1.27-9.74-.08-14.8ZM309.74,262l-10.12,10.12-10.49-10.12,10.29-10.78-10.32-10.34,10.15-10.05,10.49,10.12-9.75,10.34,9.75,10.72ZM341.31,259.75l-36.18-36.18c21.85-5.57,41.44,14.46,36.18,36.18ZM368.65,279.09l-5.18-5.18-4.93,5.18-6.39-6.38,6.23-6.07,5.06,4.93,5.05-4.93,6.23,6.07-6.07,6.38ZM368.76,148.18l-5.19-5.19-4.92,5.19-6.39-6.39,6.23-6.06,5.05,4.92,5.06-4.92,6.22,6.06-6.06,6.39Z"/>
</svg>