<?xml version="1.0" encoding="UTF-8"?>
<svg id="Layer_1" data-name="Layer 1" xmlns="http://www.w3.org/2000/svg" viewBox="0 0 595.28 419.53">
  <path d="M208.72,272.31v.37h157.55v-.37h-157.55ZM208.72,272.31v.37h157.55v-.37h-157.55ZM208.72,272.31v.37h157.55v-.37h-157.55ZM208.72,272.31v.37h157.55v-.37h-157.55ZM208.72,272.31v.37h157.55v-.37h-157.55ZM208.72,272.31v.37h157.55v-.37h-157.55ZM208.72,272.31v.37h157.55v-.37h-157.55ZM208.72,272.31v.37h157.55v-.37h-157.55ZM208.72,272.31v.37h157.55v-.37h-157.55ZM208.72,272.31v.37h157.55v-.37h-157.55ZM208.72,272.31v.37h157.55v-.37h-157.55ZM208.72,272.31v.37h157.55v-.37h-157.55ZM208.72,272.31v.37h157.55v-.37h-157.55ZM208.72,272.31v.37h157.55v-.37h-157.55ZM208.72,272.31v.37h157.55v-.37h-157.55ZM208.72,272.31v.37h157.55v-.37h-157.55ZM208.72,272.31v.37h157.55v-.37h-157.55ZM208.72,272.31v.37h157.55v-.37h-157.55ZM208.72,272.31v.37h157.55v-.37h-157.55ZM208.72,272.31v.37h157.55v-.37h-157.55ZM208.72,272.31v.37h157.55v-.37h-157.55ZM208.72,272.31v.37h157.55v-.37h-157.55ZM208.72,272.31v.37h157.55v-.37h-157.55ZM208.72,272.31v.37h157.55v-.37h-157.55ZM208.72,272.31v.37h157.55v-.37h-157.55ZM208.72,272.31v.37h157.55v-.37h-157.55ZM208.72,272.31v.37h157.55v-.37h-157.55ZM208.72,272.31v.37h157.55v-.37h-157.55ZM208.72,272.31v.37h157.55v-.37h-157.55ZM208.72,272.31v.37h157.55v-.37h-157.55ZM208.72,272.31v.37h157.55v-.37h-157.55ZM208.72,272.31v.37h157.55v-.37h-157.55ZM208.72,272.31v.37h157.55v-.37h-157.55ZM208.72,272.31v.37h157.55v-.37h-157.55ZM203.03,121.54v157.1h168.89V121.54h-168.89ZM367.79,274.2h-160.58V126.05h160.58v148.15ZM366.27,272.31h-157.55v.37h157.55v-.37ZM208.72,272.31v.37h157.55v-.37h-157.55ZM208.72,272.31v.37h157.55v-.37h-157.55ZM208.72,272.31v.37h157.55v-.37h-157.55ZM208.72,272.31v.37h157.55v-.37h-157.55ZM208.72,272.31v.37h157.55v-.37h-157.55ZM208.72,272.31v.37h157.55v-.37h-157.55ZM208.72,272.31v.37h157.55v-.37h-157.55ZM208.72,272.31v.37h157.55v-.37h-157.55ZM208.72,272.31v.37h157.55v-.37h-157.55ZM208.72,272.31v.37h157.55v-.37h-157.55ZM208.72,272.31v.37h157.55v-.37h-157.55ZM208.72,272.31v.37h157.55v-.37h-157.55ZM208.72,272.31v.37h157.55v-.37h-157.55ZM208.72,272.31v.37h157.55v-.37h-157.55ZM208.72,272.31v.37h157.55v-.37h-157.55ZM208.72,272.31v.37h157.55v-.37h-157.55ZM208.72,272.31v.37h157.55v-.37h-157.55ZM208.72,272.31v.37h157.55v-.37h-157.55ZM208.72,272.31v.37h157.55v-.37h-157.55ZM208.72,272.31v.37h157.55v-.37h-157.55ZM208.72,272.31v.37h157.55v-.37h-157.55ZM208.72,272.31v.37h157.55v-.37h-157.55ZM208.72,272.31v.37h157.55v-.37h-157.55ZM208.72,272.31v.37h157.55v-.37h-157.55ZM208.72,272.31v.37h157.55v-.37h-157.55ZM208.72,272.31v.37h157.55v-.37h-157.55ZM208.72,272.31v.37h157.55v-.37h-157.55ZM208.72,272.31v.37h157.55v-.37h-157.55ZM208.72,272.31v.37h157.55v-.37h-157.55ZM208.72,272.31v.37h157.55v-.37h-157.55ZM208.72,272.31v.37h157.55v-.37h-157.55ZM208.72,272.31v.37h157.55v-.37h-157.55Z"/>
  <path d="M208.72,127.56v144.75h157.55V127.56h-157.55ZM290.24,134.2h.01s-.02.01-.02.01h.01ZM210.71,136.22l6.93-6.93,6.58,6.75-5.35,5.49,5.35,5.49-6.58,6.75-6.93-6.58,5.63-5.63-5.63-5.35ZM223.97,264.23l-6.59,6.75-6.93-6.58,5.63-5.63-3.86-3.66-1.77-1.68,6.93-6.93,6.59,6.75-1.81,1.86-3.53,3.63,5.35,5.49ZM342.31,228.09l-6.92,20.88-20.88,6.92-7.25-6.86v10.01l-19.5,9.49h-.53l-19.5-9.49v-10.01l-7.25,6.86-20.88-6.92-6.92-20.88,6.86-7.25h-10.01l-9.49-19.5v-.53l9.49-19.5h10.01l-6.86-7.25,6.92-20.88,20.88-6.92,7.25,6.86v-10.01l19.5-9.49h.53l19.5,9.49v10.01l7.25-6.86,20.88,6.92,6.92,20.88-6.85,7.25h10.01l9.49,19.5v.53l-9.49,19.5h-10.01l6.85,7.25ZM364.02,264.23l-6.58,6.75-6.93-6.58,5.63-5.63-2.57-2.45-3.05-2.9,6.93-6.93,6.58,6.75-3,3.07-2.35,2.41,5.35,5.49ZM364.27,147.02l-6.58,6.75-6.93-6.58,5.63-5.63-5.63-5.35,6.93-6.93,6.58,6.75-5.35,5.49,5.35,5.49ZM340.7,189.63c-.19-.41-.5-.39-.88-.44-3.77-.44-8.47.31-12.35.07l-11.76,11.9,11.58,11.63h13.17s5.53-11.61,5.53-11.61l-5.3-11.55ZM333.3,171.91l-4.15-12.36-12.5-4.28-9.39,9.3v16.73h16.73l9.3-9.39ZM307.26,220.83v16.73l9.39,9.3,12.5-4.28,4.15-12.37-9.3-9.39h-16.73ZM307.31,192.71c.18.61,1.99,1.94,2.48,2.54.44.08,5.46-5.25,6.16-6.04h-8.7c.14,1.03-.23,2.56.05,3.5ZM307.26,212.93h8.7c-.7-.79-5.72-6.12-6.16-6.04-.5.59-2.3,1.93-2.48,2.54-.28.95.09,2.47-.05,3.5ZM298.93,147.86l-11.11-5.25h-.66l-11.4,5.49-.14,12.53.26.79,11.71,11.43,11.63-11.58c-.09-3.89.59-8.74.15-12.53-.04-.38-.02-.69-.44-.88ZM299.1,240.71l-11.71-11.43-11.63,11.58c.12,3.85-.62,8.79-.15,12.53.04.29-.02.59.28.77l11.7,5.4,11.62-5.53c.32-.52.27-10.97.14-12.27-.04-.37.03-.75-.27-1.05ZM295.85,220.88c-.61.18-1.94,1.99-2.54,2.49-.08.44,5.25,5.46,6.04,6.16v-8.7c-1.03.14-2.56-.23-3.5.05ZM295.85,181.25c.95.28,2.47-.09,3.5.05v-8.7c-.79.69-6.12,5.72-6.04,6.16.59.5,1.93,2.31,2.54,2.49ZM282.67,189.26l-6.98,6.98v9.65l6.98,6.98h9.64l6.98-6.98v-9.65l-6.98-6.98h-9.64ZM275.64,229.53c.79-.69,6.12-5.72,6.04-6.16-.59-.5-1.93-2.31-2.54-2.49-.95-.28-2.47.09-3.5-.05v8.7ZM275.64,172.61v8.7c1.03-.14,2.56.23,3.5-.05.61-.18,1.94-1.99,2.54-2.49.08-.44-5.25-5.46-6.04-6.16ZM241.69,230.22l4.28,12.5,12.36,4.15,9.39-9.3v-16.73h-16.73l-9.31,9.39ZM267.73,181.3v-16.73l-9.39-9.3-12.36,4.15-4.28,12.5,9.31,9.39h16.73ZM267.73,189.21h-8.7c.69.79,5.72,6.12,6.16,6.04.5-.59,2.3-1.93,2.49-2.54.28-.95-.09-2.47.06-3.5ZM267.68,209.42c-.18-.61-1.99-1.94-2.49-2.54-.44-.08-5.46,5.25-6.16,6.04h8.7c-.14-1.03.23-2.56-.06-3.5ZM259.28,201.16l-11.58-11.82-13-.09-5.71,11.7,5.71,11.93,13-.09,11.58-11.63Z"/>
  <rect x="329.43" y="272.31" width="36.07" height=".02"/>
</svg>