<?xml version="1.0" encoding="UTF-8"?>
<svg id="Layer_1" data-name="Layer 1" xmlns="http://www.w3.org/2000/svg" viewBox="0 0 595.28 419.53">
  <defs>
    <style>
      .cls-1 {
        fill: #fff;
      }
    </style>
  </defs>
  <path class="cls-1" d="M114.81,208.34c.17,1.79.37,3.64.57,5.56.72,6.38,1.72,13.41,3.09,20.77.92,4.99,2.17,10.92,6.68,16.68,1.87,2.39,4.14,4.54,6.73,6.36,5.83,4.09,11.57,3.99,26.1,4.44,18.87.57,13.34.52,18.87.6,3.37.05,7.43.07,12.04.07-2.27-4.31-3.16-8.6-3.86-12.31-.67-3.64-1.27-7.2-1.77-10.62-3.79.15-8.4.3-13.61.35-30.59.3-35.45-3.24-37.82-5.93-2.32-2.64-3.39-6.86-5.51-15.33-1.02-3.96-1.7-7.63-2.14-10.79.45-3.39,1.17-7.38,2.27-11.74,2.12-8.45,3.19-12.69,5.51-15.33,2.37-2.72,7.23-6.23,37.82-5.93,4.79.05,9.07.17,12.71.35.32-2.12.7-4.29,1.12-6.48.92-4.91,2.14-10.79,6.53-16.45-5.06,0-9.52.02-13.16.05-5.56.07,0,.05-18.87.62-14.51.42-20.29.37-26.1,4.44-2.59,1.82-4.86,3.96-6.73,6.36-4.51,5.76-5.76,11.69-6.68,16.68-1.37,7.35-2.37,14.38-3.09,20.79-.25,2.37-.5,4.66-.7,6.83Z"/>
  <path class="cls-1" d="M357.79,206.2h.08c.02-.47.05-.92.05-1.42-.03.47-.05.95-.13,1.42Z"/>
  <path class="cls-1" d="M217.1,182.46h107.87c-.7-.07-1.32-.1-1.82-.1-20.72-.05-41.43-.07-62.12-.1-14.63.02-29.27.05-43.9.07,0,.02,0,.07-.03.12Z"/>
  <path class="cls-1" d="M149.44,195.28c4.09.2,9.22.37,15.21.45,6.03.07,11.07-.03,15.28-.25.6-5.98,1.39-12.76,2.57-19.97.32-2.12.7-4.29,1.12-6.48.92-4.91,2.14-10.79,6.53-16.45.05-.07.13-.15.15-.22,1.9-2.39,4.11-4.51,6.73-6.36,5.81-4.09,11.59-3.99,26.1-4.44,18.85-.57,13.31-.52,18.85-.6,6.93-.07,16.58-.15,28.24,0,1.12,0,2.29.03,3.64.03,11.59.05,19.27-.1,24.93-.1,12.51.05,29.64.17,52.48.35,0,0,17.82.1,32.08,7.28,2.87,1.45,5.46,3.19,5.46,3.19.65.4,1.27.87,1.89,1.32,1.7,1.27,16.38,12.51,19.05,29.64h82.04c-4.21,7.95-8.45,15.9-12.66,23.88h-.62c-44.97,0-89.92,0-134.92.02h-8.7l-12.86.12h-109.89l-2.97.02s-.03.07-.05.12c-.28.32-.5.62-.77.92.22.27.42.5.65.77.4.5.75,1,1.1,1.5l2.12.03,51,.02h58.88l12.84.15h8.73c45-.02,89.97-.02,134.94-.05,0,.02-.02.05-.05.07h.62c4.24,7.95,8.48,15.9,12.69,23.86h-80.32c-1.44,18.65-17.62,31.06-19.39,32.41-.62.42-1.27.87-1.9,1.3,0,0-2.59,1.77-5.48,3.19-14.23,7.18-32.08,7.3-32.08,7.3-22.81.15-39.94.27-52.45.3-5.66.02-13.34-.1-24.95-.07-1.32,0-2.52.02-3.64.02v.02c-11.67.13-21.29.05-28.22,0-5.53-.07,0-.05-18.87-.62-14.51-.42-20.27-.35-26.1-4.44-2.59-1.82-4.84-3.94-6.71-6.36-1.15-1.45-2.07-2.89-2.84-4.36-2.27-4.31-3.16-8.6-3.86-12.31-.67-3.64-1.27-7.2-1.77-10.62-1.05-7.3-1.77-14.11-2.24-19.92-4.46-.25-9.9-.37-16.53-.3-4.41.05-8.43.17-11.89.3.65-.55,1.32-1.1,1.97-1.65,3.04-2.59,6.08-5.18,9.12-7.78-4.19-4.46-8.4-8.95-12.59-13.49-.57-.57-1.12-1.17-1.67-1.77ZM357.87,206.2c.02-.47.05-.92.05-1.42-.03.47-.05.95-.13,1.42h.08ZM392.35,182.66c-1.72-1.6-3.62-3.19-5.76-4.74-18.55-13.51-44.92-13.84-96.95-13.93-12.44-.03-27.65.3-47.81-.4h-.4c-.2,0-.5,0-.87-.02-1.1,0-2.92-.05-5.78-.1-5.93-.12-10.97-.2-15.28-.12-.55,5.68-1.27,12.14-2.37,19,0,.02,0,.07-.03.12,0,.05,0,.12-.02.2h175.28ZM219.74,256.18c4.56.1,9.95,0,16.48-.12,2.87-.05,4.69-.1,5.78-.1.25,0,.55,0,.87-.02h.42c20.14-.67,35.35-.37,47.79-.4,52-.1,78.38-.4,96.92-13.93,3.39-2.47,6.26-5.04,8.68-7.48h-72.12c-.67.07-1.3.1-1.79.1-20.74.02-41.41.05-62.12.07-14.48-.02-28.99-.05-43.45-.05,1.22,8.1,2.02,15.61,2.54,21.94ZM192.89,234.79c2.14,8.48,3.22,12.69,5.53,15.33.27.35.6.67,1.02,1,2.79,2.42,6.21,3.74,10.97,4.41-.4-3.94-1.17-8.95-2.59-14.63-2.14-8.45-3.22-12.66-5.51-15.31-1.42-1.6-3.74-3.54-11.94-4.74.42,3.79,1.17,8.58,2.52,13.94ZM202.44,189.82c2.29-2.67,3.37-6.91,5.51-15.33.97-3.91,1.65-7.5,2.09-10.64-5.31.65-9.02,1.99-12.07,4.56-.37.32-.7.67-1.02,1.02-2.29,2.62-3.37,6.83-5.51,15.31-.92,3.62-1.54,7.01-1.99,9.97,9.05-1.22,11.52-3.22,12.99-4.89Z"/>
  <path class="cls-1" d="M357.79,206.2h.08c.02-.47.05-.92.05-1.42-.03.47-.05.95-.13,1.42Z"/>
  <path class="cls-1" d="M343.59,206.57c45,0,89.99.02,134.97.02l-.05-.05c-44.97,0-89.92,0-134.92.02Z"/>
  <path class="cls-1" d="M133.35,213.49c1.47,1.61,2.94,3.22,4.4,4.83,2.17,2.37,4.32,4.72,6.48,7.08,2.09-1.77,4.18-3.55,6.27-5.32.7-.59,1.39-1.18,2.09-1.77,3.04-2.59,6.09-5.17,9.13-7.76-4.2-4.48-8.39-8.98-12.59-13.48-.61-.65-1.21-1.29-1.82-1.94-.7-.74-1.39-1.47-2.08-2.21-1.49,1.39-2.97,2.76-4.47,4.15-2.2,2.05-4.42,4.1-6.63,6.15-1.83,1.69-3.67,3.4-5.52,5.1,1.57,1.72,3.15,3.45,4.72,5.17Z"/>
</svg>