<?xml version="1.0" encoding="UTF-8"?>
<svg id="Layer_1" data-name="Layer 1" xmlns="http://www.w3.org/2000/svg" viewBox="0 0 595.28 419.53">
  <path d="M393.11,137.03v139.63h.26v-139.63h-.26ZM393.11,137.03v139.63h.26v-139.63h-.26ZM393.11,137.03v139.63h.26v-139.63h-.26ZM393.11,137.03v139.63h.26v-139.63h-.26ZM393.11,137.03v139.63h.26v-139.63h-.26ZM393.11,137.03v139.63h.26v-139.63h-.26ZM393.11,137.03v139.63h.26v-139.63h-.26ZM393.11,137.03v139.63h.26v-139.63h-.26ZM236.3,131.24v151.17h162.51v-151.17h-162.51ZM394.84,278.13h-154.52v-142.55h154.52v142.55ZM393.37,137.03h-.26v139.63h.26v-139.63ZM393.11,137.03v139.63h.26v-139.63h-.26ZM393.11,137.03v139.63h.26v-139.63h-.26ZM393.11,137.03v139.63h.26v-139.63h-.26ZM393.11,137.03v139.63h.26v-139.63h-.26ZM393.11,137.03v139.63h.26v-139.63h-.26ZM393.11,137.03v139.63h.26v-139.63h-.26ZM393.11,137.03v139.63h.26v-139.63h-.26ZM393.11,137.03v139.63h.26v-139.63h-.26Z"/>
  <path d="M241.78,137.03v139.63h71.74c-.05-1.9-.12-3.79-.21-5.69-.26-5.17-2.05-10.25-3.08-15.39-.25-1.24-.42-2.55-.33-3.81.27-3.68-1.1-6.78-3.08-9.72-12.29-18.16-29.16-29.68-50.48-34.67-2.21-.52-4.54-.45-6.78-.86-.97-.17-1.86-.85-2.79-1.29.68-.69,1.25-1.63,2.07-2.04,19.77-9.76,40.29-17.48,61.8-22.45.38-.09.73-.29,1.23-.5-.34-2.65.37-4.75,3.08-5.98.62-.28,1-1.61,1.06-2.48.17-2.58.01-5.18.23-7.74.06-.76.95-1.45,1.46-2.17.49.72,1.33,1.39,1.41,2.15.21,1.97.12,3.97.07,5.96-.08,2.47.2,4.68,2.67,6.09.7.4,1.4,1.33,1.52,2.11.39,2.48,2.2,2.83,4.13,3.29,18.3,4.27,35.84,10.62,52.64,19.07,2.21,1.11,4.53,2.01,6.72,3.15.65.33,1.03,1.17,1.54,1.78-.62.37-1.21,1.02-1.86,1.08-27.88,2.46-47.41,17.25-60.79,41.11-.73,1.3-.9,2.95-1.18,4.46-.94,5.19-1.83,10.39-2.7,15.59-.16.97-.25,1.96-.26,2.94,0,2,0,4,0,6h71.51v-139.63h-151.33ZM249.21,264.34l4.86,4.74,4.86-4.74,5.98,5.83-5.82,6.14-4.99-4.98-4.73,4.98-6.14-6.14,5.98-5.83ZM259.19,150.43l-4.98-4.99-4.74,4.99-6.14-6.14,5.98-5.83,4.86,4.74,4.86-4.74,5.99,5.83-5.83,6.14ZM385.84,276.31l-4.98-4.98-4.74,4.98-6.14-6.14,5.99-5.83,4.86,4.74,4.86-4.74,5.99,5.83-5.83,6.14ZM385.94,150.43l-4.99-4.99-4.73,4.99-6.14-6.14,5.99-5.83,4.85,4.74,4.86-4.74,5.98,5.83-5.83,6.14ZM376.84,203.54c.11-.46.21-.93.32-1.4-8.14-3.23-16.26-6.49-24.44-9.61-.67-.26-1.71.44-2.73.74,3.8,3.39,6.99,6.34,10.31,9.14.76.64,1.92,1.06,2.91,1.08,4.54.11,9.09.05,13.63.05ZM349.43,206.71c-.87.02-2.17.8-2.5,1.56-1.49,3.44-2.7,7-3.97,10.38,8.27-4.09,16.3-8.05,24.33-12.02-5.82,0-11.84-.06-17.85.07ZM346.63,195.61c-3.75.12-7.49.36-10.69.53,5.31,5.57,12.2,9.4,21.57,6.87-2.91-2.33-5.66-4.59-8.5-6.73-.62-.47-1.58-.7-2.37-.67ZM322.83,184.92c5.67,2.93,11.25,6.04,17.03,8.72,2.73,1.27,6.67-.24,8.74-3.04-8.58-2.49-16.91-4.91-25.24-7.33-.18.55-.36,1.1-.54,1.65ZM341.88,206.34h-23.45c2.35,4.42,4.69,8.8,7.03,13.2,5.62-4.2,11.08-8.28,16.54-12.35-.04-.28-.08-.56-.11-.85ZM341.44,211.35c-3.55,2.6-6.97,5.52-10.77,7.79-4.12,2.45-3.19,5.88-2.98,9.47,7.32-3.66,13.88-7.61,13.75-17.26ZM318.75,196.8v6.27h22.14c-2.56-1.91-5.23-3.89-8.12-6.04-4.52,4.15-9.21,1.94-14.02-.22ZM322.23,246.38c4.17-6.05,8.62-12.51,12.67-18.39-7.9,3.25-10.22,11.16-12.67,18.39ZM320.06,194.56c4.07,2.84,7.79,2.76,10.9.21-4.1-3.18-7.96-6.17-11.81-9.17.22,3.19-2.33,6.7.91,8.96ZM319.4,232.21c-.77,4.09-.21,8.42-.21,12.66,1.64-6.43,7.17-11.76,5.18-20.01-1.98,2.8-4.51,4.88-4.97,7.35ZM312.13,220.48c-.25.57-.13,1.62.25,2.08,1.69,2.05,3.54,3.97,5.39,6.01,1.45-1.69,2.88-3.33,4.29-4.98.98-1.15,1.21-2.23.35-3.72-1.81-3.12-3.38-6.38-5.34-10.17-1.8,3.87-3.44,7.29-4.94,10.78ZM313.29,251.2v2.39h7.59c.1-2.9-1.24-3.3-7.59-2.39ZM314.81,264.83h4.92v-7.94h-4.92v7.94ZM316.36,270.33c0,2.12,0,4.23,0,6.34h2.08v-7.94c-.28-.14-.56-.28-.85-.42-.43.67-1.23,1.34-1.23,2.02ZM316.33,235.64c.66-4.88-2.13-7.62-5.88-11.04,0,3.03-.55,5.51.11,7.6,1.46,4.55,3.55,8.91,5.68,14.1,0-3.97-.36-7.37.09-10.66ZM315.45,185.6c-3.74,3.02-7.49,6.04-11.41,9.2,3.55,2.29,6.66,2.38,9.94.28,3.87-2.48,1.15-6.12,2.18-9.08-.23-.13-.47-.27-.71-.4ZM309.07,219.55c2.49-4.66,4.78-8.96,7.01-13.13h-22.5c5.67,4.81,10.59,8.97,15.5,13.13ZM316.04,197.68c0-.15-.19-.29-.38-.59-4.55,2.85-9.12,2.32-13.57-.37-2.48,2.22-4.82,4.31-7.04,6.31,5.37,0,10.62.06,15.87-.02,6.17-.09,5.18.31,5.11-5.33ZM287.13,190.58c3.9,3.31,9.69,3.88,13.69,1.35,3.55-2.25,6.75-5.04,10.1-7.59-.11-.23-.22-.47-.33-.7-7.62,2.26-15.24,4.51-23.45,6.94ZM307.69,229.47c.12-1.78-.08-3.04.33-4.04.92-2.22-.16-3.33-1.74-4.62-3.37-2.76-6.57-5.73-9.86-8.59-1.4-1.21-2.9-2.33-4.58-3.68,1.97,4.4,3.14,8.8,5.68,12.15,2.54,3.35,6.45,5.66,10.17,8.77ZM297.88,225.5c4.42,5.73,9.1,11.81,13.22,17.15-.91-7.74-6.9-12.84-13.22-17.15ZM293.73,219.38c-1.67-3.41-3.4-6.79-5-10.24-.83-1.78-2.09-2.38-3.99-2.37-4.55.04-9.11-.08-13.67-.12-1.07,0-2.13,0-3.66,0,9.01,4.57,17.41,8.84,25.8,13.1l.52-.37ZM298.29,195.92c-2.6-.25-5.49-.54-8.39-.78-.82-.07-1.92-.32-2.44.09-3.28,2.58-6.45,5.31-9.6,7.96,8.83,2.34,15.46-.85,20.42-7.26ZM257.59,202.41c.06.4.11.79.18,1.19,5.1,0,10.2.02,15.3-.03.62,0,1.36-.29,1.83-.7,3.18-2.82,6.33-5.68,9.42-8.6.56-.53.77-1.43,1.15-2.16-.23-.26-.47-.53-.71-.79-9.06,3.7-18.11,7.4-27.17,11.1Z"/>
</svg>