<?xml version="1.0" encoding="UTF-8"?>
<svg id="Layer_1" data-name="Layer 1" xmlns="http://www.w3.org/2000/svg" viewBox="0 0 595.28 419.53">
  <path d="M206.6,270.78c0,.22,0,.46,0,.68h-11.9c0-.22,0-.46-.01-.68-.33-12.38-.92-24.93.5-36.64,1.19-9.76,5.16-19.33,12.11-26.34l-.82,11.73c-.14,17.09.04,34.17.13,51.26Z"/>
  <path d="M262.59,168.14c-4.33,3.03-8.88,6.68-11.87,11.07l-9.53-7.35-.46-.08c-1.09.99-6.86,8.29-6.7,9.14,1.2.84,9.22,7.02,9.1,7.81-3.63,5.49-6.5,11.58-8.06,17.99-.5.12-.52-.17-.76-.45-.94-1.08-1.85-2.99-2.79-4.23-.41-.55-4.73-5.84-5.07-5.58-1.5,4.27-2.44,8.68-3.23,13.12.76,2.61,2.59,4.97,3.72,7.55,3.54,8.06,4.57,16.58,4.91,25.31-.24,9.43-.12,18.87.02,28.33,0,.22,0,.46,0,.68h-13.53v-56.52c1.7-22.38,12.01-45.29,32.19-56.45,4.37,2.49,8.21,5.7,11.88,9.09l.16.56Z"/>
  <path d="M277.57,192.96c-4.33,4.11-8.23,8.64-11.34,13.76-.52.12-.39-.2-.52-.54-1.73-4.57-2.89-9.39-5.69-13.49-2.83,3.61-5.31,7.52-7.09,11.77,2.85,7.19,3.9,14.92,4.54,22.6v43.71s0,.68,0,.68h-14.04v-45.19c1.11-19.53,10.05-38.35,26.58-49.23.5.01,4.45,7.49,4.95,8.53.77,1.64,2.16,4.42,2.55,6.08.11.44.35.84.05,1.3Z"/>
  <path d="M361.82,168.67c-4.33,3.03-8.89,6.69-11.88,11.07l-9.52-7.35-.46-.08c-1.1,1.01-6.87,8.3-6.7,9.15,1.19.84,9.22,7.01,9.1,7.81-3.63,5.49-6.49,11.58-8.06,17.99-.5.12-.53-.17-.77-.45-.93-1.07-1.85-3-2.79-4.23-.41-.55-4.73-5.84-5.07-5.58-1.5,4.26-2.45,8.68-3.23,13.13.75,2.6,2.59,4.97,3.72,7.55,3.54,8.06,4.57,16.58,4.91,25.31-.24,9.25-.12,18.52.01,27.79,0,.22,0,.46,0,.68h-13.53v-55.99c1.7-22.38,12.02-45.3,32.21-56.45,4.37,2.49,8.2,5.69,11.87,9.1l.18.55Z"/>
  <path d="M376.79,193.49c-4.33,4.11-8.23,8.65-11.33,13.77-.53.12-.39-.2-.53-.54-1.72-4.55-2.89-9.38-5.67-13.48-2.84,3.61-5.33,7.53-7.09,11.77,2.85,7.19,3.89,14.93,4.54,22.61v43.17s0,.68,0,.68h-14.04v-44.65c1.11-19.53,10.05-38.36,26.58-49.22.5.01,4.45,7.48,4.95,8.53.77,1.62,2.15,4.42,2.55,6.08.1.44.33.84.05,1.28Z"/>
  <path d="M381.79,216.02v54.76s0,.68,0,.68h-13.5v-30.35c.62-10.79,2.75-21.9,9.12-30.81.48-.67,2.53-3.57,3.16-3.59l1.23,9.31Z"/>
  <path d="M282.58,215.48v20.24c-.17,1.51-.29,3.04-.35,4.59v31.15h-13.16v-30.9c.61-10.78,2.75-21.9,9.12-30.8.48-.67,2.53-3.57,3.15-3.58l1.24,9.29Z"/>
  <path d="M305.63,234.01c0,12.26.12,24.52.19,36.77v.68h-11.92c0-.23,0-.46-.02-.68-.31-11.45-.82-23.02.29-33.95,0,0,0,0,0-.01.07-.72.14-1.43.23-2.14.76-6.24,2.66-12.41,5.74-17.87,1.75-3.09,3.87-5.95,6.37-8.48l-.82,11.73c-.04,4.65-.06,9.29-.06,13.95Z"/>
  <path d="M429.14,142.53v128.93h-12.55v-36.3c-.76-13.64-9.67-33.1-21.68-40.36-.36-.22-.52-.45-.45.17.22,1.92,1.16,4.48,1.54,6.57.65,3.61.82,9.74,1.77,12.8.43,1.39,2.13,3.68,2.86,5.23,2.73,5.82,4.05,12.17,4.63,18.57-.14,10.88-.03,21.76.05,32.64,0,.22,0,.46,0,.68h-11.94v-.68l.02-55.58c-.97-16.08-5.69-31.52-14.9-44.73-7.23-10.36-17.47-19.66-28.94-25-17.28,9.94-32.79,25.23-38.61,44.76-3.9,2.24-7.38,4.81-10.46,7.68-1.27,1.18-2.47,2.4-3.61,3.68-1.28,1.45-2.48,2.95-3.59,4.51-1.92-12.98-6.45-25.32-14.01-36.15-7.24-10.37-17.47-19.67-28.94-25.01-17.28,9.95-32.79,25.24-38.61,44.78-18.59,10.67-27.77,28.93-28.72,50.07v31.01s0,.68,0,.68h-19.29v-128.93h265.41Z"/>
  <path d="M156.45,136.21v141.24h280.2v-141.24H156.45ZM431.17,273.51H161.68v-133.02h269.49v133.02Z"/>
</svg>