<?xml version="1.0" encoding="UTF-8"?>
<svg id="Layer_1" data-name="Layer 1" xmlns="http://www.w3.org/2000/svg" viewBox="0 0 595.28 419.53">
  <defs>
    <style>
      .cls-1 {
        fill: #ff2b0b;
      }
    </style>
  </defs>
  <g>
    <path class="cls-1" d="M208.58,171.78l-12.25.5-1.96,12.05-.1-.02-14.64.51-2.87,17.68-13.25.53c-4.13,0-8.27-.01-12.4-.02.01.16.02.32.02.49v17.77c3.14,0,6.28-.02,9.42-.03,1.32,0,2.65,0,3.97,0l-4,.16h61.41c1.51-9.89,3.03-19.77,4.54-29.66,1.77-10.88-6.96-20.37-17.9-19.96ZM206.19,200.01c-.14.88-.85,1.56-1.76,1.61l-22.36.75c-1.2,0-2.23-1.06-2.03-2.23.16-.97.97-1.64,1.87-1.69l22.26-.77c1.31-.09,2.22,1.06,2.01,2.32ZM222.9,195.95l-.79,4.86-13.26.63.54-3.3c.57-3.5.12-6.26-1.04-8.35l8.64-.39c3.62-.21,6.5,2.95,5.92,6.54Z"/>
    <path class="cls-1" d="M206.53,221.4c-13.18-6.14-26.35-12.28-39.53-18.42h-.85c-2.27.1-4.53.19-6.8.28.61-18.25,1.23-36.51,1.84-54.77h-10.46v72.91c2.75-.02,5.5-.05,8.25-.07-.01.02-.02.05-.03.07h47.57Z"/>
    <path class="cls-1" d="M276.2,192.22c-.44,5.8-1.23,13.3-2.74,21.38-.6,3.22-1.4,7.04-4.31,10.76-1.21,1.55-2.66,2.92-4.34,4.1-3.74,2.62-7.46,2.57-16.82,2.85-12.16.37-8.58.35-12.16.39-4.46.06-10.67.09-18.19,0,3.52-4.98,7.04-9.96,10.55-14.93,2.9.17,7.14.37,12.28.42,19.71.2,22.84-2.08,24.36-3.82,1.5-1.71,2.18-4.43,3.56-9.87,1.17-4.63,1.63-8.57,1.83-11.27h5.97Z"/>
    <path class="cls-1" d="M180.22,217.89l-.03.15,4-.16c-1.32,0-2.65.01-3.97.01Z"/>
    <path class="cls-1" d="M212.9,238.96c5.24.01,15.76.02,29.16,0,38.08-.07,51.18-.37,63.36-9.12,4.5-3.23,7.55-6.66,9.27-8.8-3.98.04-7.97.08-11.99.1-6.73.03-13.41.03-20.04,0-1.28-1.76-2.46-3.82-3.35-6.21-4.53-12.3,2.2-24.31,3.88-27.14.95-.95,2.33-2.16,4.17-3.29,8.07-5,21.78-6.65,29.88,1.19,4.83,4.67,5.82,10.9,6.06,13.95.06.97.11,1.94.17,2.9,2.55,0,5.11.02,7.66.02l-2.99,18.36c-2.46.04-4.93.07-7.39.11.07.75.14,1.85.08,3.17-.56,12.61-11.54,21.03-12.74,21.92-.41.31-.82.59-1.22.86,0,0-1.71,1.15-3.59,2.1-9.32,4.69-20.98,4.77-20.98,4.77-29.83.21-44.75.31-50.59.15-6.82-.19-17.01-.37-29.56-.2,3.57-4.95,7.15-9.9,10.72-14.84ZM317.91,202.92v-3.8c-10.8.41-21.6.82-32.4,1.22-.25,1.33-.51,2.65-.76,3.98,11.05-.47,22.11-.94,33.16-1.4Z"/>
    <path class="cls-1" d="M437.51,189.7c.3,4.41-.02,10.41-2.64,16.72-1.26,3.04-2.97,7.15-7.01,10.34-4.57,3.6-9.7,4.33-12.04,4.33-15.84.02-31.68.04-47.52.06-14.93-.02-29.87-.04-44.8-.06,1.57-6.17,3.14-12.34,4.72-18.52l3.02.03h39.02s3.02,0,3.02,0h39.02s3.02,0,3.02,0l12.04.12c.47,0,2.1-.06,3.57-1.29,1.78-1.49,1.96-3.56,1.98-3.93.14-2.73.28-5.46.42-8.19,1.4.13,2.8.25,4.2.38Z"/>
    <path class="cls-1" d="M370.26,202.57v.03s3.01,0,3.01,0l-3.01-.03Z"/>
    <path class="cls-1" d="M431.57,167.07l6.81,6.8-6.83,7.03-6.9-6.92,6.92-6.9Z"/>
    <path class="cls-1" d="M412.3,202.58v.03s2.89,0,2.89,0l-2.89-.03Z"/>
    <path class="cls-1" d="M252.06,147.75l6.19,5.97-6,6.39-6.28-6.08,6.08-6.28Z"/>
    <path class="cls-1" d="M269.31,146.56c11.39.17,22.78.34,34.17.51-3.12,6.03-6.23,12.06-9.35,18.09-9.16-.06-18.33-.13-27.49-.19l-4.16,28.63c-2.3,1-6.85,2.59-12.61,2.08-2.21-.19-9.68-.85-15-6.66-6.14-6.69-5.56-16.01-5.3-20.27.02-.37.27-2.26.77-6.03.97-7.32,1.79-12.75,2.03-14.34.59-3.92,1.32-8.47,2.18-13.52,3.14-.04,6.29-.09,9.43-.13-1.84,9.99-3.68,19.99-5.52,29.98-.1.87-.61,6,2.97,9.83,2.88,3.08,6.65,3.43,9.04,3.66,5.57.53,9.93-1.66,11.87-2.81,1.98-13.51,3.97-27.02,5.95-40.53.91-.03,1.82-.05,2.73-.08l-1.71,11.78Z"/>
    <path class="cls-1" d="M394.77,165.04c-33.55.04-67.09.08-100.64.12-1.15-6-2.3-12-3.45-18,35.78-.24,71.56-.49,107.33-.73-1.08,6.2-2.16,12.41-3.24,18.61Z"/>
    <path class="cls-1" d="M434.14,165.04h-41.81c-7.1-6.14-14.21-12.28-21.31-18.42,11.2-.16,22.4-.32,33.61-.48l2.62-18.02,17.15-.29c7.78-.16,14.13,6.13,12.99,13.92l-3.24,23.29ZM407.44,145.95l25.15-1.32.59-4.09-25.17,1.42-.58,3.99Z"/>
    <path class="cls-1" d="M419.5,170.55h-91.95v6.12c32.22.02,64.43.05,96.65.07-1.57-2.06-3.14-4.12-4.7-6.19Z"/>
    <path class="cls-1" d="M229.99,128.71c-26.37,3.66-52.75,7.33-79.12,10.99l.51,3.66c27.73-3.84,55.45-7.67,83.18-11.51-1.52-1.05-3.04-2.1-4.56-3.14Z"/>
  </g>
  <path class="cls-1" d="M201.09,238.96c-17.19,4.06-34.37,8.11-51.56,12.17l1.03,4.38,56.4-13.31c-1.96-1.08-3.92-2.16-5.87-3.23Z"/>
  <g>
    <path class="cls-1" d="M149.72,286.75v-2.08c0-3.91,1.59-7.4,6.17-7.4v5.56h-2.32c-1.1,0-1.9.86-1.9,1.9,0,3.36,2.87,4.28,5.75,4.28h2.26s5.5,0,5.5-3.73v-8.99h1.96v11.12c0,4.71-3.73,7.21-7.46,7.21h-2.26c-3.18,0-7.7-2.02-7.7-7.89ZM158.34,275.93l2.32-2.45,2.45,2.45-2.38,2.32-2.38-2.32Z"/>
    <path class="cls-1" d="M170.47,263.34h1.99v20.11h4.4v5.56h-6.39v-25.67Z"/>
    <path class="cls-1" d="M175.64,283.45h9.72v5.56h-9.72v-5.56Z"/>
    <path class="cls-1" d="M212.68,285.43c-1.19,2.45-3.76,3.58-6.54,3.58h-22.01v-5.56h25.12c1.16,0,2.2-.73,2.26-1.71-.06-1.1-1.1-1.65-2.32-1.65h-23.84v-1.89l12.65-12.65h2.69l-8.92,8.99h14.3c6.48,0,7.34,4.77,7.34,7.4,0,.55-.03,1.04-.12,1.53h4.89v5.56h-5.5v-3.58Z"/>
    <path class="cls-1" d="M222.33,286.38c-.86,1.59-2.51,2.63-4.4,2.63h-.98v-5.56h1.71c1.71,0,2.99-.37,2.99-2.26,0,0,0-6.79,5.75-6.79,5.32,0,5.56,5.5,5.56,6.66v2.38h3.54v5.56h-9.23c-2.14,0-3.97-.86-4.95-2.63ZM231.01,283.45v-1.96c0-1.04-.79-1.9-1.83-1.9h-3.67c-1.04,0-1.9.86-1.9,1.9,0,1.1.86,1.96,1.96,1.96h5.44Z"/>
    <path class="cls-1" d="M235.29,283.45h4.49v-20.11h1.99v20.11c0,1.41-1.22,5.56-5.56,5.56h-.92v-5.56Z"/>
    <path class="cls-1" d="M245.4,263.34h1.99v25.67h-1.99v-25.67Z"/>
    <path class="cls-1" d="M254.72,292.92h3.3c1.96,0,4.22-.92,4.22-4.4v-12.23h1.96v14.98c0,2.63-.79,7.21-6.17,7.21h-3.3v-5.56Z"/>
    <path class="cls-1" d="M267.86,292.92h6.17s3.79,0,3.79-3.73h-3.79c-4.16,0-5.56-1.71-5.56-6.48v-1.34c0-3.61,2.26-6.79,5.56-6.79,3.67,0,5.75,3.42,5.75,6.48v2.38h3.54v5.56h-3.54v2.32s0,3.73-2.26,5.81c-1.59,1.53-3.3,1.34-3.3,1.34h-6.36v-5.56ZM275.93,279.6h-3.67c-1.04,0-1.9.86-1.9,1.9s.86,1.96,1.96,1.96h5.5v-1.96c0-1.04-.86-1.9-1.9-1.9Z"/>
    <path class="cls-1" d="M287.97,286.35c-.64,1.41-2.05,2.66-5.01,2.66h-.86v-5.56h4.43v-7.15h1.99v7.15h4.95v5.56h-5.5v-2.66ZM285.28,270.92l2.32-2.45,2.45,2.45-2.38,2.32-2.38-2.32Z"/>
    <path class="cls-1" d="M292.25,283.45h4.43v-7.15h1.99v7.15c0,2.02-.55,5.56-5.56,5.56h-.86v-5.56ZM294.08,294.51l2.32-2.45,2.45,2.45-2.45,2.32-2.32-2.32Z"/>
    <path class="cls-1" d="M313.34,274.4c4.03,0,5.75,3.06,5.75,6.79v2.26c0,3.79-2.02,5.56-5.56,5.56h-5.68v-7.95c0-3.73,1.9-6.66,5.5-6.66ZM313.03,269.2l-2.2,2.14-2.38-2.32,2.32-2.45,2.2,2.2,2.14-2.26,2.45,2.45-2.38,2.32-2.14-2.08ZM315.23,283.45c1.1,0,1.96-.86,1.96-1.96,0-1.04-.86-1.9-1.9-1.9h-3.67c-1.04,0-1.9.86-1.9,1.9v1.96h5.5Z"/>
    <path class="cls-1" d="M319.69,292.92h3.3c1.96,0,4.22-.92,4.22-4.4v-12.23h1.96v7.15h5.2v5.56h-5.2v2.26c0,2.63-.79,7.21-6.17,7.21h-3.3v-5.56Z"/>
    <path class="cls-1" d="M361.68,285.43c-1.19,2.45-3.76,3.58-6.54,3.58h-22.01v-5.56h25.12c1.16,0,2.2-.73,2.26-1.71-.06-1.1-1.1-1.65-2.32-1.65h-23.84v-1.89l12.65-12.65h2.69l-8.92,8.99h14.3c6.48,0,7.34,4.77,7.34,7.4,0,.55-.03,1.04-.12,1.53h4.89v5.56h-5.5v-3.58Z"/>
    <path class="cls-1" d="M365.96,283.45h4.1v-2.2s-.24-6.42,5.38-6.42,5.32,4.4,5.32,6.6v2.02h3.79v5.56h-4.71v-1.9c-.89,1.28-2.38,1.9-4.28,1.9h-9.6v-5.56ZM377.02,283.45c1.04,0,1.83-.73,1.83-1.77,0-.98-.49-1.83-1.83-1.83h-3.3c-1.1,0-1.83.86-1.83,1.83v1.77h5.13ZM373.05,269.45l2.32-2.45,2.45,2.45-2.38,2.32-2.38-2.32Z"/>
    <path class="cls-1" d="M383.93,283.45h4.49v-20.11h1.99v20.11c0,1.41-1.22,5.56-5.56,5.56h-.92v-5.56Z"/>
    <path class="cls-1" d="M394.04,263.34h1.99v25.67h-1.99v-25.67Z"/>
    <path class="cls-1" d="M403.36,292.92h3.3c1.96,0,4.22-.92,4.22-4.4v-12.23h1.96v14.98c0,2.63-.79,7.21-6.17,7.21h-3.3v-5.56Z"/>
    <path class="cls-1" d="M416.51,292.92h6.17s3.79,0,3.79-3.73h-3.79c-4.16,0-5.56-1.71-5.56-6.48v-1.34c0-3.61,2.26-6.79,5.56-6.79,3.67,0,5.75,3.42,5.75,6.48v2.38h3.54v5.56h-3.54v2.32s0,3.73-2.26,5.81c-1.59,1.53-3.3,1.34-3.3,1.34h-6.36v-5.56ZM424.57,279.6h-3.67c-1.04,0-1.9.86-1.9,1.9s.86,1.96,1.96,1.96h5.5v-1.96c0-1.04-.86-1.9-1.9-1.9Z"/>
    <path class="cls-1" d="M430.75,283.45h4.43v-7.15h1.99v7.15c0,2.02-.55,5.56-5.56,5.56h-.86v-5.56ZM433.62,270.92l2.32-2.45,2.45,2.45-2.38,2.32-2.38-2.32Z"/>
  </g>
</svg>