<svg width="856" height="358" viewBox="0 0 856 358" fill="none" xmlns="http://www.w3.org/2000/svg">
<path d="M159.44 1.09009H159.81C179.32 7.99609 198.134 16.7316 216 27.1801C238.63 40.3901 259.9 56.2701 277.59 75.6901C296.26 96.1601 310.71 121.15 315.85 148.58C316.95 155.14 316.69 161.83 316.73 168.46C316.73 231.213 316.73 293.96 316.73 356.7H2.60986V156.56C2.77738 152.809 3.24218 149.077 3.99986 145.4C7.93304 128.164 15.0225 111.805 24.9099 97.1501C41.9099 71.6001 65.5399 51.1501 91.1599 34.6001C112.562 20.8533 135.472 9.60961 159.44 1.09009ZM136.57 28.8501C113.42 39.3001 91.3199 52.3401 71.7599 68.6001C58.52 79.4347 46.8781 92.0865 37.1799 106.18C28.6719 118.607 22.3916 132.42 18.6199 147C17.1077 152.751 16.3514 158.674 16.3699 164.62C16.3699 180.66 16.3699 196.707 16.3699 212.76C16.3699 217.81 16.3699 222.85 16.3699 227.9C16.3699 234.19 16.3699 240.48 16.3699 246.78C16.3699 251.85 16.3699 256.92 16.3699 261.99C16.3699 268.27 16.3699 274.56 16.3699 280.84C16.3699 285.907 16.3699 290.98 16.3699 296.06C16.3699 302.35 16.3699 308.63 16.3699 314.92C16.3699 319.99 16.3699 325.05 16.3699 330.12C16.3699 334.12 16.3699 338.04 16.3699 342C59.1232 342 101.873 342 144.62 342C196.62 342.09 248.62 342 300.56 342.07C300.87 334.66 300.56 327.22 300.69 319.81C300.69 271.47 300.63 223.13 300.69 174.81L300.58 174.71C300.7 166.57 301.01 158.31 299.22 150.3C298.566 147.179 297.735 144.097 296.73 141.07C294.178 132.799 290.787 124.811 286.61 117.23C281.692 108.336 275.889 99.9599 269.29 92.2301C253 73.0501 232.76 57.4701 211.13 44.6801C194.434 34.7696 176.798 26.5361 158.48 20.1001C151 22.6601 143.75 25.6301 136.57 28.8501Z" fill="#EABA6A"/>
<path d="M24.79 171.2H31.47C31.47 180.2 31.47 189.2 31.47 198.2C31.47 200.59 32.08 203.2 33.93 204.85C36.05 206.68 39.01 206.95 41.69 206.85C44.06 206.76 46.64 206.12 48.21 204.23C49.88 202.07 50.13 199.23 50.21 196.58C50.21 188.133 50.21 179.687 50.21 171.24H56.72V196.57C56.72 200.96 55.61 205.72 52.19 208.74C48.77 211.76 43.91 212.49 39.47 212.41C35.47 212.29 31.11 211.41 28.22 208.41C25.64 205.72 24.77 201.87 24.77 198.24L24.79 171.2Z" fill="#EABA6A"/>
<path d="M65.9998 171.22C69.8198 170.89 73.6598 170.95 77.4998 170.93C81.8698 170.93 86.6598 172.2 89.4398 175.81C93.5298 181.53 91.9398 190.62 85.9898 194.48C82.1398 197.14 77.2198 197.48 72.6998 197.04C72.6998 201.95 72.6998 206.86 72.6998 211.77H65.9998C65.9398 198.26 65.9998 184.74 65.9998 171.22ZM72.6898 176.55C72.6898 181.48 72.6898 186.42 72.6898 191.35C76.1498 191.77 80.3498 192.08 82.9998 189.35C84.1533 187.845 84.7883 186.006 84.81 184.11C84.8316 182.214 84.2386 180.361 83.1198 178.83C80.4198 176.06 76.1698 176.33 72.6398 176.55H72.6898Z" fill="#EABA6A"/>
<path d="M101.68 171.2C104.3 171.2 106.92 171.2 109.55 171.2C112.2 178.97 114.72 186.77 117.33 194.56C118.26 197.25 118.95 200.03 119.61 202.81C122.51 192.13 126.39 181.75 129.77 171.23C132.44 171.23 135.12 171.23 137.77 171.23C139.82 184.75 141.91 198.23 143.95 211.8H137.04C135.44 201.353 133.92 190.89 132.48 180.41C129.86 191.07 125.92 201.33 122.65 211.8H115.92C112.6 201.33 108.57 191.07 106.02 180.36C104.94 190.87 103.57 201.36 102.29 211.82C100.06 211.82 97.8301 211.82 95.6001 211.82C97.5901 198.24 99.6501 184.72 101.68 171.2Z" fill="#EABA6A"/>
<path d="M136.57 28.8501C143.75 25.6301 151.04 22.6601 158.48 20.1001C176.798 26.5362 194.434 34.7696 211.13 44.6801C232.76 57.4701 253 73.0501 269.34 92.2401C250.08 92.1601 230.55 95.5601 213 103.69C213.16 89.4001 210.78 74.4901 202.83 62.3301C199.23 56.8632 194.462 52.2631 188.87 48.8617C183.277 45.4602 177 43.3421 170.49 42.6601C161.23 41.5801 151.72 41.3101 142.58 43.4401C151.08 50.7301 160 57.5101 168.58 64.6701C175.14 71.0501 181.1 78.2301 185.24 86.4401C187.95 91.9901 189.86 98.6401 187.48 104.64C177.6 96.1801 165.77 89.2501 152.61 87.9201C138.05 86.6601 123.37 91.2901 111.35 99.4101C99.0299 107.69 89.3499 119.41 81.7499 132C80.1113 134.636 78.632 137.367 77.3199 140.18C79.8999 138.04 82.0098 135.39 84.6299 133.28C95.6299 123.9 110.03 119.39 124.25 117.85C134.67 116.85 145.13 116.43 155.59 116.37C162.079 116.291 168.565 116.672 175 117.51C172.11 118.27 169.14 118.51 166.22 119.19C157.157 120.831 148.516 124.276 140.81 129.32C134.479 133.601 129.215 139.277 125.42 145.91C121.85 152.419 119.434 159.497 118.28 166.83C117.02 173.43 116.935 180.201 118.03 186.83C125.97 173.83 134.87 160.83 147.58 152.09C154.456 147.223 162.656 144.574 171.08 144.5C174.563 144.908 177.947 145.923 181.08 147.5C172.35 162.13 166.46 178.25 161.33 194.44C159.45 200.52 157.71 206.63 156.17 212.79C109.59 212.79 63.0132 212.79 16.4399 212.79C16.4399 196.75 16.4399 180.703 16.4399 164.65C16.3959 158.697 17.1287 152.764 18.6199 147C22.3926 132.423 28.673 118.614 37.1799 106.19C46.8774 92.093 58.5192 79.4378 71.7599 68.6001C91.3199 52.3401 113.42 39.3001 136.57 28.8501ZM24.7899 171.2V198.2C24.7899 201.83 25.6599 205.68 28.2399 208.37C31.1299 211.37 35.4799 212.24 39.4899 212.37C43.9299 212.45 48.7599 211.75 52.2099 208.7C55.6599 205.65 56.7199 200.92 56.7399 196.53V171.2H50.2299C50.2299 179.647 50.2299 188.093 50.2299 196.54C50.1399 199.18 49.8899 202.03 48.2299 204.19C46.6599 206.08 44.0799 206.72 41.7099 206.81C39.0299 206.93 36.0699 206.66 33.9499 204.81C32.0999 203.15 31.5199 200.55 31.4899 198.16C31.4899 189.16 31.4899 180.16 31.4899 171.16L24.7899 171.2ZM65.9499 171.2C65.9499 184.72 65.9499 198.2 65.9499 211.75H72.6199C72.6199 206.84 72.6199 201.93 72.6199 197.02C77.1399 197.46 82.0599 197.12 85.9099 194.46C91.9099 190.6 93.4499 181.51 89.3599 175.79C86.5799 172.18 81.7899 170.94 77.4199 170.91C73.6099 171 69.7699 170.89 65.9999 171.22L65.9499 171.2ZM101.68 171.2C99.6799 184.72 97.5899 198.2 95.6199 211.77C97.8499 211.77 100.08 211.77 102.31 211.77C103.59 201.29 104.96 190.82 106.04 180.31C108.59 191.02 112.62 201.31 115.94 211.75H122.67C125.94 201.28 129.88 191.02 132.5 180.36C133.94 190.833 135.46 201.297 137.06 211.75H144C142 198.22 139.87 184.7 137.82 171.18C135.15 171.18 132.47 171.18 129.82 171.18C126.44 181.7 122.56 192.08 119.66 202.76C119 199.98 118.31 197.2 117.38 194.51C114.77 186.72 112.25 178.92 109.6 171.15C106.92 171.21 104.3 171.18 101.68 171.2Z" fill="#045881"/>
<path d="M257 117C266.81 115.49 276.81 116.14 286.64 117.2C290.817 124.781 294.208 132.769 296.76 141.04C289.59 133.9 280.12 129.43 270.45 126.82C256.28 123.03 241.29 123.94 227.09 127.09C236 121.28 246.5 118.2 257 117Z" fill="#045881"/>
<path d="M211.92 148.86C224.259 146.696 236.874 146.614 249.24 148.62C258.62 150.06 267.55 153.54 276.12 157.52C285.161 161.895 293.437 167.7 300.63 174.71L300.74 174.81C300.64 223.14 300.74 271.48 300.74 319.81C300.64 327.22 300.92 334.66 300.61 342.07C300.44 340.15 300.39 338.22 300.36 336.3C288.74 334.4 277.87 329.35 267.97 323.11C252.44 313.21 239.27 299.96 228.11 285.39C223.11 278.71 218.16 271.88 214.3 264.44C205.37 247.69 197.68 230.16 192.68 211.82C189.51 199.75 187.33 187.07 189.38 174.62C189.94 171.56 190.7 168.3 192.88 165.96C194.47 164.24 196.96 164.04 199.16 164.01C205.514 164.196 211.771 165.619 217.58 168.2C226.43 171.91 234.06 177.91 241.27 184.14C248.579 190.641 255.532 197.531 262.1 204.78C261.847 197.003 260.366 189.314 257.71 182C254.71 173.88 249.89 166.23 242.8 161.13C234.11 153.87 222.9 150.66 211.92 148.86Z" fill="#045881"/>
<path d="M534.16 162.17C535.96 160.17 539.16 160.26 541.26 161.83C541.26 163.04 541.26 164.25 541.26 165.47C540.11 164.76 538.78 163.86 537.37 164.36C535.96 164.86 536.03 167.08 537.16 167.85C539.16 167.97 541.16 167.85 543.16 167.85C542.51 169.05 541.85 170.24 541.16 171.43C537.35 171.43 533.54 171.43 529.74 171.43C530.38 170.24 531.04 169.05 531.74 167.86H533.45C532.63 166 532.62 163.67 534.16 162.17Z" fill="#045881"/>
<path d="M595.18 164.35C597.91 163.35 601.28 165.4 600.79 168.48C601.04 171.3 597.97 172.99 595.49 172.13C592 171.37 591.64 165.29 595.18 164.35Z" fill="#045881"/>
<path d="M604.5 164.36C606.41 163.8 608.97 164.24 609.82 166.27C610.4 167.95 610.36 170.17 608.97 171.45C606.91 173.01 603.17 172.45 602.34 169.78C601.71 167.81 602.19 164.93 604.5 164.36Z" fill="#045881"/>
<path d="M566.93 171.39L574.63 167.3V206.7H566.92C566.93 194.93 566.91 183.16 566.93 171.39Z" fill="#045881"/>
<path d="M754.09 171.34C756.65 170 759.21 168.65 761.79 167.34C761.79 176.34 761.79 185.34 761.79 194.34C761.85 195.67 761.79 197.19 762.79 198.23C763.79 199.27 765.34 199.23 766.68 199.23C787.25 199.23 807.81 199.23 828.37 199.23C834.37 199.23 840.6 197.23 844.93 192.89C842.98 189.52 840.05 186.16 835.93 185.72C831.38 185.24 827.43 188.13 824.19 190.96C824.29 188.63 823.99 186.27 824.34 183.96C825.674 182.403 827.303 181.125 829.132 180.198C830.961 179.271 832.955 178.715 835 178.56C838.133 178.415 841.227 179.3 843.81 181.08C847.773 183.873 850.982 187.604 853.15 191.94V195C850.234 198.623 846.547 201.551 842.357 203.571C838.168 205.592 833.581 206.654 828.93 206.68C807.643 206.68 786.36 206.68 765.08 206.68C763.588 206.733 762.102 206.476 760.714 205.925C759.327 205.375 758.069 204.542 757.02 203.48C755.052 201.263 754.016 198.372 754.13 195.41C754.097 187.397 754.083 179.373 754.09 171.34Z" fill="#045881"/>
<path d="M548.29 171.42L556.05 167.3V194.3C556.141 197.624 554.932 200.853 552.68 203.3C551.509 204.453 550.115 205.353 548.582 205.945C547.049 206.536 545.412 206.807 543.77 206.74H520.54C521.84 204.26 523.12 201.79 524.41 199.3H532.41C532.41 192.66 532.41 186.02 532.41 179.38C535 178 537.59 176.64 540.18 175.25C540.18 183.25 540.18 191.25 540.18 199.25C542.18 199.17 544.42 199.57 546.31 198.61C547.85 197.8 548.22 195.87 548.23 194.28C548.29 186.66 548.26 179 548.29 171.42Z" fill="#045881"/>
<path d="M604.51 178.59C607.08 177.26 609.63 175.88 612.2 174.59C612.2 181.71 612.14 188.82 612.2 195.93C612.203 196.384 612.299 196.832 612.48 197.248C612.661 197.664 612.924 198.04 613.254 198.352C613.583 198.664 613.973 198.906 614.398 199.064C614.824 199.221 615.277 199.292 615.73 199.27C633.83 199.35 651.94 199.27 670.04 199.27C666.737 197.006 663.808 194.239 661.36 191.07C661.49 189.57 660.89 187.8 661.97 186.55C665.65 181.61 671.71 178.17 677.97 178.55C683.62 178.96 688.79 182.31 692.14 186.78C693.14 187.94 692.58 189.61 692.73 191.01C690.136 194.17 687.106 196.944 683.73 199.25C694.73 199.25 705.62 199.25 716.56 199.25C718.32 199.39 720.32 198.43 720.49 196.5C720.97 192.27 719.84 187.69 722.02 183.79C725.63 177.09 736.34 176.79 740.9 182.62C744.04 186.41 744.5 191.71 743.74 196.4C743.06 200.62 740.33 204.73 736.14 206.1C734.16 206.683 732.083 206.857 730.034 206.613C727.985 206.369 726.007 205.711 724.22 204.68C721.22 206.8 717.37 206.82 713.81 206.68H682.48C680.575 206.613 678.707 206.129 677.01 205.26C675.279 206.116 673.389 206.599 671.46 206.68H619.71C616.71 206.61 613.71 207.02 610.9 205.85C609.403 205.203 608.063 204.241 606.97 203.03C605.087 204.254 602.897 204.921 600.651 204.953C598.405 204.985 596.197 204.38 594.28 203.21C588.01 199.12 587.11 189.5 591.57 183.77C593.027 181.83 595.076 180.419 597.408 179.749C599.74 179.08 602.226 179.189 604.49 180.06C604.5 179.71 604.5 179 604.51 178.59ZM670.37 189.14C672.06 191.953 674.293 194.4 676.94 196.34C679.582 194.328 681.862 191.879 683.68 189.1C681.75 187.48 679.56 185.79 676.93 185.76C674.3 185.73 672.17 187.45 670.37 189.14ZM729.95 186.14C728.48 187 728.38 188.89 728.41 190.41C728.48 192.61 728.26 194.83 728.55 197.02C728.99 199.16 731.67 199.63 733.45 199.02C735.39 198.36 736.13 196.21 736.34 194.35C736.58 192.08 736.59 189.6 735.4 187.57C734.812 186.734 733.946 186.135 732.957 185.878C731.968 185.622 730.92 185.725 730 186.17L729.95 186.14ZM599.15 186.97C596.8 188.25 596.15 191.26 596.52 193.71C596.71 195.65 597.84 197.71 599.87 198.2C600.684 198.377 601.528 198.36 602.335 198.15C603.141 197.94 603.886 197.542 604.51 196.99C604.51 193.91 604.51 190.83 604.51 187.75C602.92 186.81 600.9 186.1 599.15 187V186.97Z" fill="#045881"/>
<path d="M72.6401 176.55C76.1701 176.33 80.4201 176.06 83.0801 178.83C84.2047 180.357 84.8046 182.207 84.7902 184.103C84.7758 186 84.1478 187.84 83.0001 189.35C80.3501 192.08 76.1501 191.77 72.6901 191.35C72.6401 186.42 72.6501 181.48 72.6401 176.55Z" fill="#045881"/>
<path d="M492.91 183.63C496.72 176.92 507.68 176.86 512.03 183.04C514.92 186.86 515.28 192.04 514.5 196.58C513.78 200.87 510.87 205 506.55 206.23C502.646 207.251 498.497 206.694 495 204.68C492.962 206.011 490.574 206.707 488.14 206.68C475.3 206.68 462.47 206.68 449.63 206.68C447.201 206.638 444.843 205.857 442.87 204.44C440.669 206.023 437.999 206.819 435.29 206.7C412.71 206.7 390.133 206.7 367.56 206.7C366.317 206.678 365.08 206.523 363.87 206.24C363.647 208.282 362.989 210.252 361.938 212.017C360.887 213.782 359.469 215.301 357.78 216.47C353.41 219.35 347.58 218.92 343.09 216.56C343.09 214.29 343.09 212.03 343.09 209.76C345.9 211.19 349.29 212.21 352.36 210.97C355.03 209.89 356.36 206.91 356.36 204.16C356.36 197.32 356.36 190.48 356.36 183.64C358.95 182.27 361.55 180.91 364.14 179.52C364.14 184.45 364.14 189.38 364.14 194.31C364.14 195.68 364.14 197.31 365.19 198.31C366.24 199.31 367.86 199.22 369.24 199.25C391.24 199.2 413.34 199.25 435.39 199.25C435.828 199.284 436.268 199.23 436.684 199.092C437.101 198.954 437.486 198.734 437.816 198.446C438.147 198.157 438.416 197.805 438.609 197.411C438.802 197.017 438.915 196.588 438.94 196.15C439.13 191.99 438.94 187.81 439.01 183.64C441.58 182.25 444.18 180.91 446.78 179.55C446.78 184.66 446.78 189.77 446.78 194.87C446.648 196.11 447.007 197.352 447.78 198.33C448.7 199.23 450.07 199.24 451.28 199.33C463.4 199.33 475.52 199.33 487.64 199.33C488.463 199.427 489.293 199.212 489.965 198.727C490.637 198.242 491.103 197.522 491.27 196.71C491.88 192.33 490.56 187.59 492.91 183.63ZM500.91 186.1C499.5 186.76 499.19 188.5 499.25 189.91C499.31 192.28 499.12 194.68 499.36 197.05C499.82 199.24 502.59 199.68 504.36 198.99C506.13 198.3 506.93 196.18 507.11 194.35C507.31 192.13 507.36 189.74 506.27 187.72C505.716 186.845 504.865 186.199 503.873 185.902C502.881 185.604 501.814 185.674 500.87 186.1H500.91Z" fill="#045881"/>
<path d="M432.76 212.71C434.76 211.71 437.87 212.02 438.86 214.32C439.48 216.02 439.37 218.32 437.93 219.56C435.93 220.98 432.32 220.51 431.43 217.94C430.86 216.19 431 213.73 432.76 212.71Z" fill="#045881"/>
<path d="M442.09 212.76C444.35 211.44 448.14 212.28 448.51 215.22C449.17 217.71 447.51 220.64 444.69 220.33C440.67 220.83 439 214.84 442.09 212.76Z" fill="#045881"/>
<path d="M835.64 212.64C837.55 211.69 840.41 212.17 841.32 214.29C842 216.09 841.86 218.69 840.05 219.79C838.24 220.89 835.49 220.51 834.26 218.66C833.03 216.81 833.44 213.67 835.64 212.64Z" fill="#045881"/>
<path d="M16.3801 227.89C61.8601 227.89 107.34 227.89 152.82 227.89C151.5 234.13 150.36 240.43 149.47 246.75C105.11 246.75 60.7501 246.75 16.3901 246.75C16.3601 240.47 16.3801 234.18 16.3801 227.89Z" fill="#045881"/>
<path d="M357.38 238.67C359.24 238.19 361.64 238.77 362.38 240.73C363.12 242.69 362.77 245.44 360.66 246.32C359.941 246.59 359.171 246.698 358.405 246.636C357.639 246.574 356.896 246.343 356.23 245.96C353.65 244.21 354.2 239.39 357.38 238.67Z" fill="#045881"/>
<path d="M417.34 238.61C417.998 238.426 418.692 238.414 419.357 238.575C420.021 238.735 420.633 239.063 421.134 239.528C421.635 239.992 422.01 240.577 422.221 241.227C422.432 241.877 422.473 242.57 422.34 243.24C422.34 246.72 417.57 247.67 415.42 245.56C413.27 243.45 414.18 239.06 417.34 238.61Z" fill="#045881"/>
<path d="M797.6 239.63C799.53 238.92 802.27 239.27 803.21 241.35C803.546 242.16 803.676 243.04 803.589 243.913C803.502 244.785 803.2 245.623 802.71 246.35C800.71 248.35 796.6 247.78 795.71 244.94C795.18 243 795.53 240.36 797.6 239.63Z" fill="#045881"/>
<path d="M807 239.64C809.38 238.64 812.88 239.8 813 242.71C813.152 243.332 813.146 243.981 812.985 244.601C812.823 245.22 812.51 245.789 812.073 246.257C811.637 246.725 811.091 247.078 810.485 247.282C809.878 247.487 809.231 247.538 808.6 247.43C804.56 247.51 803.48 241.1 807 239.64Z" fill="#045881"/>
<path d="M480.91 244.56C483.48 243.19 486.04 241.8 488.61 240.45C488.61 249.45 488.61 258.5 488.61 267.53C488.664 269.456 488.267 271.367 487.451 273.112C486.635 274.857 485.422 276.387 483.91 277.58C481.614 279.188 478.849 279.986 476.05 279.85C469.99 279.85 463.94 279.85 457.88 279.85C455.883 279.844 453.919 279.346 452.16 278.4C450.5 279.247 448.681 279.737 446.82 279.84C440.04 279.84 433.25 279.84 426.47 279.84C425.124 279.835 423.782 279.681 422.47 279.38C422.251 281.321 421.642 283.197 420.679 284.896C419.717 286.596 418.421 288.084 416.87 289.27C412.49 292.45 406.31 292.27 401.72 289.63C401.77 287.39 401.72 285.15 401.72 282.91C404.54 284.38 408 285.36 411.07 284.04C413.8 282.84 414.98 279.69 414.99 276.88C415.05 270.16 414.99 263.44 414.99 256.72C417.56 255.38 420.13 254.04 422.69 252.66C422.69 257.66 422.69 262.59 422.69 267.55C422.69 268.87 422.74 270.38 423.69 271.42C424.64 272.46 426.26 272.42 427.6 272.42C433.46 272.42 439.32 272.42 445.18 272.42C441.869 270.128 438.925 267.346 436.45 264.17C436.385 262.973 436.415 261.772 436.54 260.58C438.096 258.157 440.169 256.109 442.611 254.583C445.052 253.056 447.801 252.089 450.66 251.75C457.13 251.15 463.37 254.75 467.2 259.82C468.33 260.99 467.78 262.71 467.9 264.17C465.292 267.319 462.264 270.095 458.9 272.42C464.42 272.42 469.9 272.42 475.48 272.42C476.984 272.576 478.491 272.158 479.7 271.25C480.77 270.13 480.88 268.46 480.9 267C480.907 259.513 480.91 252.033 480.91 244.56ZM445.51 262.18C447.141 265.054 449.368 267.546 452.04 269.49C454.676 267.474 456.966 265.042 458.82 262.29C456.82 260.58 454.52 258.81 451.77 258.91C449.28 258.94 447.3 260.66 445.51 262.18Z" fill="#045881"/>
<path d="M499.5 244.55C502.1 243.2 504.66 241.79 507.26 240.45V279.84H499.49C499.49 268.07 499.47 256.31 499.5 244.55Z" fill="#045881"/>
<path d="M644.17 245.32C646.82 244.26 650.17 246.32 649.71 249.32C650.03 252.16 646.99 253.9 644.49 253.11C640.83 252.38 640.63 246.36 644.17 245.32Z" fill="#045881"/>
<path d="M716.79 245.81C719.37 244.35 723.23 246.15 722.91 249.36C722.975 249.967 722.892 250.58 722.669 251.149C722.446 251.717 722.09 252.223 721.629 252.623C721.169 253.024 720.618 253.307 720.025 253.449C719.431 253.592 718.812 253.588 718.22 253.44C714.45 253.25 713.59 247.44 716.79 245.81Z" fill="#045881"/>
<path d="M591.74 256.68C593.558 254.395 596.08 252.775 598.913 252.07C601.746 251.364 604.733 251.614 607.41 252.78C609.498 253.744 611.286 255.258 612.58 257.16C612.83 259.48 612.58 261.82 612.7 264.16C610.28 261.4 607.03 258.92 603.2 258.93C601.999 258.828 600.796 259.101 599.757 259.712C598.718 260.323 597.895 261.241 597.4 262.34C596.849 263.667 596.685 265.122 596.928 266.538C597.17 267.954 597.809 269.272 598.77 270.34C600.26 271.714 602.223 272.459 604.25 272.42C608.05 272.49 611.87 272.33 615.67 272.49C615.61 274.95 615.67 277.4 615.67 279.86H579C576.47 279.882 573.999 279.094 571.95 277.61C567.65 280.88 562.02 279.61 557.02 279.86C551.88 279.61 546.02 280.93 541.67 277.5C539.47 279.69 536.28 280.06 533.32 279.87C528.96 279.87 524.59 279.87 520.24 279.87L524.1 272.45C527.56 272.38 531.02 272.54 534.48 272.38C536.74 272.13 537.06 269.38 536.78 267.59C536.49 263.65 533.71 260.41 530.37 258.59C531.62 256.41 532.91 254.26 534.13 252.06C538.89 254.6 542.89 258.98 544.05 264.35C544.6 266.51 544.3 268.91 545.48 270.89C546.54 272.45 548.66 272.47 550.36 272.48C555.16 272.42 559.97 272.55 564.77 272.41C565.607 272.408 566.41 272.08 567.009 271.495C567.608 270.911 567.957 270.117 567.98 269.28C568.19 265.12 567.98 260.95 568.08 256.78C570.68 255.46 573.24 254.08 575.83 252.78C575.83 257.907 575.83 263.037 575.83 268.17C575.83 269.43 575.97 270.92 577.06 271.75C578.165 272.366 579.431 272.631 580.69 272.51C584.05 272.51 587.4 272.51 590.76 272.51C588.47 267.48 588.29 261.13 591.74 256.68Z" fill="#045881"/>
<path d="M795.64 255.18C798.87 251.6 804.35 250.91 808.76 252.41C813.37 254.07 816.14 258.95 816.28 263.7C816.465 266.762 815.711 269.807 814.12 272.43C818.12 272.35 822.12 272.49 826.12 272.37C826.924 272.435 827.723 272.195 828.358 271.696C828.992 271.197 829.414 270.477 829.54 269.68C830.05 265.36 828.86 260.61 831.24 256.68C834.24 251.44 841.63 250.44 846.7 253.05C850.7 255.2 852.75 259.75 853.14 264.13V266.24C853.08 270.68 851.52 275.5 847.65 278.05C843.37 280.81 837.6 280.27 833.28 277.87C830.998 279.286 828.343 279.983 825.66 279.87C818.52 279.74 811.37 280.12 804.24 279.61C802.55 279.61 800.88 279.9 799.24 279.87C789.68 279.87 780.13 279.87 770.59 279.87C767.584 280.022 764.571 279.888 761.59 279.47C761.36 281.393 760.749 283.252 759.793 284.936C758.837 286.62 757.554 288.097 756.02 289.28C751.64 292.52 745.47 292.22 740.81 289.72C740.81 287.46 740.81 285.2 740.81 282.95C743.68 284.38 747.15 285.44 750.25 284.06C752.94 282.84 754.12 279.71 754.09 276.92C754.09 270.2 754.09 263.49 754.09 256.77C756.68 255.43 759.26 254.06 761.84 252.69C761.84 257.69 761.84 262.6 761.84 267.55C761.84 268.88 761.84 270.39 762.84 271.44C763.84 272.49 765.42 272.44 766.77 272.44C776.003 272.44 785.237 272.44 794.47 272.44C791.16 267.19 791.37 259.77 795.64 255.18ZM800.34 261.05C799.398 261.616 798.635 262.436 798.139 263.417C797.643 264.397 797.434 265.498 797.536 266.593C797.639 267.687 798.049 268.73 798.718 269.601C799.388 270.472 800.29 271.137 801.321 271.517C802.352 271.898 803.47 271.98 804.545 271.753C805.62 271.526 806.61 270.999 807.399 270.235C808.188 269.47 808.745 268.497 809.005 267.43C809.265 266.362 809.218 265.242 808.87 264.2C808.87 262.2 807.95 259.87 805.87 259.2C803.79 258.53 801.28 259 800.34 261.05ZM839.57 259.05C837.36 259.69 837.33 262.36 837.4 264.23C837.53 266.38 837.1 268.61 837.72 270.71C839.06 273.38 843.64 272.83 844.65 270.09C845.708 267.333 845.761 264.292 844.8 261.5C844.393 260.511 843.631 259.71 842.662 259.257C841.694 258.803 840.59 258.729 839.57 259.05Z" fill="#045881"/>
<path d="M355.24 256.82C357.82 255.39 360.44 254.06 363.04 252.67C363.04 257.63 363.04 262.587 363.04 267.54C362.913 268.849 363.211 270.164 363.89 271.29C364.695 271.666 365.571 271.867 366.46 271.88C372.714 272.365 378.989 272.535 385.26 272.39C386.09 272.477 386.922 272.247 387.589 271.746C388.257 271.245 388.711 270.511 388.86 269.69C389.19 265.38 388.86 261.03 389.04 256.69C391.63 255.39 394.18 254.01 396.76 252.69C396.76 258.18 396.76 263.69 396.76 269.18C396.785 271.096 396.288 272.984 395.322 274.639C394.357 276.295 392.96 277.657 391.28 278.58C389.399 279.507 387.315 279.944 385.22 279.85C378.98 279.85 372.75 279.85 366.53 279.85C365.268 279.823 364.011 279.669 362.78 279.39C362.557 281.438 361.895 283.414 360.839 285.183C359.783 286.952 358.357 288.472 356.66 289.64C352.29 292.49 346.51 292.04 342.02 289.72C342.02 287.44 342.02 285.167 342.02 282.9C344.81 284.34 348.17 285.34 351.23 284.13C354.07 283.01 355.37 279.77 355.31 276.89C355.24 270.2 355.29 263.51 355.24 256.82Z" fill="#045881"/>
<path d="M655 256.72C657.57 255.41 660.12 254.04 662.69 252.72C662.69 257.85 662.69 262.99 662.69 268.12C662.69 269.75 663.18 271.8 665.03 272.18C667.47 272.65 670.03 272.3 672.46 272.42C674.05 272.36 675.84 272.63 677.22 271.66C678.28 270.82 678.43 269.36 678.47 268.11C678.47 264.38 678.47 260.66 678.47 256.94L678.66 256.64C681.17 255.34 683.66 254.02 686.19 252.71C686.19 258.21 686.19 263.71 686.19 269.21C686.22 271.116 685.73 272.994 684.774 274.643C683.817 276.292 682.429 277.65 680.76 278.57C677.89 280.16 674.53 279.83 671.39 279.84C668.25 279.85 665.39 280.1 662.39 279.4C661.877 281.96 660.689 284.337 658.948 286.283C657.207 288.23 654.977 289.675 652.49 290.47C647.49 292 641.68 291.9 637.12 289.14C629.74 284.58 627.63 273.93 631.93 266.58C634.41 266.05 636.93 265.58 639.39 265.01C637.25 268.8 636.23 273.4 637.5 277.65C637.95 279.214 638.827 280.622 640.031 281.717C641.235 282.812 642.72 283.55 644.32 283.85C647.41 284.29 651 283.74 653.15 281.28C654.387 279.725 655.02 277.775 654.93 275.79C655 269.43 655 263.08 655 256.72Z" fill="#045881"/>
<path d="M728.12 256.69C730.69 255.41 733.22 254.03 735.78 252.69C735.78 260.76 735.78 268.81 735.78 276.87C735.755 278.94 735.281 280.98 734.392 282.85C733.503 284.719 732.22 286.374 730.63 287.7C726.79 290.94 721.47 291.84 716.63 291.26C713.105 290.906 709.827 289.29 707.4 286.71C704.953 284.011 703.419 280.609 703.016 276.987C702.614 273.366 703.364 269.71 705.16 266.54C707.64 266.05 710.11 265.54 712.59 264.99C710.308 268.706 709.589 273.175 710.59 277.42C711.023 279.059 711.919 280.538 713.171 281.68C714.423 282.823 715.978 283.579 717.65 283.86C720.74 284.26 724.32 283.66 726.41 281.13C727.92 279.35 728.15 276.9 728.09 274.66C728.09 268.68 728 262.69 728.12 256.69Z" fill="#045881"/>
<path d="M16.3799 262H147.63C146.98 268.27 146.74 274.56 146.49 280.85H16.3899C16.3699 274.55 16.3799 268.26 16.3799 262Z" fill="#045881"/>
<path d="M381.06 285.5C382.94 285 385.42 285.5 386.23 287.5C386.86 289.24 386.75 291.65 385.14 292.83C383.14 294.04 380.02 293.68 378.93 291.44C378 289.35 378.47 286 381.06 285.5Z" fill="#045881"/>
<path d="M390.38 285.51C392.24 285.01 394.72 285.41 395.57 287.37C396.42 289.33 396.13 291.95 394.19 293.01C392.25 294.07 389.29 293.54 388.31 291.38C387.33 289.22 387.85 286.09 390.38 285.51Z" fill="#045881"/>
<path d="M571 285.49C571.674 285.244 572.401 285.183 573.106 285.314C573.812 285.445 574.468 285.764 575.008 286.236C575.548 286.708 575.951 287.317 576.175 287.999C576.398 288.68 576.435 289.41 576.28 290.11C576.28 293.64 571.28 294.54 569.18 292.19C567.38 290.11 568.09 286.15 571 285.49Z" fill="#045881"/>
<path d="M680.52 285.46C682.37 284.99 684.73 285.64 685.44 287.59C685.97 289.37 685.87 291.81 684.14 292.9C683.322 293.343 682.394 293.541 681.466 293.47C680.539 293.399 679.651 293.062 678.91 292.5C676.72 290.53 677.43 286.09 680.52 285.46Z" fill="#045881"/>
<path d="M16.3899 296.05H145.8C145.49 302.33 145.31 308.62 145.17 314.91H16.3799C16.3799 308.62 16.3699 302.34 16.3899 296.05Z" fill="#045881"/>
<path d="M394 314.58H400.46V319.74H394C394 318 394 316.31 394 314.58Z" fill="#045881"/>
<path d="M566.21 315.89C568.54 314.16 571.67 314.47 574.42 314.53C574.42 315.87 574.42 317.2 574.42 318.53C573.42 318.64 572.01 318.43 571.54 319.53C570.94 321.04 571.22 322.73 571.17 324.33H574.06C574.06 325.67 574.06 327.02 574.06 328.33H571.17V347.59H564.7C564.7 341.18 564.7 334.76 564.7 328.35C563.7 328.35 562.76 328.35 561.8 328.35C561.8 327 561.8 325.65 561.8 324.35H564.69C564.92 321.55 564 318.1 566.21 315.89Z" fill="#045881"/>
<path d="M628.78 314.59C630.96 314.59 633.14 314.59 635.32 314.59V319.73H628.78V314.59Z" fill="#045881"/>
<path d="M342.53 314.66H349.53C349.53 322.61 349.48 330.56 349.53 338.51C349.53 340.84 351.19 343.29 353.73 343.12C356.33 343.43 358.28 340.96 358.2 338.52C358.28 330.57 358.2 322.62 358.2 314.66C360.54 314.66 362.88 314.66 365.2 314.66C365.2 322.66 365.2 330.59 365.2 338.55C365.229 339.907 364.956 341.253 364.4 342.491C363.845 343.729 363.022 344.829 361.99 345.71C359.4 347.83 355.89 348.34 352.64 348.14C349.73 347.98 346.64 347.14 344.64 344.91C343.051 342.964 342.257 340.488 342.42 337.98C342.507 330.207 342.543 322.433 342.53 314.66Z" fill="#045881"/>
<path d="M485.8 314.59H492.32C492.32 316.31 492.32 318.03 492.32 319.76H485.8C485.793 318.033 485.793 316.31 485.8 314.59Z" fill="#045881"/>
<path d="M587.71 314.66C591.95 314.66 596.2 314.66 600.45 314.66C602.93 314.66 605.64 315.41 607.2 317.48C609.01 319.86 609.2 323.04 609.02 325.93C608.85 328.63 607.79 331.52 605.37 332.98C602.16 334.9 598.26 334.09 594.72 334.26C594.72 338.73 594.72 343.2 594.72 347.67H587.72C587.707 336.677 587.703 325.673 587.71 314.66ZM594.71 319.83V329.1C596.71 328.93 599.37 329.78 600.86 327.94C601.528 326.966 601.912 325.825 601.969 324.645C602.025 323.466 601.752 322.293 601.18 321.26C599.73 319.17 596.87 320 594.72 319.83H594.71Z" fill="#045881"/>
<path d="M720.3 314.66H731.51C733.25 322.147 734.977 329.64 736.69 337.14C738.6 329.66 740.4 322.14 742.27 314.66H753.19C753.19 325.66 753.19 336.66 753.19 347.66H746.37C746.37 339.26 746.37 330.86 746.37 322.46C744.15 330.84 742.07 339.25 739.92 347.65H733.25C731.25 339.16 729 330.73 727.25 322.19C726.86 330.66 727.19 339.19 727.08 347.65C724.83 347.65 722.58 347.65 720.33 347.65C720.317 336.663 720.307 325.667 720.3 314.66Z" fill="#045881"/>
<path d="M820.21 319.75C820.21 318.02 820.21 316.3 820.21 314.58H826.74V319.74L820.21 319.75Z" fill="#045881"/>
<path d="M498 320.81C500.18 319.81 502.35 318.81 504.54 317.87V324.36H507.77V328.42H504.54C504.54 333.08 504.45 337.74 504.6 342.42C504.49 344.23 506.55 344.1 507.79 344.12C507.79 345.39 507.79 346.67 507.79 347.95C505.17 348.23 502.24 348.57 499.92 347.04C498.42 346.04 497.99 344.12 498.03 342.42C498.03 337.77 498.03 333.11 498.03 328.42H495.5V324.37H498V320.81Z" fill="#045881"/>
<path d="M377 326.47C377.594 325.723 378.334 325.104 379.175 324.651C380.015 324.198 380.939 323.921 381.89 323.836C382.841 323.751 383.799 323.86 384.707 324.156C385.615 324.452 386.453 324.93 387.17 325.56C387.681 326.114 388.067 326.771 388.302 327.487C388.537 328.203 388.614 328.961 388.53 329.71C388.53 335.71 388.53 341.71 388.53 347.71H382C382 342.463 382 337.217 382 331.97C382.101 330.857 381.857 329.739 381.3 328.77C381.074 328.501 380.79 328.287 380.47 328.142C380.15 327.997 379.802 327.926 379.451 327.934C379.1 327.942 378.755 328.028 378.441 328.186C378.128 328.345 377.854 328.572 377.64 328.85C377.133 329.803 376.92 330.886 377.03 331.96C377.03 337.2 377.03 342.45 377.03 347.7H370.51C370.51 339.92 370.51 332.143 370.51 324.37H377C377 325.06 377 325.76 377 326.47Z" fill="#045881"/>
<path d="M428.46 326.18C430.52 324.11 433.64 323.74 436.46 323.86C439.28 323.98 441.95 324.86 443.46 327.18C445.33 330.11 445.15 333.75 445.16 337.09C440.96 337.09 436.75 337.09 432.55 337.09C432.67 338.96 432.55 340.92 433.38 342.66C433.574 343.04 433.858 343.365 434.209 343.607C434.56 343.849 434.965 344 435.388 344.047C435.812 344.094 436.24 344.034 436.635 343.874C437.03 343.714 437.379 343.458 437.65 343.13C438.204 342.126 438.49 340.997 438.48 339.85C440.66 339.85 442.84 339.85 445.02 339.85C444.989 341.94 444.221 343.952 442.85 345.53C440.71 347.87 437.29 348.34 434.28 348.1C431.72 347.93 428.93 346.95 427.61 344.6C425.69 341.25 426.1 337.23 426.14 333.53C426.29 331 426.61 328.13 428.46 326.18ZM433.19 329.26C432.719 330.603 432.486 332.017 432.5 333.44H438.63C438.643 332.139 438.488 330.842 438.17 329.58C437.49 327.52 434.13 327.33 433.19 329.26Z" fill="#045881"/>
<path d="M466.33 325.48C469.318 323.831 472.819 323.374 476.13 324.2C477.674 324.518 479.05 325.386 480.003 326.642C480.955 327.898 481.42 329.457 481.31 331.03H474.79C474.69 329.64 474.66 327.42 472.73 327.51C470.56 327.01 469.31 330.17 471.02 331.43C473.78 333.59 477.56 334.13 480.02 336.7C480.64 337.383 481.109 338.19 481.394 339.068C481.68 339.945 481.776 340.873 481.677 341.791C481.578 342.708 481.285 343.594 480.819 344.391C480.352 345.187 479.722 345.875 478.97 346.41C475.57 348.74 470.97 348.51 467.22 347.26C464.32 346.26 463.5 342.94 463.64 340.18C465.83 340.18 468.01 340.18 470.2 340.18C470.29 341.3 470.04 342.71 471.02 343.53C471.594 343.899 472.273 344.071 472.954 344.019C473.634 343.966 474.279 343.693 474.79 343.24C475.148 342.612 475.268 341.875 475.126 341.166C474.985 340.457 474.592 339.822 474.02 339.38C471.32 337.33 467.64 336.88 465.3 334.3C464.725 333.682 464.29 332.946 464.027 332.143C463.765 331.341 463.679 330.491 463.777 329.652C463.875 328.813 464.154 328.006 464.595 327.285C465.036 326.565 465.628 325.949 466.33 325.48Z" fill="#045881"/>
<path d="M547.88 324C551.42 323.49 555.78 323.8 558.12 326.9C560.12 330.01 559.92 333.9 559.9 337.4C559.7 340.4 559.5 343.75 557.28 345.97C554.36 348.49 550.07 348.49 546.51 347.62C545.179 347.229 543.986 346.47 543.07 345.429C542.153 344.388 541.55 343.109 541.33 341.74C540.507 337.478 540.633 333.087 541.7 328.88C542.43 326.11 545.14 324.39 547.88 324ZM548.88 328.34C547.52 329.42 547.58 331.4 547.43 332.98C547.43 336.05 547.24 339.16 547.94 342.17C548.35 344.17 551.54 344.75 552.56 342.94C553.35 341.4 553.29 339.61 553.43 337.94C553.633 335.204 553.468 332.453 552.94 329.76C552.818 329.355 552.6 328.984 552.306 328.68C552.011 328.376 551.649 328.146 551.248 328.01C550.847 327.874 550.419 327.836 550 327.898C549.581 327.961 549.184 328.123 548.84 328.37L548.88 328.34Z" fill="#045881"/>
<path d="M619.45 327C620.017 325.983 620.852 325.141 621.864 324.564C622.876 323.988 624.026 323.699 625.19 323.73C625.19 325.73 625.19 327.64 625.19 329.6C623.64 329.6 621.92 329.6 620.69 330.68C619.46 331.76 619.49 333.26 619.47 334.68C619.47 339.01 619.47 343.35 619.47 347.68C617.29 347.68 615.11 347.68 612.93 347.68C612.93 339.92 612.93 332.14 612.93 324.38H619.48C619.48 325.25 619.47 326.14 619.45 327Z" fill="#045881"/>
<path d="M647.45 326.49C650.18 322.54 658 322.89 658.94 328.1C659.07 334.62 658.94 341.1 658.94 347.68H652.47C652.39 341.87 652.64 336.05 652.35 330.25C652.4 327.53 648.07 327.08 647.67 329.79C647.15 335.72 647.59 341.72 647.45 347.68C645.29 347.68 643.13 347.68 640.97 347.68C640.97 339.92 640.97 332.15 640.97 324.38H647.45C647.5 324.9 647.47 326 647.45 326.49Z" fill="#045881"/>
<path d="M667.29 325.05C670.562 323.545 674.297 323.394 677.68 324.63C680.83 325.8 682.21 329.32 682.16 332.47C680.01 332.47 677.86 332.47 675.71 332.47C675.693 331.242 675.445 330.027 674.98 328.89C673.85 327.24 670.8 327.66 670.44 329.74C669.787 333.459 669.706 337.256 670.2 341C670.2 342.58 671.33 344.37 673.15 344C675.47 343.73 675.64 340.94 675.77 339.11C677.93 339.11 680.11 339.11 682.28 339.11C682.16 341.5 681.74 344.11 679.94 345.85C677.54 348.07 674.01 348.32 670.94 347.99C669.663 347.941 668.42 347.56 667.335 346.885C666.25 346.21 665.359 345.264 664.75 344.14C663.1 340.69 663.36 336.73 663.53 333.01C663.72 330.1 664.39 326.56 667.29 325.05Z" fill="#045881"/>
<path d="M688.82 326.16C691.06 323.98 694.43 323.68 697.4 323.9C699.96 324.07 702.67 325.19 703.99 327.51C705.65 330.41 705.45 333.87 705.51 337.09H692.89C692.803 338.996 693.084 340.901 693.72 342.7C693.907 343.043 694.17 343.34 694.488 343.566C694.807 343.793 695.173 343.943 695.559 344.007C695.945 344.071 696.34 344.045 696.714 343.933C697.089 343.821 697.433 343.625 697.72 343.36C698.64 342.44 698.58 341.04 698.8 339.85H705.29C705.285 341.929 704.529 343.936 703.16 345.5C700.9 348.04 697.16 348.42 694.01 348.06C691.49 347.84 688.87 346.64 687.7 344.29C686.12 341.16 686.29 337.52 686.38 334.12C686.6 331.36 686.84 328.27 688.82 326.16ZM693.53 329.32C693.06 330.641 692.836 332.038 692.87 333.44H699C698.997 332.135 698.836 330.836 698.52 329.57C697.86 327.47 694.42 327.34 693.53 329.32Z" fill="#045881"/>
<path d="M782.73 326C785.28 322.76 790.95 323.32 793.01 326.84C793.01 326.23 793.01 325.01 792.95 324.41H799.22C799.22 332.41 799.22 340.433 799.22 348.48C799.22 350.57 798.85 352.83 797.31 354.36C795.21 356.46 792.05 356.75 789.25 356.68C786.83 356.59 784.13 356.1 782.51 354.14C781.614 352.877 781.129 351.369 781.12 349.82C783.28 349.82 785.46 349.82 787.64 349.82C787.84 350.73 787.77 351.82 788.56 352.49C788.839 352.736 789.174 352.913 789.535 353.004C789.896 353.095 790.274 353.099 790.636 353.015C790.999 352.931 791.337 352.761 791.621 352.52C791.905 352.279 792.128 351.974 792.27 351.63C793.02 349.41 792.54 347.01 792.72 344.72C790.48 348.16 784.72 348.3 782.33 345.02C780.53 341.94 780.91 338.2 780.85 334.77C780.85 331.73 780.89 328.46 782.73 326ZM788.9 328.34C787.27 329.77 787.42 332.2 787.32 334.18C787.4 336.79 787 339.54 787.99 342.03C788.204 342.421 788.529 342.74 788.923 342.949C789.317 343.157 789.763 343.246 790.207 343.203C790.651 343.16 791.072 342.989 791.419 342.709C791.766 342.43 792.024 342.054 792.16 341.63C792.833 338.058 792.918 334.399 792.41 330.8C792.36 329.06 790.62 327.05 788.9 328.3V328.34Z" fill="#045881"/>
<path d="M810.87 327.13C811.424 326.091 812.256 325.227 813.274 324.636C814.291 324.044 815.454 323.748 816.63 323.78C816.63 325.78 816.63 327.67 816.63 329.63C815.12 329.63 813.45 329.63 812.22 330.63C810.99 331.63 810.92 333.23 810.91 334.63V347.63H804.37V324.37H810.93C810.91 325.29 810.89 326.21 810.87 327.13Z" fill="#045881"/>
<path d="M839 326.45C839.591 325.711 840.323 325.098 841.154 324.647C841.985 324.195 842.898 323.915 843.839 323.822C844.78 323.729 845.731 323.825 846.634 324.104C847.538 324.384 848.376 324.841 849.1 325.45C849.633 326.01 850.038 326.679 850.287 327.411C850.536 328.144 850.622 328.921 850.54 329.69C850.54 335.69 850.54 341.64 850.54 347.62C848.35 347.62 846.17 347.62 843.99 347.62C843.99 342.19 843.99 336.76 843.99 331.33C844.06 329.82 843.39 327.8 841.56 327.85C839.98 327.74 839.02 329.32 839.07 330.73C839.01 336.36 839.07 341.99 839.07 347.62H832.52C832.52 339.85 832.52 332.07 832.52 324.31H839C839 324.89 839 325.93 839 326.45Z" fill="#045881"/>
<path d="M394 324.36H400.46V347.68H394C394 339.893 394 332.12 394 324.36Z" fill="#045881"/>
<path d="M404 324.36H410.6C411.81 330.16 413.03 335.97 414.21 341.77C415.42 335.97 416.55 330.16 417.73 324.36H424.15C421.983 332.14 419.82 339.917 417.66 347.69C415.24 347.69 412.84 347.69 410.43 347.64C408.32 339.87 406.11 332.12 404 324.36Z" fill="#045881"/>
<path d="M449.61 324.36H456.14C456.14 325.25 456.14 326.14 456.14 327.05C456.699 326.026 457.533 325.178 458.546 324.601C459.56 324.023 460.714 323.739 461.88 323.78C461.88 325.78 461.88 327.67 461.88 329.62C460.41 329.67 458.79 329.62 457.55 330.57C456.31 331.52 456.16 333.23 456.15 334.69C456.15 339.017 456.15 343.35 456.15 347.69H449.62C449.607 339.897 449.603 332.12 449.61 324.36Z" fill="#045881"/>
<path d="M485.8 324.36H492.34C492.34 332.13 492.34 339.9 492.34 347.67C490.16 347.67 487.98 347.67 485.8 347.67C485.8 339.9 485.79 332.13 485.8 324.36Z" fill="#045881"/>
<path d="M508.62 324.36H515.14C516.27 329.78 517.34 335.22 518.48 340.65C519.74 335.22 520.89 329.77 522.16 324.35C524.26 324.35 526.36 324.35 528.46 324.35C525.46 335.06 522.38 345.76 519.39 356.47C517.07 356.47 514.75 356.47 512.39 356.47C513.18 353.56 514.15 350.7 514.85 347.78C512.93 340 510.69 332.18 508.62 324.36Z" fill="#045881"/>
<path d="M628.79 324.36H635.32C635.32 332.13 635.32 339.91 635.32 347.68H628.78C628.79 339.91 628.77 332.13 628.79 324.36Z" fill="#045881"/>
<path d="M758.43 324.36H765C765 330 764.93 335.64 765.06 341.28C765.06 342.77 766.21 344.38 767.86 344.04C769.44 343.93 770.02 342.14 769.96 340.79C769.96 335.32 769.96 329.79 769.96 324.36H776.5C776.6 332.13 776.26 339.92 776.7 347.69H769.9C769.9 346.98 769.9 346.26 769.95 345.55C767.24 349.4 759.66 349.14 758.55 344.12C758.25 337.53 758.5 330.94 758.43 324.36Z" fill="#045881"/>
<path d="M820.21 324.36H826.75C826.75 332.15 826.85 339.94 826.67 347.73C824.51 347.66 822.36 347.73 820.21 347.68V324.36Z" fill="#045881"/>
<path d="M16.3899 330.11C59.2033 330.11 102.013 330.11 144.82 330.11C144.69 334.11 144.68 338.04 144.63 342C101.883 342 59.1333 342 16.3799 342C16.3799 338 16.3699 334.07 16.3899 330.11Z" fill="#045881"/>
<path d="M142.58 43.4401C151.72 41.3101 161.23 41.5801 170.49 42.6601C177 43.3421 183.278 45.4602 188.87 48.8616C194.462 52.2631 199.23 56.8631 202.83 62.3301C210.78 74.4901 213.16 89.4001 213 103.69C230.55 95.5601 250.08 92.1601 269.34 92.2401C275.939 99.9699 281.742 108.346 286.66 117.24C276.83 116.18 266.83 115.53 257.02 117.04C246.5 118.21 236.02 121.29 227.11 127.13C241.31 123.98 256.3 123.07 270.47 126.86C280.14 129.47 289.61 133.94 296.78 141.08C297.785 144.107 298.616 147.189 299.27 150.31C301.06 158.31 300.75 166.58 300.63 174.72C293.437 167.71 285.161 161.906 276.12 157.53C267.55 153.53 258.62 150.07 249.24 148.63C236.874 146.625 224.259 146.706 211.92 148.87C222.92 150.67 234.11 153.87 242.8 161.15C249.89 166.25 254.74 173.9 257.71 182.02C260.352 189.337 261.82 197.025 262.06 204.8C255.493 197.551 248.539 190.661 241.23 184.16C234.02 177.93 226.39 171.93 217.54 168.22C211.733 165.629 205.476 164.196 199.12 164C196.92 164 194.43 164.23 192.84 165.95C190.66 168.29 189.9 171.55 189.34 174.61C187.29 187.06 189.47 199.74 192.64 211.81C197.64 230.15 205.33 247.68 214.26 264.43C218.12 271.87 223.04 278.7 228.07 285.38C239.23 299.95 252.4 313.2 267.93 323.1C277.83 329.34 289.09 334.39 300.71 336.29C300.71 338.21 300.63 340.16 300.57 342.06C248.57 341.96 196.57 342.06 144.63 341.99C144.68 337.99 144.69 334.06 144.82 330.1C144.9 325.03 145.1 319.96 145.17 314.89C145.31 308.6 145.49 302.31 145.8 296.03C146 290.95 146.23 285.877 146.49 280.81C146.74 274.52 146.98 268.23 147.63 261.96C148.14 256.87 148.74 251.8 149.47 246.74C150.36 240.42 151.47 234.12 152.82 227.88C153.92 222.83 154.97 217.76 156.11 212.72C157.65 206.56 159.39 200.45 161.27 194.37C166.4 178.18 172.27 162.06 181.02 147.43C177.888 145.853 174.503 144.838 171.02 144.43C162.596 144.504 154.396 147.153 147.52 152.02C134.81 160.79 125.91 173.77 117.97 186.76C116.875 180.131 116.96 173.36 118.22 166.76C119.375 159.427 121.79 152.349 125.36 145.84C129.155 139.207 134.42 133.531 140.75 129.25C148.456 124.206 157.097 120.761 166.16 119.12C169.08 118.49 172.05 118.2 174.94 117.44C168.528 116.605 162.066 116.224 155.6 116.3C145.14 116.36 134.68 116.79 124.26 117.78C110.04 119.32 95.6701 123.83 84.6401 133.21C82.0201 135.32 79.9101 137.97 77.3301 140.11C78.6512 137.321 80.1372 134.613 81.7801 132C89.3901 119.36 99.0601 107.69 111.38 99.4101C123.38 91.2901 138.08 86.6601 152.64 87.9201C165.8 89.2501 177.64 96.1801 187.51 104.64C189.89 98.6401 187.98 91.9901 185.27 86.4401C181.13 78.2301 175.17 71.0501 168.61 64.6701C160 57.5101 151.08 50.7301 142.58 43.4401Z" fill="#19BBB7"/>
<path d="M16.3799 212.75C62.9599 212.75 109.537 212.75 156.11 212.75C154.97 217.75 153.92 222.86 152.82 227.91C107.34 227.91 61.8599 227.91 16.3799 227.91C16.3799 222.84 16.3699 217.8 16.3799 212.75Z" fill="white"/>
<path d="M16.3899 246.77C60.7499 246.77 105.11 246.77 149.47 246.77C148.74 251.83 148.14 256.9 147.63 261.99H16.3799C16.3799 256.91 16.3699 251.84 16.3899 246.77Z" fill="white"/>
<path d="M16.39 280.83H146.49C146.23 285.897 146 290.97 145.8 296.05H16.39C16.37 290.983 16.37 285.91 16.39 280.83Z" fill="white"/>
<path d="M16.3799 314.91H145.17C145.1 319.98 144.9 325.05 144.82 330.12C102.013 330.12 59.2033 330.12 16.3899 330.12C16.3699 325 16.3799 320 16.3799 314.91Z" fill="white"/>
</svg>
